<?xml version="1.0" encoding="UTF-8"?>
<svg id="b" data-name="Layer 2" xmlns="http://www.w3.org/2000/svg" width="54.089" height="22.762" viewBox="0 0 54.089 22.762">
  <g id="c" data-name="New bodygraph">
    <g id="d" data-name="variables">
      <path id="e" data-name="arrow-left" d="M53.907,11.268c-3.922-3.757-7.982-7.405-11.986-11.098-3.809,3.454-7.577,6.942-11.313,10.454-.078-1.249-.341-2.485-.818-3.643-.712-1.808-1.984-3.378-3.551-4.518-1.353-.979-3-1.45-4.638-1.659-2.059-.184-4.161.154-6.058.973-1.725.722-3.265,1.804-4.749,2.926-1.712,1.284-3.461,2.522-5.287,3.639-1.723,1.117-3.578,2.007-5.375,2.993.003.04.011.118.014.158,2.051,1.104,4.126,2.175,6.072,3.46,1.732,1.059,3.364,2.266,4.989,3.48,2.052,1.525,4.319,2.885,6.867,3.354,2.498.483,5.174.178,7.444-1.001,1.912-1.172,3.46-2.943,4.284-5.037.49-1.216.755-2.518.817-3.829,3.777,3.549,7.487,7.15,11.298,10.671,4.01-3.766,7.999-7.547,11.992-11.323Z" fill="#fff" stroke="#262625" stroke-miterlimit="10" stroke-width=".25"/>
    </g>
  </g>
</svg>