<?xml version="1.0" encoding="UTF-8"?>
<svg id="b" data-name="Layer 2" xmlns="http://www.w3.org/2000/svg" width="60.054" height="78.651" viewBox="0 0 60.054 78.651">
  <g id="c" data-name="astrowheel-lunacco">
    <path id="d" data-name="anchor-house-4" d="M2.304,60.687c1.681,3.974,4.292,7.633,7.861,10.684,5.625,4.808,13.1,7.455,20.54,7.272,13.535-.333,25.489-10.244,28.589-23.176,3.304-13.782-4.472-28.314-17.359-34.192-.807-.368-1.631-.701-2.469-.997-3.728-1.315-7.658-2.048-11.032-4.212C23.428,12.899,16.042.043,15.993,0c.007,1.766-.154,9.375-.293,11.874-.159,4.001-1.487,7.816-3.602,11.195-2.045,3.378-5.256,5.877-7.302,9.249C-.551,41.13-1.494,51.712,2.304,60.687ZM6.822,33.943c2.185-3.424,5.383-6.082,7.52-9.537,2.985-4.429,4.081-9.821,4.132-15.073,3.594,6.722,10.661,11.055,18.01,12.755,12.029,2.969,21.184,14.545,20.887,26.82.053,9.476-5.351,18.877-13.877,23.337-11.084,6.763-26.913,3.813-34.847-6.337-7.468-8.816-8.13-22.357-1.825-31.965Z" fill="#262625"/>
  </g>
</svg>
