<?xml version="1.0" encoding="UTF-8"?>
<svg id="b" data-name="Layer 2" xmlns="http://www.w3.org/2000/svg" width="60.64" height="40.82" viewBox="0 0 60.64 40.82">
  <g id="c" data-name="Layer 1">
    <g>
      <path d="M3.73,17.14c4.32-2.39,7.75-6.06,11.86-8.77,2.1,2.91,3.69,6.16,5.83,9.05,2.14-1.98,4.4-3.82,6.83-5.41,1.57-.98,3.12-2.6,5.15-2.11,1.38,1.61,2.33,3.54,3.29,5.43.67.62,1.34,1.26,2.08,1.83,1.99-1.36,3.79-2.96,5.73-4.38,1.88-1.35,3.74-2.71,5.62-4.04,2.65,2.53,3.85,6.12,6.35,8.76,1.41-1.17,2.78-2.35,4.17-3.53-1.28-2.3-2.73-4.58-3.04-7.25-.76,1.23-2.02,2.28-1.35,4.02-.38-1.18-.76-2.36-1.14-3.52-.66-.83-1.31-1.65-1.96-2.47,1.3.64,2.62,1.26,3.94,1.86-.86-2.58-2.6-4.61-4.32-6.61-4.12,2.33-7.83,5.28-11.53,8.22-.22.02-.65.07-.86.1-1.68-2.62-3.02-5.44-4.56-8.13-4.57,2.32-9.11,5.02-12.52,8.9-1.19-3.05-2.82-5.89-4.34-8.78C11.47,2.74,5.58,8.41,0,13.74c1.1,1.2,1.83,3.33,3.73,3.4Z"/>
      <path d="M41.2,31.41c-1.32-1.47-2.63-3.01-3.2-4.93-.5-.94-.65-3.51-2.26-2.74-1.12,1.8.41,3.76.67,5.63.34.49,1.03,1.49,1.37,1.98-.8-.77-1.58-1.56-2.35-2.33-.08-.77-.23-2.3-.31-3.07-1.19.77-2.36,1.58-3.56,2.34.9-1.24,2.67-1.98,3-3.55-.31-.04-.92-.11-1.23-.15-3.21,1.95-6.27,4.15-9.26,6.41-.29.02-.86.06-1.14.08-1.027-2.154-2.084-4.308-3.181-6.422-.345-1.387-2.454-1.202-3.389-.438-2.73,1.66-5.56,3.3-7.8,5.6.22.15.67.44.89.59,1.71-.95,3.3-2.1,5.11-2.83-1.25,1.41-3.49,2.26-3.59,4.42l-.43.48c-.21.2-.64.59-.86.79-1.3-.46-2.65-.61-3.98-.17.74-.58,1.45-1.19,2.12-1.81l-.21-.47c-3.53.2-5.7,3.96-7.39,6.74.51,1.08,1.02,2.16,1.53,3.26,5.31-2.11,9.16-6.59,14.2-9.16,1.79,2.59,2.24,8.19,6.45,7.53,3.71-1.98,6.7-5.09,10.51-6.92,1.7,2.51,2.62,6.5,5.99,7.24,4.24-2.07,7.83-5.22,11.7-7.88,2.6,2.68,3.52,7.68,7.52,8.4-.56-1.15-1.08-2.34-1.2-3.61-.64-.62-1.27-1.24-1.9-1.86,1.7,1.24,3.37,2.55,5.11,3.76.05-.59.15-1.77.2-2.35-1.57-4.64-4.81-8.44-6.8-12.88-4.63,1.89-8.54,5.14-12.33,8.32Z"/>
    </g>
  </g>
</svg>