<?xml version="1.0" encoding="UTF-8"?>
<svg id="b" data-name="Layer 2" xmlns="http://www.w3.org/2000/svg" width="61.075" height="57.025" viewBox="0 0 61.075 57.025">
  <g id="c" data-name="Layer 1">
    <path d="M61.057,13.035C61.267,6.775,56.447-.075,49.757.015c-.12.73-.35,2.18-.46,2.91l-.54-.07c.22-.69.66-2.06.88-2.74-3.25.79-6.84,1.45-9.15,4.13-5.79,6.46-7.99,15.08-10.32,23.2-.7-2.34-1.34-4.69-1.89-7.07-.6-1.48-.3-3.76-1.74-4.66C24.237,9.335,20.287,2.465,13.417.325,6.777-1.485,1.187,4.575.067,10.595c-.48,5.14,1.69,10.14,4.63,14.24,1.34-.6,2.67-1.21,4.01-1.8-.23-2.17-.83-4.28-1.5-6.36-.56-.01-1.71-1.54-.25-2.13-.26-2.01.21-3.97,1.05-5.77,2.76-1.03,5.88-.55,7.64,2,9.47,12.91,10.35,29.49,12.1,44.83.43.35,1.29,1.07,1.72,1.42,1.35-.54,3.33-.36,3.96-1.95,1.09-11.83,2.23-23.78,6.15-35.08,1.26-5.35,4.31-10.34,9.14-13.16,2.14-.53,4.41.91,5.2,2.9,1.2,3.29-.89,6.73.08,10.02-.39-.35-1.17-1.04-1.56-1.39-.38,1.43-.67,2.88-.91,4.34,1.18.67,2.33,1.42,3.58,1.97,2.27-.52,3.36-2.58,4.27-4.51.69-2.34,1.86-4.63,1.68-7.13Z"/>
  </g>
</svg>