<?xml version="1.0" encoding="UTF-8"?>
<svg id="b" data-name="Layer 2" xmlns="http://www.w3.org/2000/svg" width="72.34" height="57.7" viewBox="0 0 72.34 57.7">
  <g id="c" data-name="Layer 1">
    <path d="M70.9,21.16c-2.31-2.45-4.6-4.93-6.38-7.8-2.82-3.96-4.64-8.49-7.05-12.67-1.33-.63-3.02-1.14-4.26-.07-2.33,4.72-3.87,9.83-6.43,14.45-2.31,3.72-4.77,7.34-7.02,11.1-6.31,7.99-13.86,15.31-23.04,19.9-4.62,2.4-9.89,2.86-14.87,4.05-1.87.79-1.45,3.04-1.85,4.65,1.78.89,3.58,2.49,5.74,1.8,4.75-1.27,9.13-3.61,13.89-4.88.87-2.16-2.26-.62-3.01-.61,1.43-.97,2.92-1.85,4.39-2.78l.44-.44c-.31,1.03-.55,2.11-.27,3.18,12.83-7.96,24.09-18.79,31.38-32.1.28,4.07.43,8.15.25,12.24.53,8.82-1.42,17.88,1.04,26.52,1.53-.12,3.36.2,4.42-1.24,1.57-4.97.4-10.22.65-15.31.23-5.34-.46-10.67-.22-16,.14-2.98.1-5.96-.35-8.91,1.44,1.93,2.97,3.79,4.61,5.57l-.05.3c2.73,1.92,5.87,4.29,9.43,3.31-.26-1.5-.12-3.22-1.44-4.26ZM30,42.97c-.33-1.39.2-1.94,1.6-1.66.31,1.38-.23,1.93-1.6,1.66ZM48.72,17.49c-.15-1.82.42-3.53,1.2-5.14.72,0,2.17.02,2.89.02-1.29,1.77-2.64,3.49-4.09,5.12ZM55.07,48.12c-1.67.35-2.04-2.56-1.09-3.51,1.36.04,1.68,2.51,1.09,3.51ZM56.39,30.05c.46,3.32,1.05,6.63,1.61,9.93-2.67-2.57-2.72-6.63-1.61-9.93ZM66.37,22.14c-1.39.31-1.9-.23-1.52-1.62,1.37-.32,1.88.23,1.52,1.62Z"/>
  </g>
</svg>