<?xml version="1.0" encoding="UTF-8"?>
<svg id="b" data-name="Layer 2" xmlns="http://www.w3.org/2000/svg" width="30.413" height="63.575" viewBox="0 0 30.413 63.575">
  <g id="c" data-name="Layer 1">
    <path d="M18.523,47.174c-.14-2.04-.26-4.07-.36-6.09,4.1-.41,9,.67,12.25-2.48-2.4-.82-4.94-1.26-7.25-2.3-4.82-2.85-8.02-8-9.11-13.42-.89-5.03,1.05-10.08,4.12-13.99,2.91-3.31,7.29-4.53,11.1-6.46C22.523-1.796,13.083-.296,7.543,5.264-.887,11.334-2.267,24.374,3.483,32.714c2.35,2.65,5.53,4.39,8.33,6.54.05,2.62.09,5.24.14,7.87-2.87.2-5.81.05-8.63.69-2.44.72-1.4,3.56-1.43,5.43,3.53.07,7.06.07,10.59.25-.06,3.36-.11,6.73.28,10.08,1.92-.1,4.5.46,5.66-1.53.44-2.94.15-5.94.2-8.9,3.18-.14,6.51.46,9.61-.45,1.37-1.52.52-3.66.11-5.39-3.27.04-6.55.13-9.82-.13ZM3.093,25.424c-1.36-.18-1.6-.88-.73-2.09,1.36.15,1.6.85.73,2.09ZM7.753,50.074c1.25-.87,1.99-.64,2.23.69-1.26.84-2,.61-2.23-.69ZM15.483,32.124c1.62-.52,2.18.03,1.67,1.67-1.63.5-2.19-.05-1.67-1.67ZM6.133,32.024c-1.54.19-2.2-2.39-.6-2.75,1.44-.23,2.14,2.44.6,2.75ZM6.163,28.414c-.02-2.36.04-4.71.18-7.04,3.41.7,3.22,6.47-.18,7.04ZM10.273,24.524c-1.34-.22-1.57-.93-.68-2.15,1.33.19,1.56.91.68,2.15ZM10.913,6.684c-1.59-.29-.2-2.39.73-2.63,2.43-.9.83,2.82-.73,2.63ZM12.623,27.974c1.38-.41,1.88.09,1.51,1.51-1.38.39-1.89-.11-1.51-1.51ZM13.983,53.294c.17-2.87,2.86-5.41,5.82-4.64-1.96,1.52-3.89,3.08-5.82,4.64Z"/>
  </g>
</svg>