<?xml version="1.0" encoding="UTF-8"?>
<svg id="b" data-name="Layer 2" xmlns="http://www.w3.org/2000/svg" width="60.082" height="47.987" viewBox="0 0 60.082 47.987">
  <g id="c" data-name="Layer 1">
    <g>
      <path d="M14.282,31.437c.02-.48.07-1.44.1-1.92l.54,1.65c5.21-1.25,9.87-5.74,9.74-11.37.97-4.91-2.64-8.68-5.88-11.75,6.62-.92,13.45-1.49,20.03.04,6.97.8,12.98,4.69,19.35,7.32.74-1.21,1.77-2.33,1.92-3.79-.68-1.36-1.55-2.61-2.31-3.92C50.502,4.217,43.002.577,34.822.087c-7-.53-13.82,1.47-20.49,3.29C8.372,5.897,1.742,9.867.252,16.657c-1.77,8.07,6.07,15.66,14.03,14.78ZM29.542,4.967c-.07,1.39-2.55,1.29-3.39.59.08-1.4,2.53-1.29,3.39-.59ZM17.722,28.447c-1.41.37-1.95-.14-1.61-1.5,1.41-.37,1.95.13,1.61,1.5ZM15.952,3.707c1.58-.85,2.06,1.64.52,1.95-1.59.86-2.07-1.65-.52-1.95ZM7.932,7.787c1.25.61,1.17,1.28-.23,2.01-1.25-.62-1.17-1.29.23-2.01ZM4.712,19.637c.24-3.82,4.02-5.77,7.02-7.29,3.73.77,8.05,3,8.04,7.37.27,3.38-2.98,5.32-5.75,6.27-4.07,1.62-10.21-1.43-9.31-6.35Z"/>
      <path d="M52.402,18.127c-4.11-2.21-9.09-1.28-13.15.59.62.54,1.25,1.09,1.87,1.63l-2.63-1.2.87,3.02c-.5-.71-1-1.41-1.5-2.11-.37.68-1.09,2.04-1.46,2.73.33.13,1,.41,1.33.55-.47-.06-1.42-.2-1.9-.26-2.53,6.39.01,13.88,5.98,17.31-13.76,2.72-28.38-.4-40.18-7.85-2.66,1.25-.94,5.41-.4,7.65,2.86,1.22,5.61,2.72,8.54,3.79,1.69.69,3.44,1.24,5.2,1.74,5.8,1.17,11.63,2.49,17.59,2.24-.42-1.44-1.06-3.08-2.71-3.45-2.07-.15-4.14-.12-6.21-.24,3.28-.39,6.74-.65,9.74,1-.03.61-.09,1.84-.12,2.45,5.89-.94,11.89-1.87,17.19-4.77-.45-1.04-.94-2.06-1.44-3.08,1.46.06,1.96,1.41,2.72,2.4,4.28-2.37,7.31-6.58,7.87-11.46.35-5.22-3.3-9.69-7.2-12.68ZM57.042,31.607c-.68-.03-1.37-.07-2.06-.11.32,1.45.51,2.93.55,4.42-.87-1.03-1.47-2.23-1.51-3.6-3.19,3.31-8.83,4.85-12.3,1.09-1,.64-2.45,2.25-2.62.08l-.13-.3c-.84-1.67-1.35-3.48-1.86-5.26.39-.07,1.18-.22,1.58-.29.14.59.41,1.76.55,2.35.45-1.43.89-2.86,1.32-4.29,1.65-2.25,4.6-3.03,7.21-3.51,3.72.65,7.88,3.93,6.46,8.2.55-.16,1.67-.48,2.23-.64.31-2.19-.61-4.09-1.46-6,1.83,2.24,2.33,5.03,2.04,7.86Z"/>
    </g>
  </g>
</svg>