<?xml version="1.0" encoding="UTF-8"?>
<svg id="b" data-name="Layer 2" xmlns="http://www.w3.org/2000/svg" width="61.459" height="59.683" viewBox="0 0 61.459 59.683">
  <g id="c" data-name="Layer 1">
    <path d="M56.66,25.362c-4.62-2.88-10.81-2.62-15.33.36-.96,1.12-1.92,2.24-2.87,3.39-.97-3.46-2.01-6.91-2.62-10.45.22-5.35-.65-10.75-2.46-15.78C31.82-.788,26.9-.248,23.76.692c-1.63,1.61-2.42,3.83-3.26,5.91-1.59,2.12-2.13,5.03-3.04,7.56-1.04-2.73-1.91-5.54-3.24-8.14C12.01,3.722,9.46.972,6.02.952,3.77.812.54.492,0,3.412c.58.09,1.75.27,2.34.36l-1.94.17c.79,1.34.21,4.43,2.5,4.13,2.37.12,5.53,0,6.3,2.87,2.79,7.99,3.06,16.58,4.22,24.9.95.35,2.85,1.05,3.8,1.4.05-1.4.38-2.7,1.01-3.92.3,1.29.11,2.65.56,3.92,1.63-1.7,1.16-4.08,1.52-6.16.38-5.08,2.2-9.89,3.02-14.89l-.05-.31c2.06-2.45,1.9-6.16,4.25-8.47.13.61.4,1.83.53,2.44l.15.01c.22,1.35.51,2.7.87,4.04-.2,3.39.37,6.75.94,10.09.29,3.61,1.61,7.04,2.47,10.55.39,1.84,1.49,3.79.65,5.67-1.38,3.74-3.03,7.48-5.51,10.64-2.46,1.23-5.34,1.41-8,2.05-1.31,1.85-1.13,4.15-.6,6.25.88,1,2.09.32,3.15.11,2.46-1.03,5.3,0,7.63-1.47,5.12-2.38,7.41-7.9,9.12-12.91,5.56,4.28,14.13,5.12,19.35-.14,4.61-5.63,4.32-14.81-1.62-19.38ZM21.71,54.632c2.37-1.14,4.89-.7,7.3.02-2.43-.01-4.87.02-7.3-.02ZM57.35,28.762c-1.23.05-2.46-.02-3.67-.19-.1-.57-.29-1.7-.38-2.26,1.73-.11,3.43.76,4.05,2.45ZM47.8,25.442l.24.4-.57.16-.03-.46.36-.1ZM53.93,39.442c-2.12,1.49-4.84,3.34-7.51,2.16-2.25-1.1-4.15-2.78-6.22-4.16.35.12,1.03.36,1.38.48.42-2.83,1.52-5.74,4.24-7.09,2.26-1.7,5.05-.57,7.39.31,1.49,2.54,1.98,5.55.72,8.3ZM57.19,38.162c.36-1.54.8-3.05,1.18-4.57.3.09.9.26,1.21.34-.91,1.33-1.62,2.8-2.39,4.23Z"/>
  </g>
</svg>