<?xml version="1.0" encoding="UTF-8"?>
<svg id="b" data-name="Layer 2" xmlns="http://www.w3.org/2000/svg" width="43.718" height="38.428" viewBox="0 0 43.718 38.428">
  <g id="c" data-name="Layer 1">
    <g>
      <path d="M42.639,32.84c-.075-.093-.15-.186-.219-.279-.217-.538-.594-1.024-.907-1.427-.047-.061-.092-.117-.133-.17l-.046-.129c-.461-1.307-1.17-2.418-1.854-3.493-.494-.775-.96-1.507-1.321-2.297-.417-.868-.919-1.65-1.405-2.406-.253-.395-.507-.789-.75-1.201-.703-1.178-1.384-2.411-2.042-3.604-1.052-1.906-2.139-3.875-3.383-5.743-.478-1.154-1.167-2.115-1.833-3.045l-.027-.038c-.235-.834-.691-1.497-1.067-2.042-.201-.292-.391-.567-.513-.81-.436-.894-.939-1.729-1.427-2.536-.463-.768-.901-1.493-1.271-2.247l-.1-.173c-.444-.663-1.119-1.082-1.899-1.178-1.145-.143-2.255.439-2.908,1.03l-.26.235-.129.327c-.232.588-.605,1.163-1.001,1.772-.543.836-1.153,1.774-1.478,2.908l-.069.088c-.685.877-1.455,1.863-1.889,3.095-.838,1.113-1.445,2.32-2.033,3.49-.123.244-.245.488-.37.73l-.593.414-.289,1.271c-1.269,1.865-2.852,4.289-4.196,6.899-.293.445-.581.926-.873,1.459-.467.365-.761.864-.842,1.423-.974,1.589-1.871,3.229-2.741,4.819-.265.484-.53.969-.798,1.452h-.291l-.355.997c-.065.183-.243.459-.415.727-.526.821-1.621,2.528-.25,4.231l.155.166c.728.667,1.646.933,2.583.749,1.017-.2,1.947-.942,2.444-1.944,1.47-2.527,3.011-5.074,4.502-7.538,1.092-1.804,2.184-3.608,3.235-5.383.727-1.143,1.377-2.328,2.006-3.473.866-1.576,1.683-3.065,2.68-4.449l.369-.513-.064-.367c.025-.069.049-.134.072-.194l.272.113.59-1.35c.139-.319.298-.627.456-.936.122-.238.244-.477.359-.718.673-.871,1.185-1.8,1.66-2.72.176.269.402.614.577.902l-.185.211.608.949c.082.127.231.357.342.525.392.866,1.162,1.979,1.449,2.384l.008.02c.245.64.641,1.671,1.384,2.274.408,1.202,1.054,2.233,1.681,3.236.273.436.547.871.792,1.317l.051.086c.46.716.859,1.473,1.281,2.274.485.921.986,1.874,1.613,2.805.729,1.054,1.346,2.174,2,3.359.615,1.115,1.25,2.268,1.992,3.371l.021.031c.135.488.383.914.63,1.264l-.036.037.694,1.016c.141.207.274.445.412.69.606,1.073,1.606,2.842,3.673,2.842.079,0,.16-.003.242-.008l.368-.024.315-.191c.469-.285,1.691-1.028,1.79-2.459.201-1.341-.576-2.316-1.046-2.905Z"/>
      <path d="M25.717,28.235l-.145-.288-.25-.203c-1.918-1.554-4.878-2.108-6.686-.144-1.25.979-1.868,2.681-1.58,4.396.267,1.59,1.24,2.807,2.625,3.303.617.374,1.329.539,2.047.539,1.194,0,2.406-.456,3.224-1.167,1.504-.992,1.563-2.748,1.599-3.81.005-.144.01-.285.018-.421l.022-.381-.274-.583c-.198-.42-.391-.831-.598-1.242Z"/>
    </g>
  </g>
</svg>