<?xml version="1.0" encoding="UTF-8"?>
<svg id="b" data-name="Layer 2" xmlns="http://www.w3.org/2000/svg" width="30.826" height="62.708" viewBox="0 0 30.826 62.708">
  <g id="c" data-name="Layer 1">
    <path d="M26.461,38.4c-1.39-2.87-4.63-4.2-7.38-5.44-.23-2.5-.3-5.01-.24-7.51,2.92-.61,5.91-.24,8.86-.52,2.36-.37,1.25-3.16,1.27-4.68-2.12,2.11-5-.3-7.55.1-.38,1.07-.82,2.15-1.22,3.24-.58,0-1.74,0-2.32.01,1.08-.83,1.78-2.06,1.32-3.41,2.9-.44,6.31.84,8.71-1.34-3.02-.51-6.08-.33-9.12-.31.32-1.54.67-3.06,1.05-4.56,2.54-.11,5.12.03,7.63-.49,1.74-1.64.98-4.05.47-6.02-2.91-.08-5.81.15-8.69.49.31.32.93.95,1.25,1.27,2.06-.11,4.13-.27,6.19-.42l.09,1.02c-1.65.03-3.31.08-4.95.15-1.05.78-2.13,1.51-3.18,2.29-.04-3.5.17-7,.15-10.49-.48-.33-1.43-.98-1.91-1.3-.62.76-1.18,1.63-1.8,2.42.43-.73,1.27-2.18,1.69-2.9-1.66.12-3.17.64-4.53,1.56.21,10.37.86,20.91-.78,31.17-2.57,2.07-6.19,2.92-8.01,5.9-1.8,3.12-3.81,6.55-3.41,10.3.36,7.05,6.43,13.5,13.62,13.66,4.39.63,8.57-1.36,12.09-3.79,1.91-2.04,3.89-4.2,4.75-6.91,1.01-4.77-.43-10.16-4.05-13.49ZM3.621,51.32c-1.38.39-1.89-.12-1.52-1.51,1.38-.42,1.89.09,1.52,1.51ZM2.851,47.98c-1.63-.42-1.09-3.09.12-3.71,1.6.27,1.38,3.33-.12,3.71ZM26.791,39.68c.27.95.45,1.93.55,2.94-.97-.18-1.93-.38-2.88-.6.03-1.56.81-2.34,2.33-2.34ZM12.521,36.12c.23,1.37-.34,1.89-1.73,1.56-.24-1.39.34-1.91,1.73-1.56ZM10.161,59.17c1.17-.79,2.99-.95,4.19-.13-.21,1.46-3.88,1.47-4.19.13ZM25.811,51.74c-1.5,1.32-2.98,2.66-4.44,4.03-.19.15-.55.47-.73.63-5.85,2.67-14.7-1.57-14.27-8.51-.03-3.56,2.79-5.96,5.26-8.06,1.98-.28,3.96-.81,5.98-.7,1.9.58,3.58,1.7,5.35,2.61,3,1.24,3.66,4.26,4.18,7.14-.23.51-.69,1.55-.91,2.07.52.95,1.03,1.91,1.55,2.89-.49-.53-1.48-1.58-1.97-2.1Z"/>
  </g>
</svg>