<?xml version="1.0" encoding="UTF-8"?>
<svg id="b" data-name="Layer 2" xmlns="http://www.w3.org/2000/svg" width="71.779" height="57.442" viewBox="0 0 71.779 57.442">
  <g id="c" data-name="Layer 1">
    <path d="M58.699,39.845c-.46-8.64.28-17.29.1-25.94-.25-4.29,1.75-9.2-.89-12.98-.17,1.04-.53,3.11-.7,4.15.05-1.53.24-3.05.42-4.57-2.42-1.57-4.72.8-4.42,3.28-.37,11.66-.45,23.36.1,35.02-5.01-6.44-9.3-13.46-14.99-19.35-5.39-5.06-11.53-9.27-17.87-13.03l.04-.13c-3.37-1.7-6.83-3.24-10.44-4.34.31.6.94,1.81,1.25,2.41l.46.67c-.43-.43-1.28-1.29-1.71-1.72-.84.55-1.65,1.14-2.45,1.72.3-1,1.93-2.96.07-3.37-2.26-.44-4.76-.8-6.95.1C-.141,3.175-.171,4.925.319,6.475c2.14,1.43,4.86,1.32,7.29,1.99,11.55,2.95,22.14,9.69,29.54,19.04,2.22,2.51,4.82,4.75,6.46,7.72,3.12,6.02,5.75,12.27,8.13,18.62.86,2.98,6.06,5.54,7.35,1.54,1.65-5.04,3.97-9.82,6.37-14.54,1.9-3.5,6.07-5.67,6.32-9.99-6.22-1.57-9.6,5.12-13.08,8.99ZM27.249,15.335c-1.26.96-2.37-1.25-1.23-2.02,1.23-.96,2.39,1.26,1.23,2.02ZM43.489,31.705c-1.42.62-3.59-2.44-1.92-3.08.99.58,2.29,1.8,1.92,3.08ZM55.589,30.575c-1.3-.24-1.53-1-.68-2.27,1.29.23,1.51.99.68,2.27ZM56.589,20.405c-1.36.44-1.86-.05-1.5-1.48,1.34-.45,1.85.04,1.5,1.48Z"/>
  </g>
</svg>