<?xml version="1.0" encoding="UTF-8"?>
<svg id="b" data-name="Layer 2" xmlns="http://www.w3.org/2000/svg" width="56.822" height="57.789" viewBox="0 0 56.822 57.789">
  <g id="c" data-name="Layer 1">
    <path d="M52.518,12.77C47.288,5.75,39.348.61,30.438.11c-.132.253-.335.632-.539,1.008h-.675c-.061-.417-.123-.842-.166-1.118C18.758,1,8.418,6.5,3.578,15.94-3.512,27.79.288,44.64,11.868,52.19c3.04,2.32,6.46,4.18,10.27,4.81,7.99,2.32,16.41-.79,23.09-5.21.2-1.08.41-2.15.68-3.2l-.25,3.02c5.27-4.06,9.68-9.86,10.53-16.62,1.75-7.56-.33-15.4-3.67-22.22ZM43.928,10.14c.95,1.01,1.91,2.02,2.86,3.05,3.16,2.31,3.69,6.26,4.35,9.84-.88-2.28-1.52-4.64-2.19-6.98-.63.58-1.26,1.17-1.88,1.76,1.295,2.308,2.12,4.846,2.571,7.452-5.736-.696-11.675.102-17.461-.11-.154-.005-.308-.004-.462-.008-.084-5.398-.43-10.79-.249-16.182.017-.476.013-.952.023-1.428,2.637.44,5.196,1.433,7.698,2.335,2.63,2.07,5.11,4.33,7.25,6.91.62-2.58-1.18-4.65-2.51-6.64ZM36.829,30.092c.054-1.36,3.374-1.68,4.719-1.09.471,1.67-3.441,2.04-4.719,1.09ZM26.746,35.123c1.36.054,1.68,3.374,1.09,4.719-1.67.471-2.04-3.441-1.09-4.719ZM29.329,26.234c.361-.046.723-.091,1.083-.137.004.034.008.068.013.102-.284.208-.582.399-.89.574-.075-.176-.14-.358-.206-.539ZM25.56,28.128c-2.71.455-5.684.209-8.304-.446,2.787-.287,5.566-.627,8.342-.977-.012.474-.024.949-.038,1.423ZM28.973,25.109c-.791-3.02-.575-6.528.183-9.559.33,3.198.728,6.386,1.132,9.57-.439-.005-.877-.011-1.315-.01ZM17.028,10.22c2.729-1.19,5.609-2.123,8.56-2.603.077,3.146.092,6.296-.011,9.452.12,2.68.11,5.378.056,8.081-4.991.11-9.977.39-14.964.223-1.388-.049-2.776-.066-4.162-.058,1.211-6.196,5.008-11.943,10.521-15.094ZM18.708,48.67c-.66.55-1.3,1.11-1.93,1.67-.5-.09-1.5-.28-2-.38.64-.08,1.92-.25,2.56-.34-.17-.58-.53-1.73-.7-2.31-3.46-2.61-7.19-5.33-8.78-9.54-.952-2.05-1.484-4.224-1.68-6.425,4.191-.16,8.39-.221,12.597-.083,2.222-.099,4.456-.112,6.695-.082-.195,6.582-.315,13.156.776,19.574-.64-.083-1.28-.191-1.919-.344-1.91-.47-3.78-1.06-5.62-1.74ZM31.1,50.749c1.403-6.311.435-12.948.565-19.416,6.157.187,12.315.372,18.354-.379-.698,9.949-9.2,18.524-18.919,19.795Z"/>
  </g>
</svg>