<?xml version="1.0" encoding="UTF-8"?>
<svg id="b" data-name="Layer 2" xmlns="http://www.w3.org/2000/svg" width="39.978" height="39.554" viewBox="0 0 39.978 39.554">
  <g id="c" data-name="Layer 1">
    <g>
      <path d="M24.058,22.932v-.013h0l1.914.503-.009-.537c.402.01.806.021,1.209.035l.603.02.211-.189c.831.241,1.767.255,2.578.011,1-.301,1.754-.962,2.124-1.861l.084-.281c.185-.948-.138-1.993-.844-2.728-.597-.621-1.384-.924-2.192-.843-.768.005-1.534.03-2.299.055-.657.021-1.313.042-1.971.05-2.693-.253-5.637-.29-8.99-.115-2.05-.092-4.094-.003-6.073.083l-1.29.055-.379.295c-1.123.875-1.151,2.144-1.168,2.902l-.033,1.2.979.386c.591.233,1.179.485,1.766.744l.276.122.302.005c1.848.034,3.697.031,5.546.027,2.013-.004,4.095-.007,6.132.04l1.521.035Z"/>
      <path d="M39.822,12.525c-.003-.154-.006-.309-.008-.463l.165.091-.179-2.74c-.015-.232-.007-.469,0-.706.014-.542.031-1.198-.146-1.878l.021-.247c.249-.904.137-1.774-.015-2.471l.312-.581-.325-.685c-.049-.104-.091-.212-.134-.319-.169-.424-.401-1.005-.911-1.494l-.268-.257-.358-.103c-.748-.214-1.472-.183-2.053-.16l-.245.009-.619-.067-.161-.009c-.156,0-.47-.003-.625-.008l-.208-.005c-.322-.159-.784-.27-1.366-.12l-.276-.005c-.703-.012-1.402-.02-2.102-.027l-1.589-.018.002.034c-.882-.007-1.772.027-2.676.16l-.259-.028c-1.351-.162-2.607-.2-3.826-.115C20.847-.063,19.722-.014,18.719.029c-.474.021-.922.041-1.331.014l-.124-.008-.124.013c-1.914.194-3.824.134-5.847.071-1.745-.054-3.548-.112-5.36.01-.716-.073-1.357.069-1.879.186-.416.093-.775.173-.999.108l-.714-.207-.704.521C1.177,1.072.227,1.763.203,3.021-.01,6.179.005,9.367.02,12.451c.008,1.731.017,3.462-.015,5.242.002.136,0,.273-.002.412-.009.598-.02,1.319.243,2.067-.12,2.44-.197,5.042-.013,7.65-.129,1.661-.102,3.316-.074,4.917.021,1.251.042,2.545-.015,3.794l-.027.604.398.454c.597.681,3.625,1.942,5.555,1.564l.228.306,3.948.038c2.71.027,5.419.055,8.168.055.289,0,.579,0,.869,0,2.28-.083,4.618-.059,6.879-.036,2.787.03,5.667.061,8.52-.108.519.008,1.041.019,1.567.038l.88.031.253-.418c.78-.39,2.399-1.249,2.349-2.859.062-2.719.037-5.47.013-8.131-.021-2.313-.043-4.706-.011-6.955.11-1.405.079-2.795.049-4.139-.021-.929-.041-1.807-.017-2.691.016-.562.035-1.121.055-1.757ZM6.392,33.523c.019-.452.005-.921-.071-1.396l.02-.011-.035-2.042c-.019-1.401-.039-2.848-.171-4.295.283-1.716.266-3.416.25-5.062-.009-.842-.018-1.684.017-2.544l.035-1.267c.063-2.27.129-4.617.071-6.945l-.012-.497-.142-.182c.026-.354.062-.809.083-1.061.062-.737.048-1.467,0-2.149.313-.02.627-.037.943-.051l.495-.021.047-.038c.518.036,1.011.076,1.485.154.874.148,1.658.214,2.397.202l.903-.083c.355-.036.702-.071,1.042-.098l-.037.313,2.331-.193c.662-.061,1.288-.118,1.956-.058l1.02.036c1.365.042,3.787.074,6.849.091h.077c.12,0,.242.002.364.002l.181-.002c1.711-.001,3.422-.013,5.134-.024.708-.004,1.416-.009,2.124-.013.007,2.28-.021,4.579-.048,6.815-.042,3.488-.087,7.092,0,10.655l-.161-.026.14,1.895c.053.711.049,1.436.045,2.203-.007,1.233-.013,2.507.221,3.807-.095.698-.12,1.395-.114,2.051-2.142.035-4.307-.009-6.414-.049-1.596-.031-3.223-.062-4.844-.062-1.185,0-2.367.017-3.531.063-1.469-.012-2.938-.037-4.406-.061-2.7-.044-5.475-.091-8.242-.057Z"/>
    </g>
  </g>
</svg>