<?xml version="1.0" encoding="UTF-8"?>
<svg id="b" data-name="Layer 2" xmlns="http://www.w3.org/2000/svg" width="51.419" height="39.916" viewBox="0 0 51.419 39.916">
  <g id="c" data-name="Layer 1">
    <g>
      <path d="M13.333,4.743c.605-.013,1.21-.038,1.814-.101,1.21.206,2.437.06,3.654.177,1.286.004,2.553.444,3.837.366.546-.05.979-.813,1.076-1.633.206-1.773-.019-2.526-1.123-2.747-1.275-.256-2.579-.322-3.861-.44-1.15-.105-2.3-.188-3.451-.248C13.85.044,12.421.005,10.993,0c-2.028-.006-4.055.058-6.081.193C3.598.281,1.35.017.27,1.409c-.586,1.583-.152,3.755.653,4.951.217-.082.429-.174.64-.284,1.639-.124,3.291-.369,4.901-.841.707-.07,1.416-.102,2.12-.202-.223,2.994-.367,5.994-.427,8.995-.08,3.97-.018,7.943.187,11.908.162,3.138.679,6.017,1.219,9.006-.242-.029-.485-.063-.727-.107-.787-.137-1.581-.155-2.372-.234-1.61-.479-3.262-.728-4.901-.854-.21-.112-.423-.205-.639-.288-.805,1.215-1.239,3.42-.653,5.028,1.079,1.413,3.328,1.145,4.642,1.234,2.026.137,4.053.202,6.081.196.49-.001.979-.031,1.469-.041.404.063.832.05,1.241-.035.525-.018,1.05-.016,1.574-.044,1.151-.061,2.302-.145,3.451-.252,1.282-.119,2.587-.187,3.861-.446,1.103-.225,1.328-.989,1.123-2.789-.096-.833-.53-1.607-1.076-1.658-1.284-.079-2.551.368-3.837.371-1.216.119-2.444-.029-3.654.18-.051-.005-.102-.008-.154-.013-.219-1.334-.377-2.68-.734-3.987-.169-2.184-.645-4.329-.854-6.509-.597-6.224-.694-12.487-.199-18.721.032-.407.083-.818.126-1.229Z"/>
      <path d="M51.257,7.164c-.41-.718-1.501-.76-2.19-.302s-1.07,1.245-1.42,1.994c-.577,1.234-1.153,2.467-1.729,3.701-.705-.44-.504-.463-.343-1.71-.115-.16.424-.854.309-1.014.068.095.643-1.385.663-1.529.002-.014.005-.025.007-.039.266-.499.229-1.017.064-1.534-.005-.018-.005-.032-.01-.05-.001-.003-.005-.005-.006-.008-.21-.623-.578-1.24-.775-1.812-.728-1.427-1.377-3.125-2.923-3.846-2.321-1.2-5.096-1.006-7.522-.234-1.651.458-2.696,1.907-4.008,2.901-.851,1.503-1.611,3.071-2.465,4.581-.068.097-.213.296-.285.393-1.618,4.325-2.357,8.931-2.728,13.52-.007,2.909.606,5.788,1.499,8.549,1.056,2.253,2,4.7,3.896,6.401,1.773,1.247,3.813,2.195,5.983,2.469,1.589.144,3.114-.436,4.585-.966,1.398-.508,2.328-1.748,3.294-2.811.995-1.481,1.986-3.233,1.561-5.082-1.373-.872-2.385-1.422-4.014-1.055.537.66.669,1.192.82,2.093-.177-.242-.353-.479-.53-.717-.411-.029-.757-.205-1.074-.451-.454,1.261-.854,2.674-1.907,3.583-1.424.595-3.28.411-4.404-.717-1.276-1.301-1.863-3.103-2.8-4.603-1.334-5.003-1.092-10.305-.029-15.332.162-.328.342-.638.548-.933.263-1.69,1.132-3.172,1.932-4.649.609-1.269,1.658-2.245,2.743-3.103.919-.735,2.116.061,2.801.757.458.371.501,1.193,1.088,1.38.216-.231.429-.461.634-.696-.025.418-.054.84-.094,1.265l-.191.151c-.17.278-.232.592-.21.935-.004.003-.009.006-.013.009.004.039.015.085.021.127.004.032.01.065.016.098.157.841.739,2.121.729,2.923-.442-.873-1.24-2.15-2.075-2.661-.527-.322-1.148-.556-1.755-.445-.607.11-1.162.661-1.102,1.275.04.413.328.753.603,1.064,1.239,1.401,2.478,2.802,3.717,4.203,1.011,1.143,2.021,2.286,3.032,3.428.198.224.406.455.683.568.53.215,1.155-.086,1.499-.543.344-.457.476-1.034.613-1.589.66-2.679,1.638-5.28,2.908-7.73.358-.692.742-1.53.356-2.207ZM40.178,11.306c-.039-.119-.116-.354-.155-.473.074-.099.221-.29.297-.386.115.128.347.386.463.517-.153.085-.454.255-.605.342ZM43.138,13.364c-.232-.342-.463-.689-.7-1.034.11-.088.329-.266.439-.354.169.262.337.525.505.78l-.329.178c.362.409.639.873,1.002,1.273.019.074.051.224.067.3-.447-.284-1.175-.448-.985-1.143ZM45.732,16.968c-.207-.276-.415-.558-.62-.846.214.139.426.28.633.42.123-.002.37-.01.493-.011-.125.109-.379.326-.506.437ZM46.896,18.07c-.349.233-.787-.364-.419-.606.356-.223.783.363.419.606ZM47.428,15.835c-.706-1.027.305-2.42,1.03-3.193-.02,1.154-.91,2.046-1.03,3.193ZM48.584,11.801c-.067-.122-.198-.362-.263-.481.161-.518.152-1.133.632-1.486-.102.66-.258,1.31-.369,1.968Z"/>
    </g>
  </g>
</svg>