<?xml version="1.0" encoding="UTF-8"?>
<svg id="b" data-name="Layer 2" xmlns="http://www.w3.org/2000/svg" width="51.186" height="62.574" viewBox="0 0 51.186 62.574">
  <g id="c" data-name="Layer 1">
    <path d="M40.896,39.764c-.75-13.07,1.18-26.17.2-39.23-2.09.12-4.17.21-6.25.4-.06,4.57.28,9.15-.27,13.7,1.39.52,2.84.84,4.28,1.26-1.48.03-2.95.01-4.42-.07.14,7.67-.65,15.33-.35,23.01-5.23.73-10.47,1.01-15.74,1.04,4.95-6.35,11.57-12.87,11.15-21.57.4-4.75-.04-9.76-3.23-13.55C21.746.474,15.166-1.036,9.186.714c1.98.78,4.13.87,6.21,1.24-2.05-.03-4.55.61-6.17-1.04-.91.35-2.73,1.04-3.64,1.39.7.69,1.39,1.38,2.09,2.08-.98.54-1.96,1.08-2.94,1.61.01-.7.04-2.08.06-2.78C-.464,7.234-2.194,17.064,3.706,21.134c1.32-1.17,2.63-2.33,3.95-3.49-.85-1.66-2.5-3.35-1.43-5.32,1.3-5.6,9.88-8.02,13.44-3.28,3.3,3.89,2.57,9.39,2.07,14.08.34.01,1.02.04,1.36.05-.35.14-1.06.41-1.42.55-2.52,6.43-7.16,12.38-13.61,15.19-2.69,1.56-6.49,1.77-7.91,4.94.83-.16,2.48-.48,3.3-.64-1.08.72-2.14,1.49-3.14,2.33,1.62.75,3.31,1.06,5.06.91,9.45-.88,18.93-.17,28.38.05-.08,4.64.4,9.35-.65,13.93.98.72,1.98,1.44,2.99,2.14,1.27-.53,2.56-1.03,3.86-1.5,1.87-4.52.02-9.57.53-14.33,3.49-.04,7.02.2,10.48-.44.06-2.05.14-4.09.22-6.13-3.34-.99-6.97-1.94-10.29-.41ZM24.496,19.974c-.86-1.58-.46-3.71.31-5.25,1.07.85,1.26,4.7-.31,5.25ZM23.676,5.394c1.4-.3,1.93.25,1.59,1.63-1.4.28-1.93-.27-1.59-1.63ZM6.426,42.314c-1.59-.54.37-2.08,1.25-2.04,2.91-.42.48,2.94-1.25,2.04ZM38.056,12.824c-.02-1.81-.01-3.61.07-5.4-.6.9-1.22,1.81-1.85,2.7.26-2.3.06-5.86,3.12-6.31.02,2.96-.02,5.92-.03,8.89l-1.31.12ZM38.046,23.304c.56-1.43-.65-2.6-1.03-3.88.54,1.18,2.05,2.3,1.3,3.72-1.22,2.96.39,6.29-1.09,9.15-.1-3.02.03-6.06.82-8.99ZM39.256,57.134c-1.55,1.21-2.69-1.68-1.53-2.65,1.54-1.28,2.71,1.67,1.53,2.65Z"/>
  </g>
</svg>