<?xml version="1.0" encoding="UTF-8"?>
<svg id="b" data-name="Layer 2" xmlns="http://www.w3.org/2000/svg" width="50.164" height="61.407" viewBox="0 0 50.164 61.407">
  <g id="c" data-name="Layer 1">
    <path d="M45.164,49.97c-2.29.33-2.13,3.62-4.15,4.42-1.9.77-3.97.28-5.95.15-1.63-4.44-.84-9.38,1.23-13.53,2.1-3.15,3.6-6.65,5.51-9.91l-.14-.28c3.78-7.83,6.74-18.34.65-25.81-.47.49-1.41,1.47-1.88,1.96.36-.55,1.07-1.63,1.43-2.18-2.08-1.7-4.37-3.32-7.1-3.75-.33-.19-1.01-.58-1.34-.78l-.38,2.05c-.01-.58-.03-1.73-.04-2.31-3.73.13-7.57.21-11.1,1.54-3.19,1.24-5.59,3.84-7.46,6.62-3.31,5.33-1.37,11.73,1.35,16.85C7.824,22.15-1.646,29.47.244,37.99c.42,7.37,8.18,12.99,15.29,11.17,4.35-1.09,7.82-4.81,8.57-9.24,1.53-9.54-5.73-18.38-3.5-27.89,1.57-5.43,8.31-6.38,12.99-4.91,3.7,1.6,5.16,6.17,4.95,9.94-1.12,6.88-4.26,13.18-7.18,19.45.52.88.71,1.86.59,2.93-.46-.72-.92-1.42-1.37-2.12-.34,1.09-1.02,3.29-1.36,4.39.81.67,1.02,1.59.64,2.76-.44-.81-.88-1.6-1.32-2.39-1.37,5.42-2.56,12.62,2.5,16.54,6.05,5.77,16.65,1.92,19.12-5.51-.63-1.75-3.5-2.02-5-3.14ZM15.304,14.75c-1.34-.24-1.56-.96-.67-2.17,1.33.23,1.55.95.67,2.17ZM12.014,26.73c-.72.8-3.23.91-3.14-.5.72-.83,3.23-.94,3.14.5ZM4.174,42.14c-1.6.46-2.14-.14-1.63-1.79,1.6-.46,2.14.14,1.63,1.79ZM4.244,37.74c-1.33-.3-1.54-1.04-.64-2.22,1.32.29,1.53,1.03.64,2.22ZM4.974,33.7c-1.49.43-1.93-.01-1.31-1.33,1.41-.46,1.85-.02,1.31,1.33ZM7.574,41.07c-2.99-3.24-.84-9.4,3.32-10.41,4.91-2.03,9.82,4.81,6.9,8.93-1.64,3.78-7.6,4.76-10.22,1.48ZM21.744,42.57c-2.3,2.68-6.04,3.02-9.34,3.18,3.1-1.1,6.41-1.62,9.34-3.18Z"/>
  </g>
</svg>