<?xml version="1.0" encoding="UTF-8"?>
<svg id="b" data-name="Layer 2" xmlns="http://www.w3.org/2000/svg" width="62.614" height="45.412" viewBox="0 0 62.614 45.412">
  <g id="c" data-name="Layer 1">
    <g>
      <path d="M36.824,2.922c1.28.41,2.55.89,3.82,1.38l.2,1.24c.43-.11,1.3-.33,1.73-.44l-.42,1.17c1,.3,1.99.62,2.97.97-.63,0-1.9-.01-2.54-.01-1.84-1.55-3.83-2.9-5.76-4.31Z"/>
      <path d="M58.884,24.232c-4.04-.15-8.07-.3-12.11-.57,1.97-4.06,2.26-8.8,1.07-13.13-1,1.48-1.51,3.2-2.01,4.91-.58-1.16-1.12-2.43-2.35-3.01.69-.61,1.26-1.32,1.03-2.32,1.09.3,2.21.49,3.33.25-1.8-5.42-7.27-8.53-12.47-9.94-6.81-1.52-13.96,1.21-18.9,5.94-1.37,2.35-2.53,4.85-3.2,7.5-.68,3.35.75,6.58,1.7,9.73l.36.01c.09.76.27,2.28.36,3.04l-.48-.03c.02-.61.07-1.84.1-2.45-2.06-.03-4.11-.01-6.17.02-.13.97-.29,1.94-.46,2.92.03-.74.08-2.2.11-2.94-2.62.23-5.47-.54-7.94.58-.48,1.7-.88,3.61-.3,5.35,1.23.97,2.91.72,4.37.85,6.51.06,13.08.46,19.55-.49,3.52-5.32-4.58-8.24-3.56-13.58-.78-4.25,2.8-7.02,5.41-9.69,3-.47,6.14-.91,9.11-.02,5.12,1.92,8.02,8.64,5.29,13.54-.85,2.28-2.92,3.62-4.67,5.15.02,1.45.25,2.91.63,4.33,7.4.65,14.85.43,22.27.48,4.2.8,3.6-6.68-.07-6.43ZM34.284,5.082c1.22-.9,1.95-.68,2.2.65-1.22.88-1.95.66-2.2-.65ZM36.824,2.922c1.28.41,2.55.89,3.82,1.38l.2,1.24c.43-.11,1.3-.33,1.73-.44l-.42,1.17c1,.3,1.99.62,2.97.97-.63,0-1.9-.01-2.54-.01-1.84-1.55-3.83-2.9-5.76-4.31ZM45.754,28.312c-.82.91-3.01-.02-2.41-1.29.82-.99,3.06-.01,2.41,1.29ZM54.334,26.002c1.18-.98,1.87-.79,2.08.58-1.18.96-1.87.77-2.08-.58Z"/>
      <path d="M59.504,38.432c-3.8-.45-7.63-.32-11.44-.42-9.94-.49-19.97-.89-29.88.2-5.44.02-10.87-.01-16.3.06-2.85,1.08-1.77,4.51-1.21,6.73,6.43.84,12.88-.34,19.32.16,11.1-.14,22.2-.2,33.3.25.09-.37.26-1.13.35-1.51-1.15-.52-2.35-.71-3.6-.59.66-.33,1.31-.66,1.96-.99,2.39,1.3,5.18,1.09,7.81,1.03-2.17.19-4.52.16-6.32,1.59,2.18.33,4.38.41,6.58.25.84-.82,1.69-1.62,2.54-2.4-.86-1.5-.92-4.2-3.11-4.36Z"/>
    </g>
  </g>
</svg>