<?xml version="1.0" encoding="UTF-8"?>
<svg id="b" data-name="Layer 2" xmlns="http://www.w3.org/2000/svg" width="61.67" height="61.224" viewBox="0 0 61.67 61.224">
  <g id="c" data-name="Layer 1">
    <path d="M49.061,1.683c-1.89.35-3.95.42-5.51,1.69-.88.78-1.7,1.64-2.65,2.33-.08-.16-.25-.49-.34-.65.59-1.69-1.75-1.43-2.69-1.77-.77,2.03-.64,4.11.68,5.87,2.13-.22,4.26-.42,6.39-.58l-.26-1.29c.14.01.42.03.56.04l-.21,1.31c.94-.14,2.82-.42,3.76-.57-5.15,4.11-8.69,9.89-14.11,13.67-1.11-.94-2.24-1.85-3.39-2.73-.22.94-.43,1.88-.65,2.83l.23-2.77c-.73.43-2.21,1.28-2.95,1.71.92-.71,1.87-1.37,2.81-2.04-4.79-1.24-9.87-1.81-14.71-.47-6.46,1.19-11.54,6.2-14.08,12.1.47.12,1.4.37,1.87.49-.49.07-1.48.19-1.98.25C.031,34.983-.39,39.383.341,43.583c.46,6.33,5.56,11.05,10.51,14.41,5.78,4.13,13.65,4.08,19.93,1.1,4.95-1.26,7.85-5.68,11.25-9.09-.05-1.14-.5-2.17-1.46-2.81-.8-1.14.52-2.4.7-3.51.03.59.1,1.78.13,2.38,2.86,1.85,1.9-3.91,2.42-5.35-.6.15-1.79.46-2.39.62.61-3.18.44-6.38-.19-9.53,1.15,2.8,1.03,5.84.94,8.8l1.73.06c.59-5.08-1.39-9.84-3.54-14.3,4.12-4.81,8.73-9.17,13.2-13.63-.08,3.04-.73,6.06-.72,9.11.96,1.89,3.27,1.2,4.99,1.48,1-7.75,2.97-15.35,3.83-23.11-4.29-.79-8.43.82-12.61,1.47ZM2.651,42.273c-1.44.23-1.49-2.28-.59-2.94,1.42-.22,1.47,2.26.59,2.94ZM32.211,24.943c1.37-.42,1.89.07,1.55,1.49-1.38.41-1.89-.08-1.55-1.49ZM8.081,23.743c1.22.68,1.14,1.36-.24,2.04-1.23-.68-1.15-1.36.24-2.04ZM19.631,59.663c-.91,1.17-3.39-.05-2.43-1.46.89-1.15,3.34.06,2.43,1.46ZM22.341,58.953c1.25-.85,1.98-.62,2.19.7-1.26.85-1.99.61-2.19-.7ZM34.241,49.043c-4,4.48-10.2,6.57-16.11,5.25-.02.31-.06.92-.07,1.23-.29-1.63-1.89-1.95-3.13-2.59-6.42-2.67-9.75-10.56-8.09-17.13,1.31-3.39,2.8-7.15,6.13-9.04,3.01-1.74,6.36-3.7,9.99-2.89,5.43.95,11.61,3.65,13.37,9.37,2.32,5.14,1.11,11.31-2.09,15.8ZM37.841,30.533c-1.39.38-1.87-.13-1.45-1.54,1.38-.39,1.87.13,1.45,1.54ZM55.511,21.643c-1.4.42-1.88-.07-1.45-1.48,1.38-.42,1.86.07,1.45,1.48ZM57.081,9.043c1.37-.61,1.82-.18,1.36,1.29-1.37.61-1.83.18-1.36-1.29Z"/>
  </g>
</svg>