<?xml version="1.0" encoding="UTF-8"?>
<svg id="b" data-name="Layer 2" xmlns="http://www.w3.org/2000/svg" width="36.512" height="68.051" viewBox="0 0 36.512 68.051">
  <g id="c" data-name="Layer 1">
    <path d="M22.112,52.58c.03-1.97.03-3.94.05-5.9,8.68-1.46,15.15-10.14,14.27-18.83-.45-1.82.44-4.91-2.25-5.28-.01.74-.02,2.23-.03,2.97-1.34-1.45-1.44-3.22.67-3.98-1.34-3.23-4.38-5.11-7.11-7.03,4.83-2.81,9.33-8.71,7.19-14.53-.69.33-2.06.98-2.74,1.31-1.1,3.22-3.74,5.59-6.32,7.65.82.51,1.42,1.7,2.5,1.62,1.65-1.02,2.88-2.57,4.37-3.79-.99,1.57-2.69,2.78-3.04,4.69-1.21-.07-2.42-.17-3.62-.23-.06-.56-.17-1.67-.23-2.23-2.62.94-5.16,3.26-8.12,2.26-4.03-.32-7.75-2.23-10.36-5.29C5.302,4.37,5.152,1.12,2.462.24.062,1.78,1.402,4.67,1.952,6.84c1.04,3.27,3.68,5.63,6.32,7.65C4.132,17.32.822,21.63.312,26.76c-1.2,5.31,1.22,10.68,4.57,14.7,2.62,3.12,6.58,4.48,10.23,5.99.03,1.74.06,3.47.13,5.21-3.14-.22-6.29-.25-9.42.01-.03,2.24.04,4.48.46,6.69,2.9-.19,5.8-.35,8.7-.49.44,2.83-1.28,6.9,1.55,8.85,1.56.61,3.98.43,5.06-.98.48-2.65.22-5.37.36-8.05,3.14.33,6.55,1,9.32-.98-.36-1.55-.76-3.09-1.18-4.63-2.59-.82-5.32-.65-7.98-.5ZM4.602,35.44c-1.02-.9-1.2-2.01-.53-3.31,1.61-.81,2.21,3.16.53,3.31ZM3.772,26.2c.59,1.72.98,3.5,1.18,5.32-1.67-.25-2.52-1.16-2.55-2.7-.28-2.99,1.02-5.8,2.77-8.13.03,2.03,2.12,5.77-1.4,5.51ZM28.212,43.44c-1.44.56-1.87.13-1.3-1.3,1.43-.56,1.86-.13,1.3,1.3ZM2.622,2.6c1.7,2.39,2.35,5.71,5.11,7.2,1.72,1.06,3.66,1.76,5.23,3.07C7.612,12.24,4.072,7.42,2.622,2.6ZM14.722,44.95c-1.29-.63-1.26-1.3.1-2.01,1.29.63,1.25,1.3-.1,2.01ZM12.062,39.39c-4.68-2.59-7.28-8.65-5.35-13.73,1.29-3.61,4.4-6.33,7.99-7.53,6.29-2.49,14.27,1.98,15.62,8.57.46,3.75-.28,7.81-2.69,10.8-4.21,3.54-10.73,5.01-15.57,1.89ZM18.872,43.06c.77-.77,3.24-.94,3.29.47-.78.77-3.27.95-3.29-.47Z"/>
  </g>
</svg>