<?xml version="1.0" encoding="UTF-8"?>
<svg id="b" data-name="Layer 2" xmlns="http://www.w3.org/2000/svg" width="51.39" height="52.7" viewBox="0 0 51.39 52.7">
  <g id="c" data-name="Layer 1">
    <g>
      <path d="M51.288,43.521c-1.373-.872-3.064-1.417-4.693-1.049.537.66,1.348,1.186,1.499,2.087-.177-.242-.353-.479-.53-.717-.411-.029-.757-.205-1.074-.451-.454,1.261-.854,2.674-1.907,3.583-1.424.595-3.28.411-4.404-.717-1.276-1.301-1.863-3.103-2.8-4.603-1.334-5.003-1.092-10.305-.029-15.332.162-.328.342-.638.548-.933.263-1.69,1.132-3.172,1.932-4.649.609-1.269,1.658-2.245,2.743-3.103.919-.735,2.116.061,2.801.757.458.371.501,1.193,1.088,1.38.216-.231.429-.461.634-.696-.025.418-.054.84-.094,1.265l-.191.151c-.267.436-.296.952-.09,1.546,1.485.101,3.06-.09,4.35-.865.742-1.153-.292-2.426-.67-3.529-.728-1.427-1.377-3.125-2.923-3.846-2.321-1.2-5.096-1.006-7.522-.234-1.651.458-2.696,1.907-4.008,2.901-.851,1.503-1.611,3.071-2.465,4.581-.068.097-.213.296-.285.393-1.618,4.325-2.357,8.931-2.728,13.52-.007,2.909.606,5.788,1.499,8.549,1.056,2.253,2,4.7,3.896,6.401,1.773,1.247,3.813,2.195,5.983,2.469,1.589.144,3.114-.436,4.585-.966,1.398-.508,2.328-1.748,3.294-2.811.995-1.481,1.986-3.233,1.561-5.082Z"/>
      <path d="M30.016,14.417c.393.53.714,1.15,1.283,1.521.789.086,1.917.043,2.31-.782.231-2.707-1.027-5.244-1.027-7.94-.364-2.231.032-4.541-.605-6.729-.541.036-1.009-.173-1.431-.487-.602.115-1.175.357-1.615.797-1.507,1.42-3.24,2.559-4.873,3.82-1.946,1.146-3.911,2.281-5.745,3.601-.083.584-.414,1.391.083,1.86.901.368,1.885.559,2.862.555,1.081-.306,1.903-1.157,2.909-1.636.887-.436,1.748-.926,2.48-1.597.148-.029.436-.087.584-.115-.007.479-.011.966-.014,1.456-.519.198-1.034.404-1.55.609.029.191.086.569.115.757-.443.068-.887.13-1.326.205-1.604,3.666-4.138,6.83-5.749,10.492-1.337,2.213-2.584,4.476-3.716,6.801-.108.022-.324.065-.432.09-1.207-1.748-2.267-3.593-3.417-5.378-1.622-2.721-3.489-5.284-4.92-8.117-1.103-.213-2.253-.378-3.37-.151-.833.155-1.607.854-1.658,1.734-.079,2.069.368,4.112.371,6.185.119,1.961-.029,3.939.18,5.889-.223,3.384.014,6.794-.368,10.171-.137,1.269-.155,2.548-.234,3.824-.479,2.595-.728,5.259-.854,7.901-.112.339-.205.681-.288,1.031,1.215,1.297,3.42,1.997,5.028,1.052,1.031-1.269.825-3.071.991-4.606.811-7.313.624-14.687.555-22.029,1.51,3.247,3.633,6.16,5.536,9.194.937,1.809,4.008,1.745,4.956-.032,1.521-3.341,3.456-6.47,5.403-9.573-.84,5.511-.346,11.112.018,16.644.166,2.927,1.034,5.749,1.532,8.629.166,1.078.746,2.253,1.932,2.458,1.409.505,3.507-.054,3.745-1.716-.764-2.209-.786-4.574-1.398-6.819-.169-2.184-.645-4.329-.854-6.509-.688-7.425-.771-14.922.202-22.328.447-1.532.995-3.053,1.734-4.473.519,1.218-.324,2.707.638,3.741ZM31.966,12.449c-.043.144-.13.429-.173.573-.141.047-.418.133-.559.177-.025-.205-.076-.62-.101-.829.209.022.624.061.833.079ZM23.943,6.826c-.515.4-.93,1.013-1.647,1.031.555-.58,1.157-1.114,1.719-1.687-.018.166-.054.494-.072.656ZM24.718,5.428c.815-1.125,2.307-1.391,3.215-2.44-.011,1.499-1.968,2.177-3.215,2.44ZM30.463,8.38c-.007.497-.018.998-.022,1.503-.169.011-.508.036-.678.047.014-.375.029-.75.04-1.117l.447.05c-.076-.652-.029-1.301-.112-1.946.032-.087.105-.256.141-.342.245.587.851,1.251.184,1.806ZM29.998,1.15c.505.011.526.901-.004.887-.505-.025-.523-.897.004-.887ZM30.387,3.038c.014.414.025.836.029,1.261-.115-.285-.227-.569-.335-.851-.122-.083-.371-.245-.494-.328.198-.022.598-.061.8-.083Z"/>
    </g>
  </g>
</svg>