<?xml version="1.0" encoding="UTF-8"?>
<svg id="b" data-name="Layer 2" xmlns="http://www.w3.org/2000/svg" width="45.088" height="57.634" viewBox="0 0 45.088 57.634">
  <g id="c" data-name="Layer 1">
    <path d="M29.808,45.34c-6.42-5.98-9.17-15.57-6.55-23.98,1.77-5.28,6.67-8.48,11.09-11.4,3.2-2.16,7.95-.7,10.57-3.89-2.07-1.46-4.12-3-6.43-4.06-3.76-1.49-7.88-1.47-11.83-2.01-.09.59-.28,1.76-.38,2.35-.46-.59-.91-1.18-1.35-1.77-2.23.55-4.43,1.15-6.63,1.74.45.54.84,1.13,1.19,1.75l-.48.38-.68.47c-.14-.79-.28-1.57-.41-2.35-3.31,1.4-6.13,3.65-8.82,5.99.62.35,1.24.69,1.87,1.03l-1.83.04-.15,1.73c-.33-.57-.65-1.13-.98-1.69-.42.56-1.26,1.68-1.68,2.24C3.498,15.56.758,19.68.638,24.48c-.92,3.79-.94,7.78.57,11.43,2.29,7.75,7.4,14.58,14.4,18.67,8.37,4.1,18.73,4.22,26.86-.54,1.37-.74,1.85-2.33,2.62-3.57-5.22-1.17-11.43-.74-15.28-5.13ZM19.088,49.11C7.478,42.59,3.318,25.05,12.088,14.64c4.44-6.19,12.31-9.33,19.79-9.02-7.4,3.25-13.05,10.11-14.89,17.96.45.08,1.35.23,1.81.31-.48-.03-1.43-.08-1.9-.11-.27,6.74.26,14.06,4.45,19.66,2.6,3.85,6.24,6.97,10.57,8.7-4.41-.11-8.99-.69-12.83-3.03Z"/>
  </g>
</svg>