<?xml version="1.0" encoding="UTF-8"?>
<svg id="b" data-name="Layer 2" xmlns="http://www.w3.org/2000/svg" width="45.453" height="25.447" viewBox="0 0 45.453 25.447">
  <g id="c" data-name="Layer 1">
    <g>
      <path d="M45.442,18.552l-.052-.283c-.617-2.166-1.552-4.18-2.457-6.129-.224-.481-.447-.962-.666-1.446l-.129-.229c-.896-1.308-1.965-2.8-3.374-4.035-.356-.472-.926-1.182-1.804-1.451-1.389-1.549-3.294-2.375-5.039-3.132-5.814-2.606-12.989-2.449-19.207.434-1.766.847-3.428,1.935-4.928,3.217l.035-.456-2.948,3.299c-1.157,1.295-2.072,2.738-2.683,4.205-.626,1.27-1.017,2.61-1.328,3.746-.603,2.085-1.2,4.513-.643,6.939l.173.757.719.295c.374.154.766.174,1.14.186l.191.977,1.829-1.083c1.479-.876,1.426-2.438,1.395-3.372-.009-.271-.022-.642.02-.783l.304-1.029c1.198-2.845,2.452-5.767,4.587-7.868l.086-.092c1.663-1.938,4.028-3.193,6.519-4.4l.143-.037c.732-.19,1.551-.404,2.341-.795,2.92-.223,5.311-.111,7.485.351,2.589,1.041,4.541,2.086,6.066,3.231.792.677,1.526,1.377,2.184,2.083.327.59.785,1.022,1.163,1.377.104.098.208.195.307.295l.118.217c1.153,2.117,2.243,4.117,2.638,6.329l.06.336c.016.353.083.68.14.95l.004.021c-.055.504.044.989.282,1.41l.069.39.106-.124c.137.18.302.344.495.489.562.423,1.364.661,2.091.676l.203.2.687-.315c.128-.041.247-.092.352-.156l.902-.573-.081-.513c.627-1.563.506-4.076.503-4.109Z"/>
      <path d="M26.334,17.847c-1.604-2.332-4.641-1.629-6.066.304-1.052,1.428-2.766,3.093-1.757,4.929.745,1.356,2.625,2.253,4.127,2.298.054.001.107.002.161.002,2.267,0,4.609-1.532,4.659-3.963.023-1.122-.38-2.213-.907-3.203-.066-.124-.136-.25-.217-.367Z"/>
    </g>
  </g>
</svg>