<?xml version="1.0" encoding="UTF-8"?>
<svg id="b" data-name="Layer 2" xmlns="http://www.w3.org/2000/svg" width="59.81" height="62.919" viewBox="0 0 59.81 62.919">
  <g id="c" data-name="Layer 1">
    <path d="M53.14,3.17c-.82.76-1.64,1.51-2.43,2.3.02-.57.06-1.71.09-2.28.59-.03,1.79-.08,2.39-.1l-2.02-1.93-1.2-.03c-3.58,3.85-5.88,8.73-8.54,13.24.85.46,1.73.89,2.63,1.28,1.66-.81,2.46-2.72,3.71-4.03-.31,5.78-.61,11.69-3.08,17.04-1.9,1.92-4.11,3.48-6.54,4.67-1.55.33-3.1.64-4.63.99-.06-6.22.05-12.45-.26-18.66.02-.75.06-2.26.08-3.01.97,1.31,1.78,3.22,3.81,2.7,2.78-1.6.32-4.8-.98-6.5-1.98-2.96-3.56-6.23-5.99-8.85-4.25,3.54-5.84,9.37-8.59,14.06.46.4,1.37,1.21,1.83,1.61,2.07-.09,2.41-2.69,3.56-4.01-.06,7.65.13,15.3-.05,22.95l-2.32-.43c.55.57,1.66,1.71,2.21,2.28-2.23-.43-4.52-.51-6.71-1.15,1.85.1,3.7.25,5.56.44-.65-2.02-2.88-1.95-4.42-2.75-2.73-.83-5.32-2.79-5.91-5.72-1.15-.58-2.33-1.1-3.47-1.66.47-.24,1.39-.72,1.86-.96-.37-1.7-.67-3.4-.88-5.11l-.09-.02c-.13-1.88-.1-3.81-.65-5.61l.31-1.32c.7.94,1.37,1.92,2.16,2.81,1.85,1.12,3.51-2.07,2.21-3.48-2.36-3.83-4.62-7.82-7.65-11.17C5.7,5.16,2.64,9.88,0,14.8c2.43,1.66,4.47-.11,5.94-2.07.32,2.74-.26,5.74.84,8.34l.92-.32c-.33.18-.99.53-1.32.71.69,3.77,2.11,7.32,3.64,10.82,1.15,1.82,2.6,3.43,4.4,4.63,3.6,2.66,8.09,3.71,12.5,3.92-.03,1.03-.09,3.1-.11,4.14-2.01-.14-.92,1.19-.02,1.9-3.04.02-6.26-.57-9.2.43-1.65,1.39-.15,3.5.12,5.18,3.09.07,6.17.28,9.26.35-.07,3.15-.04,6.35.62,9.46,1.45,1.16,3.55.41,5.21.15,1.27-3.13.56-6.6.65-9.87,3.12.04,6.31.31,9.35-.57l.3.25c.36-1.83.74-3.73-.19-5.45-3.1-.08-6.2-.17-9.29-.05.02-1.97.01-3.93-.02-5.89,3.43-.17,6.69-1.29,9.74-2.78,2.83-1.89,6.05-4.02,7.04-7.47-.79-2.2-3.48-.75-5.01-.25l-.15-.37c1.42-.71,3.08-1.25,3.7-2.88.05,1.27,1.35,2.62,2.5,1.39,2.46-5.18,2-11.12,2.38-16.69,1.11,1.32,2.14,2.72,3.45,3.87.98-.28,1.83-.8,2.56-1.57-2.37-3.55-4.77-7.1-6.67-10.94Z"/>
  </g>
</svg>