<?xml version="1.0" encoding="UTF-8"?>
<svg id="b" data-name="Layer 2" xmlns="http://www.w3.org/2000/svg" width="45.913" height="53.451" viewBox="0 0 45.913 53.451">
  <g id="c" data-name="Layer 1">
    <path d="M45.504,45.433c.067-1.023.083-2.142-.355-3.262-.166-1.018-.657-1.823-1.095-2.539-.122-.199-.243-.396-.353-.597l-.144-.253-.213-.18c-.236-.2-.469-.396-.697-.596-.713-.846-1.651-1.296-2.5-1.651-.233-.234-.489-.403-.751-.524l.357-1.084c.079-.238.18-.545.256-.898l.063-.159c.189-.17.373-.401.536-.712.185-.297.333-.599.444-.901l.088.022.517-1.159c2.343-5.254,2.865-10.845,1.46-15.776-.213-.686-.472-1.335-.722-1.964-.233-.586-.454-1.139-.629-1.698l-.084-.21c-.387-.791-.882-1.572-1.555-2.456-.992-1.499-2.265-2.672-3.496-3.807l-.869-.805-.364-.023c-.645-.604-1.624-1.492-2.919-1.567-.856-.93-2.023-1.213-2.901-1.425-.093-.022-.185-.044-.275-.067-.464-.242-.986-.413-1.619-.531C25.632-.024,23.552-.007,21.538.008c-.41.003-.818.008-1.222.004l-1.853-.012.063.306c-2.101.252-3.952,1.263-5.628,2.179-.355.194-.709.387-1.062.571-1.935.807-3.337,2.293-4.575,3.606l-.535.565C2.871,11.538,1.081,17.496,1.929,23.181c.208,4.854,2.562,8.955,4.846,12.918-.311.101-.616.223-.915.367-.347.107-.692.211-1.04.312l-.215.062-.188.123c-1.614,1.056-2.783,2.417-3.404,3.956-.307.336-.462.711-.561.948-.023.055-.043.111-.057.139l-.243.362-.011.436c-.019.74-.058,1.48-.1,2.225l-.042.743.308.263.11.558c.122.615.305,1.235.546,1.841l.086.218.148.181c.189.23.366.474.543.718.572.784,1.219,1.672,2.249,2.287l.262.137c1.514.769,3.39,1.725,5.525,1.278l1.04-.086.353-.063.241-.112c.464-.216.981-.457,1.466-.85l1-.426.22-.239c.636-.689,1.17-1.24,1.68-1.733l.406-.574c.505-.825,1.121-1.832,1.195-3.089.504-1.181.286-2.428.122-3.365l-.102-.539c-.567-1.951-1.669-3.538-2.734-5.073-.373-.536-.744-1.071-1.044-1.544l-.25-.456c-.507-.927-1.031-1.885-1.637-2.809l-.609-.929c-.123-.229-.251-.441-.371-.639-.143-.236-.289-.47-.397-.711l-.092-.173c-2.174-3.525-2.935-7.911-2.089-12.019.372-1.727.872-3.036,1.607-4.176,1.795-3.071,4.581-5.474,7.842-6.766l.179-.086c.071-.031.151-.049.23-.071.272-.077.708-.2,1.108-.486.576-.019,1.141-.186,1.64-.488.44-.081.9-.255,1.273-.467,2.074.405,6.973,1.584,9.012,3.038l.922.678c.318.232.636.465.952.7l.005.013c.269.713.769,1.207,1.396,1.418.244.346.498.672.746.991.446.574.868,1.117,1.163,1.688l.528,1.346c1.427,3.725,1.35,8.143-.212,12.12l-.138.352.04.331-.554,1.017c-.196.359-.382.723-.568,1.088-.516,1.01-1.003,1.963-1.675,2.735l-1.797,2.065.383.057c-.111.213-.213.42-.298.598l-.116.241c-.159.216-.305.435-.443.655l-1.078,1.058.491-.065c-.402.699-.787,1.353-1.272,1.79l-.58.522.067.555c-.032.138-.082.334-.14.568-.418,1.682-.823,3.417-.792,4.53l.006.101c.224,2.351,1.546,4.625,3.605,6.221l.697.562.229.153c1.418.766,2.646,1.042,3.826,1.042,1.134,0,2.225-.256,3.399-.577l.912-.289.112-.545c.176-.173.458-.433.698-.653,1.265-1.164,2.455-2.301,3.15-3.386l.621.021.074-1.434.488-1.103-.409-.053ZM37.46,47.148c-.571.01-1.615-.052-1.98-.152l-.049-.048c-1.05-1.014-1.517-1.865-1.427-2.599l.02-.159-.014-.159c-.045-.498.328-1.001.947-1.772.044-.055.088-.11.132-.165l.194-.042c.605-.135,1.182-.263,1.753-.354.684.159,1.327.5,1.868.99.561.517.662,1.175.648,1.637-.025.826-.425,1.662-1.05,2.201-.341.216-.689.423-1.041.623ZM6.205,44.94l-.102-.221c.047-.167.092-.332.137-.495.193-.71.362-1.334.684-1.818,1.37-.838,2.28-1.036,2.931-.648l.062.035c1.046.559,1.986,1.757,1.718,2.651l-.171.573.147.292-.147.258c-.272.483-.529.94-.832,1.166-.241.123-.495.218-.748.316-.223.086-.46.178-.703.287-.632-.271-1.272-.39-1.823-.491l-.057-.075c-.441-.589-.81-1.205-1.098-1.83Z"/>
  </g>
</svg>