<?xml version="1.0" encoding="UTF-8"?>
<svg id="b" data-name="Layer 2" xmlns="http://www.w3.org/2000/svg" width="49.081" height="60.435" viewBox="0 0 49.081 60.435">
  <g id="c" data-name="Layer 1">
    <path d="M37.338,37.605c-.63,1.59-.95,3.28-1.35,4.95.06-1.08.18-3.25.24-4.34l-1.45.79c.8-.72,1.62-1.42,2.39-2.15-.17-.91-.52-2.72-.69-3.62,3.78-.81,7.67-.83,11.45.02,1.41-2.57,2.02-6.16-1.11-7.72-3.42-.16-6.84.37-10.26.27,1.25-4.37,2.67-8.71,4.43-12.9-.37-.46-1.11-1.37-1.48-1.83.43.42,1.31,1.27,1.75,1.69,1.22-4.06,4.78-6.51,7.23-9.64-1.07-1.5-2.81-3.9-4.91-2.88-8.48,5.7-12.4,15.67-14.76,25.21-2.95.06-5.89.15-8.84.33-.08-.71-.25-2.12-.33-2.83C17.708,14.895,14.798,6.425,7.648,1.505,6.308,1.035,4.988.455,3.578.215,2.558,1.035-.012,1.715.968,3.515c6.58,5.67,10.92,13.84,12.12,22.43-4.01.13-8.2-.66-12.09.4-1.43,1.9-1.38,4.98.52,6.57,3.7.44,7.43.13,11.15.26-.79,8.66-4.84,17.11-11.75,22.53.69,1.2,1.19,2.58,2.24,3.56,1.92.66,3.46-1.06,4.91-2,7.56-5.64,11.06-15.03,11.92-24.15,3.1-.06,6.23-.21,9.31.29.92,6.43,2.98,12.68,6.56,18.13,1.82,3.91,5.58,6.18,8.72,8.9,2-.68,3.02-2.45,3.96-4.17-5.41-4.99-9.12-11.64-11.2-18.66ZM9.128,53.735c-1.44.29-1.93-.23-1.46-1.57,1.44-.32,1.92.21,1.46,1.57ZM15.678,43.245l-.68-1.32-.83,2.31c2,.99.26,2.61-.56,3.75-.2.34-.6,1-.8,1.34l-.82-.62c.06,1.96-.61,3.52-2.36,2.07l1.91-.17c-.05-.45-.15-1.35-.21-1.8l.4-.78c.28-.47.86-1.42,1.15-1.89.51-1.77,1.08-3.56,1.57-5.31-2.05.18-1.23-1.46-.61-2.52.62,1.45,2.63,1.88,3.08-.1l.32-.17c-.69,1.68-1.3,3.39-1.56,5.21ZM36.428,10.715c.21,3.59-3.67,6.95-.98,10.27.58-1.4,1.18-2.79,1.8-4.15-.42,1.48-.9,2.94-1.34,4.44l-.84-.22c-.15,1.52-.3,3.12-.49,4.67-.04-.92-.13-2.76-.17-3.69-.59-.67-1.15-1.35-1.69-2.03.31.03.93.08,1.24.11-.31-3.38.66-6.58,2.47-9.4ZM31.358,31.585c-1.22.71-2.44-1.39-1.55-2.28,1.21-.72,2.37,1.35,1.55,2.28ZM31.878,37.265c1.59-.55,2.14,0,1.62,1.67-1.61.54-2.15-.02-1.62-1.67ZM33.168,40.715c1.43,1.82,2.53,3.89,2.93,6.2-1.35-1.87-2.08-4.09-2.93-6.2Z"/>
  </g>
</svg>