<?xml version="1.0" encoding="UTF-8"?>
<svg id="b" data-name="Layer 2" xmlns="http://www.w3.org/2000/svg" width="55.393" height="58.944" viewBox="0 0 55.393 58.944">
  <g id="c" data-name="Layer 1">
    <path d="M40.853,34.827c8.34-4.05,13.77-12.88,14.54-22.01-2.05-.11-4.09-.03-6.12.11-1.32,4.59-2.61,9.46-5.98,13.03-5.69,6.22-15.16,6.74-22.94,5.29-.14-1.23-.27-2.45-.4-3.66,5.49.01,11.46,1.49,16.51-1.4,7.9-4.26,10.7-17.42,2.81-23.03C32.343-1.603,23.573.447,15.743.397c-1.89-.42-2.89,1.19-3.83,2.47.54.4,1.64,1.18,2.18,1.58.12,7.74-.26,15.48-.03,23.22-4.45-3.58-6.51-9.14-7.98-14.47C4.083,13.307-.117,11.447.003,14.677c1.79,6.97,5.53,13.81,11.43,18.12.85.84,2.11,1.48,2.46,2.73.35,7.02-.14,14.05-.12,21.06.29,2.87,3.92,2.17,5.94,2.12,5.72-.75,11.48-.2,17.22-.39,2.94-.13,5.97,1.18,8.84.35,1.62-2.01,1.02-4.69.85-7.03-8.56-.19-17.12.06-25.68.02-.05-4.74-.13-9.49-.12-14.23,6.7,1.53,14.1,1.17,20.03-2.6ZM39.653,9.347c-1.62.52-2.18-.03-1.69-1.65,1.62-.55,2.18,0,1.69,1.65ZM37.183,4.647c1.41-.4,1.94.09,1.59,1.48-1.42.38-1.94-.12-1.59-1.48ZM33.863,7.227c4.13,1.68,4.56,7.05,3.18,10.72-2.32,3.84-7.07,4.88-11.25,4.8.15.36.46,1.09.62,1.45l-1.32-1.61c-.77.85-2.4,2.63-2.14.22l-1.99.28c-.01-5.97.21-11.94-.13-17.9,4.39-.02,9.15-.45,13.03,2.04ZM19.463,57.177c-1.41.51-1.88.06-1.41-1.34,1.41-.53,1.88-.08,1.41,1.34ZM43.453,57.317c-.76.76-3.25.98-3.27-.42.74-.8,3.25-1.02,3.27.42ZM39.323,54.457c-1.18.88-1.88.64-2.09-.72,1.18-.9,1.88-.66,2.09.72ZM32.223,53.777c.79-.86,2.81-.8,3.12.51-.25,1.61-3.7,1.15-3.12-.51ZM29.383,53.807c.45,1.63-2.94,2.09-3.27.52.38-1.29,2.39-1.28,3.27-.52Z"/>
  </g>
</svg>