<?xml version="1.0" encoding="UTF-8"?>
<svg id="b" data-name="Layer 2" xmlns="http://www.w3.org/2000/svg" width="43.278" height="47.923" viewBox="0 0 43.278 47.923">
  <g id="c" data-name="Layer 1">
    <path d="M42.722,38.748c-.274-1.863-.213-3.748-.35-5.619l-.209.079c-.133-1.301.378-3.06-1.016-3.839-1.121-.627-2.148.364-3.074.883-.144,2.145-.133,4.3.036,6.444-2.754-4.134-5.111-8.639-8.726-12.114-1.139-1.175-2.671-1.86-3.781-3.06,2.826-.843,5.853-1.953,7.652-4.437,1.463-1.687,1.626-4.004,1.91-6.116-.036-3.676-2.209-7.356-5.558-8.971C25.241-.181,20.137-.401,15.409.493c-1.211.436-2.4.933-3.615,1.362-.18,2.339.494,4.628.378,6.967-.09,2.44.357,4.858.227,7.302l-.076.267c.101.97.205,1.943.281,2.919-1.471.681-3.193.815-4.487,1.853-1.528.97-3.154,1.863-4.285,3.32-1.218,1.593-2.411,3.251-3.186,5.111-.36,1.806-.879,3.662-.53,5.514.393,2.361.933,4.754,2.13,6.852,1.359,2.591,3.745,4.567,6.455,5.615.811.216,1.759.562,2.563.169.649-.876.728-2.033,1.171-3.01-.346-.364-.728-.699-1.2-.869-2.8-1.067-5.093-3.377-6.152-6.178-.876-2.512-.732-5.424.681-7.713,1.481-2.739,4.199-4.404,6.79-5.947.05.688.018,1.38-.04,2.072-.332,4.249.141,8.528-.332,12.77,1.215.815,2.768.479,4.141.458.836-.011,1.499-.598,1.835-1.326-.112-2.281.119-4.57-.072-6.848-.191-2.454-.133-4.916-.299-7.367.847.086,1.698.447,2.552.321.144.076.429.227.573.303,2.072.515,3.327,2.343,4.736,3.784,2.826,3.593,5.374,7.396,7.958,11.166.44-.451.58-1.074.757-1.651,0,.278-.004.559-.007.847.159.119.476.353.638.469-.627.382-1.395.321-2.09.476-1.853-.371-3.734-1.914-5.637-.988-.515,1.089-.742,2.278-.724,3.485,4.257,1.225,8.524,2.426,12.633,4.109,1.33.53,3.28.53,4.069-.872.169-2.177-.339-4.329-.523-6.488ZM21.731,17.815c-1.247.187-2.465.515-3.694.779-.512-3.611.184-7.277-.328-10.881-.133-.793-.159-1.593-.159-2.386,1.626-.029,3.255.022,4.884-.018,4.195-.26,8.041,4.664,6.084,8.596-1.29,2.505-4.112,3.637-6.787,3.911Z"/>
  </g>
</svg>