<?xml version="1.0" encoding="UTF-8"?>
<svg id="b" data-name="Layer 2" xmlns="http://www.w3.org/2000/svg" width="51.821" height="52.86" viewBox="0 0 51.821 52.86">
  <g id="c" data-name="Layer 1">
    <path d="M50.821,1.807c-.38-.17-1.14-.53-1.53-.7-4.71-.41-9.43-1.02-14.17-.72-2.69-.32-5.4-.46-8.11-.35-1.99.44-2.25,2.87-3.28,4.31,1.28,1.06,2.49,2.71,4.38,2.49,3.72-.02,7.45-.01,11.16.39-2.57,4.05-6.57,6.83-9.91,10.18-3.29,3.16-6.43,6.48-9.53,9.83-2.73-2.46-4.97-5.42-7.78-7.79-2.83-1.62-4.54,1.61-5.4,3.74,2.43,3.3,5.18,6.35,8.15,9.18-4.83,5.36-9.92,10.48-14.67,15.9-.62,1.55,1.11,2.94,2.08,3.97,1.63,1.64,3.4-.36,4.64-1.41,4.48-4.6,8.91-9.24,13.34-13.88,3.39,2.56,6.16,5.79,9.06,8.86,1.53-1.01,4.54-1.77,4.31-4.06-2.46-3.35-5.42-6.32-8.24-9.37-1.48.1-2.59,1.17-3.86,1.81.64-.8,1.28-1.59,1.93-2.36.48.04,1.44.12,1.92.16,4.66-4.53,9.5-8.93,13.43-14.12,1.2-1.41,2.35-2.98,4.08-3.76-.8-.55-1.61-1.07-2.39-1.62,1.55-1.13,3.18-.58,4.67.31-.22,4.91-.45,9.91.83,14.73,1.4.13,2.79.26,4.2.41.42-.27,1.27-.81,1.69-1.09-1.03-8.32.31-16.75-1-25.04Z"/>
  </g>
</svg>