<?xml version="1.0" encoding="UTF-8"?>
<svg id="b" data-name="Layer 2" xmlns="http://www.w3.org/2000/svg" width="39.98" height="65.486" viewBox="0 0 39.98 65.486">
  <g id="c" data-name="Layer 1">
    <path d="M35.78,56.4c-1.04,2.38-2.94,4.49-5.76,4.31-.49-1.57-1-3.14-1.52-4.68,1.89-5.76,6.21-10.27,8.53-15.84,1.78-3.8,1.03-8.15.21-12.09-1.91-5.32-7.76-9.27-13.47-8.21-3.55.17-6.13,2.79-8.9,4.67,0-2.73.11-5.46.21-8.18,2.96-.11,5.93-.23,8.9-.39.79-1.46,1.44-2.98,1.95-4.56-.8.23-2.4.68-3.2.91.92-.76,1.83-1.53,2.71-2.34-3.34-.83-6.77-.48-10.13-.1-.26-3.2-.58-6.4-1.18-9.55-.98.86-1.86,1.81-2.69,2.8.28-.78.84-2.36,1.12-3.15-1.97.45-3.87,1.09-5.71,1.92.2,2.6.49,5.2.8,7.8-2.56-.09-5.16-.16-7.65.6,0,1.78.05,3.56.17,5.35,2.58.21,5.17.29,7.77.38.29,12.07-.33,24.13-.28,36.19.72.67,1.45,1.34,2.19,2.03,1.52-.5,3.08-.92,4.58-1.49.97-3.47.1-7.12.08-10.65-.25-3.05.49-6.09.1-9.13,2.85-3.31,6-8.48,11.17-7.04,3.13.26,4.82,3.51,5.28,6.28,1.07,9.73-9.39,16.7-7.68,26.5.61,5.04,6.88,8.58,11.31,5.73,2.65-1.21,4.04-3.84,5.29-6.31-1.34-.75-2.74-1.35-4.2-1.76ZM11.08,19.52c1.25,1.18,1.43,5.15.03,6.24-.81-1.89-.78-4.34-.03-6.24ZM11.4,43.99c-1.63.53-2.17-.02-1.62-1.65,1.62-.54,2.16.01,1.62,1.65ZM11.86,40.16c-2.26,2.8-2.28-3.84-.51-3.77.83,1.14.99,2.39.51,3.77ZM13.42,9.7c-1.42.02-1.26-2.47-.42-3.18,1.41-.02,1.24,2.46.42,3.18ZM30.89,27.13c.41.13,1.23.39,1.64.52l.04-3.45c-.85.06-2.56.17-3.42.23.28-.86.57-1.72.86-2.56,0,.45-.01,1.37-.01,1.83,2.11-.76,3.97.85,2.97,2.96.46.09,1.38.26,1.84.34-2.44.21-1.77,2.52-1.13,3.96-1.31-.98-2.01-2.46-2.79-3.83ZM32.29,40.16c-.06-1.68.61-3.23,1-4.82.59,3.41-1.21,6.3-2.54,9.27-.14-.02-.43-.05-.58-.07.68-1.47,1.39-2.94,2.12-4.38Z"/>
  </g>
</svg>