<?xml version="1.0" encoding="UTF-8"?>
<svg id="b" data-name="Layer 2" xmlns="http://www.w3.org/2000/svg" width="59.041" height="60.882" viewBox="0 0 59.041 60.882">
  <g id="c" data-name="Layer 1">
    <path d="M54.711,52.152l2.16-2.31-3.89.74c1.01-.41,2.01-.83,3.01-1.24-2.58-2.33-5.18-4.7-8.44-6.01-.53,2.37-.35,4.79-.23,7.2-3.15-.06-6.45-1.59-7.01-5-3.01-14.21,2.08-29.33-3.32-43.15-1.69.23-3.4.42-5.11.37,1.64-.37,3.29-.66,4.95-.89C35.071-.398,31.921-.008,29.521.782c-1.87,1.2-2.75,3.36-4.08,5.06-2.16-.29-2.42-3.62-3.89-5.03l.47-.33c-3.05-1.09-6.15-.3-8.32,2.07-1.05,1.6-2.12,3.19-3.19,4.78C8.311,4.722,7.221-.558,2.841.342,1.741.432-.159.612.011,2.202c1.34.67,3.01.31,4.24,1.31-1.12-.44-2.27-.62-3.44-.56.04,1.56,1.39,2.69,2.05,4.04,1.8,4.11,2.15,8.53,2.35,12.95.07,1.92.04,3.85.26,5.77.1,6.95-.65,13.93.17,20.86l.31-1.01-.28,1.55c2.33.28,5.63.77,6.69-2,.5-7.99,1.2-16.01.93-24.03.26-4.84,2.08-9.52,4.57-13.64.97,3.39.98,6.91,1.27,10.39-.32,8.66-.41,17.34-.07,26,.13,1.08.22,2.15.42,3.25,2.07.2,5.43,1.58,6.58-.85.08-8.74-.06-17.49.15-26.23.82-4.54,2.49-9.02,5.06-12.86,1.88,11.7.95,23.65,1.38,35.46.24,3.53,1.29,7.07,3.36,9.98,2.94,3.21,7.65,3.21,11.68,3.52.21,1.59.45,3.19.74,4.78,5.01-1.18,7.54-6.18,10.61-9.78-1.49.17-2.93.53-4.33,1.05Z"/>
  </g>
</svg>