<?xml version="1.0" encoding="UTF-8"?>
<svg id="b" data-name="Layer 2" xmlns="http://www.w3.org/2000/svg" width="56.822" height="57.789" viewBox="0 0 56.822 57.789">
  <g id="c" data-name="Layer 1">
    <g>
      <path d="M25.038,23.31c-3.99,2.21-4.74,8.5-.63,10.98,3.63,3.06,9.81.35,10.37-4.25,1.11-4.98-5.34-9.91-9.74-6.73Z"/>
      <path d="M52.518,12.77C47.288,5.75,39.348.61,30.438.11c-.26.5-.8,1.49-1.07,1.98-.08-.52-.23-1.57-.31-2.09C18.758,1,8.418,6.5,3.578,15.94-3.512,27.79.288,44.64,11.868,52.19c3.04,2.32,6.46,4.18,10.27,4.81,7.99,2.32,16.41-.79,23.09-5.21.2-1.08.41-2.15.68-3.2l-.25,3.02c5.27-4.06,9.68-9.86,10.53-16.62,1.75-7.56-.33-15.4-3.67-22.22ZM50.068,29.98c-.23,12.65-13.22,23.43-25.74,20.43-1.91-.47-3.78-1.06-5.62-1.74-.66.55-1.3,1.11-1.93,1.67-.5-.09-1.5-.28-2-.38.64-.08,1.92-.25,2.56-.34-.17-.58-.53-1.73-.7-2.31-3.46-2.61-7.19-5.33-8.78-9.54-4.53-9.76-.05-22.28,9.17-27.55,3.37-1.47,6.97-2.56,10.65-2.87,4.01-.37,7.82,1.19,11.51,2.52,2.63,2.07,5.11,4.33,7.25,6.91.62-2.58-1.18-4.65-2.51-6.64.95,1.01,1.91,2.02,2.86,3.05,3.16,2.31,3.69,6.26,4.35,9.84-.88-2.28-1.52-4.64-2.19-6.98-.63.58-1.26,1.17-1.88,1.76,2.07,3.69,2.94,7.97,3,12.17Z"/>
    </g>
  </g>
</svg>