<?xml version="1.0" encoding="UTF-8"?>
<svg id="b" data-name="Layer 2" xmlns="http://www.w3.org/2000/svg" width="60.284" height="58.674" viewBox="0 0 60.284 58.674">
  <g id="c" data-name="Layer 1">
    <path d="M58.86.42c-2.97-.41-6.1.32-8.79,1.61-5.58,3.3-7.34,10.03-11.72,14.4-4.4,2.58-10.65,3.94-14.97.45-6.34-2.44-6.17-10.88-11.8-14.13C8.99,1,5.89.48,2.87,0,1.93.72,1,1.45.08,2.19l2,.52c-.52-.01-1.56-.03-2.08-.04.16.64.49,1.9.65,2.53,1.5,2.98,5.81,1.15,7.57,3.89,3,5,6.04,10.35,11.1,13.56-1.49,2.53-4.69,3.31-6.03,5.96-1.47,2.66-3,5.5-3.09,8.6.84,6.71,2.89,14.01,8.79,18.01,2.76,1.45,5.86,2.03,8.82,2.94.08-.48.26-1.43.34-1.91.03.49.09,1.47.12,1.96.113,1.844,11.624-2.364,12.567-2.933,3.173-1.914,6.229-4.679,7.691-8.25,1.717-4.196.515-8.372-.365-12.609-.688-3.314-.805-6.732-3.666-9.036-.865-.697-3.36-2.832-4.477-2.832,5.68-2.33,8.92-7.69,11.48-12.95,1.4-3.79,6.89-1.01,8.28-4.55.92-1.52.56-3.63-.92-4.63ZM10.27,6.37c-.99-.74-2.18-1.99-1.77-3.33,1.37-.79,3.26,2.87,1.77,3.33ZM14.39,44.8c-1.17-.57-1.84-2.35-1.07-3.47,1.81-.97,2.81,3.07,1.07,3.47ZM43.3,41.14c-.55,2.86-2.13,5.39-4.23,7.37-3.77,1.6-7.67,4.49-11.95,2.77-8.02-2.08-13.13-13.54-7.25-20.12,2.69-2.88,6.25-5.48,10.39-5.26.38-.76.76-1.51,1.13-2.27,1.13.5,2.25,1.02,3.47,1.3-1.37.19-2.72.5-3.99,1.07,7,.74,14.1,7.69,12.43,15.14ZM38.41,20.31c1.23-.88,1.97-.66,2.23.66-1.23.87-1.98.65-2.23-.66ZM47.7,7.65c.13-3.72,4.04-5.43,7.23-5.8-2.34,2.03-4.95,3.71-7.23,5.8Z"/>
  </g>
</svg>