<?xml version="1.0" encoding="UTF-8"?>
<svg id="b" data-name="Layer 2" xmlns="http://www.w3.org/2000/svg" width="57.645" height="63.182" viewBox="0 0 57.645 63.182">
  <g id="c" data-name="Layer 1">
    <path d="M57.45,49.07c-2.18-.98-4.43-1.93-6.21-3.58-3.73-3.05-4.83-8.06-5.56-12.58-.46-7.42-.63-15.47,3.27-22.09,1.95-3.38,6.59-3.6,8.65-6.8-.37-1.36-.78-2.7-1.22-4.02-2.6.05-5.31.41-7.37,2.13-6.51,5.16-9.7,13.35-10.21,21.49-2.26.03-4.52.09-6.77.14-.02-5.35-.05-10.71-.12-16.06-.88-.56-1.76-1.12-2.63-1.67-1.16.54-2.35,1.05-3.46,1.7-.22,5.31-.05,10.63-.13,15.95-2.13,0-4.25.01-6.37.02-.39-5.96-1.98-11.93-5.58-16.76C10.41,3.56,6.43.73,1.62.04.15,1.5.25,3.53.24,5.47c2.74.99,5.66,2.05,7.59,4.38,3.4,4.21,4.36,9.79,4.34,15.07.19,6.47-.17,13.5-4.18,18.91-1.91,2.69-5.09,3.83-7.99,5.09.13,1.85.27,3.7.46,5.55,2.76-.12,5.68-.37,7.93-2.16,7.03-5.03,9.82-13.88,10.95-22.07,2.07.01,4.14.03,6.22.05.05,3.86.12,7.72.11,11.59-2.95,1.5-6.03,3.46-6.98,6.85-2.47,6.61,3.07,14.61,10.16,14.43,6.45.45,12.17-6.07,10.75-12.41-.29-4.31-3.82-7.38-7.44-9.18.04-3.75.02-7.5.01-11.25,2.11-.03,4.23-.07,6.35-.12.35,5.91,1.69,11.99,5.42,16.75,2.86,4.33,7.58,7.33,12.8,7.73,1.28-1.65.88-3.7.71-5.61ZM9.79,6.81c-1.61.53-2.17-.03-1.71-1.67,1.6-.55,2.16.01,1.71,1.67ZM34.46,50.89c1.22,4.13-3.56,8.03-7.45,6.72-4.34-1.28-4.74-8.42-.76-10.29,3.17-1.89,7.29.15,8.21,3.57Z"/>
  </g>
</svg>