<?xml version="1.0" encoding="UTF-8"?>
<svg id="b" data-name="Layer 2" xmlns="http://www.w3.org/2000/svg" width="41.708" height="63.519" viewBox="0 0 41.708 63.519">
  <g id="c" data-name="Layer 1">
    <path d="M38.737,10.129c-.49.09-1.47.28-1.96.38.45-.18,1.36-.54,1.81-.72-3.37-3.99-7.63-7.44-12.66-9.03-4.41-1.63-9.21-.3-13.56.87C6.737,4.579,2.217,9.699.287,15.789c-1.19,7.2,1.37,14.91,6.79,19.84,2.84,2.78,6.82,3.71,10.44,5.04-.01,1.98.68,4.37-.79,6.02-2.98.74-6.17.01-9.19.74-.16,1.52-.33,3.05-.51,4.58,1.08,1.06,2.35,1.99,3.98,1.57,2.9-.39,5.66.36,8.37,1.32.01.6.02,1.22.04,1.84l-.11-1.75h-2.2c.15,2.89.57,5.77,1.46,8.53,1.48-.04,2.95-.16,4.42-.36,2.12-2,1.1-5.28,1.52-7.85-.33-.06-.99-.19-1.32-.25.37-.42,1.1-1.25,1.46-1.67,3.07.09,6.15.09,9.21-.23.26-.63.77-1.88,1.02-2.51-.71-1.46-1.42-2.96-2.42-4.25l-.3,2.06c-.16,0-.48.01-.64.01l.12-1.45c-2.48-.04-4.95-.06-7.43-.01-.07-2.26-.1-4.52-.14-6.77,8.34-.99,15.34-7.78,17.32-15.81.97-4.92-.36-9.94-2.65-14.3ZM27.007,32.869c-7.8,4.64-18.4-1.33-19.88-9.87C4.477,13.729,14.817,3.709,23.967,6.679c1.39.35,2.72.89,4.04,1.44l.33-1.18c-.02.4-.06,1.2-.08,1.6,9.09,5,8.66,20.49-1.25,24.33Z"/>
  </g>
</svg>