<?xml version="1.0" encoding="UTF-8"?>
<svg id="b" data-name="Layer 2" xmlns="http://www.w3.org/2000/svg" width="63.998" height="70.689" viewBox="0 0 63.998 70.689">
  <g id="c" data-name="Layer 1">
    <path d="M63.961,40.986l-.395.081c-.044-.194-.103-.383-.174-.565l.074-.011c-.559-1.733-1.47-3.571-2.548-4.938.574-.583,1.045-1.166,1.415-1.753l.522.723c.429-2.891,1.816-6.087.096-8.979-3.775-3.724-5.893,2.017-6.463,5.082-3.073,3.07-15.566,1.274-20.024,1.179l-.012.275c-.418.023-.858.039-1.327.047,1.611-7.14-4.739-24.989,6.287-24.556-.165-1.775,2.285-3.976-.075-5.841-1.56-1.188-3.264-.056-4.619-1.73-.632,1.439-2.648,1.716-3.572,3.108,0,0-2.431-.42-2.431-.42l1.53,1.053c-.077.057-.154.117-.229.179-2.682-3.187-11.311-5.096-10.521,1.362.334,1.811,2.315,1.364,2.189,2.92.502-1.639,2.197-.44,3.149.039,1.624,2.029,2.466,5.556,1.528,8.272.636,5.098-.024,10.459.184,15.645-4.354-.03-8.789-.105-13.183.315-2.728-1.028-5.977.953-8.055-2.214l-.09.123c-4.475-12.896-11.012-1.634-4.421,5.089-2.499,3.083-3.427,6.758-2.367,10.361l.395-.199c.222.228.498.488.594.805l.112-.182c.247.073.521.508.647.711l.179-.321c1.211.394,2.972-.175,3.409-1.493.172-6.592,5.39-6.536,10.553-5.965,3.932.106,8.074-.193,12.145-.078-1.269,7.285,3.029,18.376-2.359,24.151-2.272.078-3.461,1.303-4.914,2.868.24.812.498,1.766.745,2.573.617,1.902,3.908,1.373,5.607,1.563.319-1.044,2.622-1.121,3.638-1.812-.366-.613.29-.858.64-1.275.629,1.061,2.28,1.292,2.123,2.482,1.824.07,3.789.759,5.593,1.027,2.547-2.332,3.718-2.773,1.842-6.579-2.114-.451-4.581-.489-5.402-2.506-1.705-7.388.024-14.871-.788-22.424,5.806,1.055,19.169-2.887,22.012,2.578l-.47.073c1.196,7.53,7.814,6.098,7.229-.845Z"/>
  </g>
</svg>