<?xml version="1.0" encoding="UTF-8"?>
<svg id="b" data-name="Layer 2" xmlns="http://www.w3.org/2000/svg" width="51.617" height="62.129" viewBox="0 0 51.617 62.129">
  <g id="c" data-name="Layer 1">
    <path d="M40.251,50.956c7.58-6.74,12.33-16.9,11.2-27.15-.69-4.89-1.55-10.38-5.77-13.55-2.39-.69-4.34,1.24-5.42,3.13-1.44.59-3.218-9.086-5.099-12.193-.11-.181-.227-.366-.404-.482-.166-.109-.367-.147-.562-.182-.834-.152-1.678-.304-2.524-.245-2.265.158-3.724,2.627-4.972,4.291-.319.426-2.105,3.602-2.47,3.602-.71-1.611-1.194-3.419-2.263-4.847-.904-1.208-3.321-3.913-5.073-3.216-.383.152-.699.432-.996.718-.463.445-5.305,6.837-4.639,7.156-.67-.32-1.378-2.664-1.62-2.9C8.001,3.486,6.461,1.786,4.971.046,3.221.366,1.301.656.111,2.156c-.62.781,1.538,3.632,1.931,4.36l.303-.155c.054.163.057.342.01.506.795.001.943.106.226.192.721,1.31,1.372,2.631,1.96,4.008,1.09,11.7.93,23.52.51,35.26,2.17,1.95,4.93.86,7.37.16-.14-8.51-.11-17.01-.05-25.52.01-4.01,2.05-7.62,3.36-11.31.22-.47.64-1.4.86-1.87,2.46,4.25,1.74,9.37,2.59,14.03,1.05-.17-.16,6.27-.29,7.22-.13,5.71-.11,11.42-.37,17.13,2.11,1.5,4.65,1.18,7.01.54.1-6.23.34-12.5-.44-18.7-.61-4.38.47-8.79,2.16-12.81,1.03-2.41,1.89-5.07,4.05-6.73.47,13.2.83,26.42,1.27,39.63-2.7,2.15-6.12,2.83-9.37,3.67.16,1.97.21,3.93.25,5.91,3.91.11,7.59-1.23,11.13-2.7,1.14,1.94,2.28,4.1,4.44,5.08,1.81,1.44,5.16,3.63,6.32.4.16-1.05.33-2.09.5-3.12-2.61-1.29-5.06-3.37-5.59-6.38ZM20.501,38.646c.03,1.73.18-2.52.1-.78.94.03,1.88.07,2.82.12.02-.79.42.11.64,1.74-.61-1.48-2.37-.79-3.56-1.08ZM41.121,14.346c1.35-.95,2.65,1.43,1.59,2.4-1.36,1-2.68-1.44-1.59-2.4ZM38.141,19.086c1.29.66,1.27,1.34-.05,2.04-1.29-.67-1.27-1.35.05-2.04ZM38.651,43.276c-.03-3.47.02-6.95.13-10.41-1.17-.16-.78-.74.47-.5-.91-4.4,4.86-13.02,4.86-13.02l.24,1.52c1.04,4.7.09,9.45-1.4,13.94-1.09,2.95-1.99,6.19-4.3,8.47Z"/>
  </g>
</svg>