<?xml version="1.0" encoding="UTF-8"?>
<svg id="b" data-name="Layer 2" xmlns="http://www.w3.org/2000/svg" width="43.718" height="56.27" viewBox="0 0 43.718 56.27">
  <g id="c" data-name="Layer 1">
    <path d="M43.055,1.037l-.155-.166c-.728-.667-1.646-.933-2.583-.749-1.017.2-1.947.942-2.444,1.944-1.47,2.527-3.011,5.074-4.502,7.538-1.092,1.804-2.184,3.608-3.235,5.383-.727,1.143-1.377,2.328-2.006,3.473-.866,1.576-1.683,3.065-2.68,4.449l-.369.513.064.367c-.025.069-.049.134-.072.194l-.272-.113-.59,1.35c-.139.319-.298.627-.456.936-.122.238-.244.477-.359.718-.673.871-1.185,1.8-1.66,2.72-.176-.269-.402-.614-.577-.902l.185-.211-.608-.949c-.082-.127-.231-.357-.342-.525-.392-.866-1.162-1.979-1.449-2.384l-.008-.02c-.245-.64-.641-1.671-1.384-2.274-.408-1.202-1.054-2.233-1.681-3.236-.273-.436-.547-.871-.792-1.317l-.051-.086c-.46-.716-.859-1.473-1.281-2.274-.485-.921-.986-1.874-1.613-2.805-.729-1.054-1.346-2.174-2-3.359-.615-1.115-1.25-2.268-1.992-3.371l-.021-.031c-.135-.488-.383-.914-.63-1.264l.036-.037-.694-1.016c-.141-.207-.274-.445-.412-.69-.606-1.073-1.606-2.842-3.673-2.842-.079,0-.16.003-.242.008l-.368.024-.315.191C1.353.508.131,1.251.033,2.683c-.201,1.341.576,2.316,1.046,2.905.075.093.15.186.219.279.217.538.594,1.024.907,1.427.047.061.092.117.133.17l.046.129c.461,1.307,1.17,2.418,1.854,3.493.494.775.96,1.507,1.321,2.297.417.868.919,1.65,1.405,2.406.253.395.507.789.75,1.201.703,1.178,1.384,2.411,2.042,3.604,1.052,1.906,2.139,3.875,3.383,5.743.478,1.154,1.167,2.115,1.833,3.045l.027.038c.235.834.691,1.497,1.067,2.042.201.292.391.567.513.81.384.788.821,1.525,1.253,2.242-.004.002-.009.005-.013.007.447,1.085.893,2.171,1.302,3.272.975,2.627,1.854,5.437,1.333,8.189-.34-1.127-1-2.156-1.882-2.936-.557-.492-1.243-.899-1.986-.895-.743.004-1.515.539-1.573,1.28-.039.498.231.961.492,1.387,1.174,1.919,2.349,3.839,3.523,5.758.958,1.566,1.916,3.131,2.874,4.697.188.307.386.624.69.816.583.366,1.386.14,1.89-.329s.78-1.125,1.059-1.754c1.343-3.036,3.047-5.912,5.064-8.549.57-.745,1.2-1.658.884-2.541-.335-.937-1.619-1.215-2.531-.816-.911.399-1.528,1.251-2.1,2.065-.941,1.341-1.883,2.681-2.824,4.022-.743-.669-.474-2.104.46-2.459-.103-.214-.205-.428-.308-.641.061.127,1.043-1.375,1.097-1.541.244-.746.096-1.35-.01-2.093-.203-1.417-.729-2.642-1.245-3.944.054-.044.111-.088.16-.132l.26-.235.129-.327c.232-.588.605-1.163,1.001-1.772.543-.836,1.153-1.774,1.478-2.908l.069-.088c.685-.877,1.455-1.863,1.889-3.095.838-1.113,1.445-2.32,2.033-3.49.123-.244.245-.488.37-.73l.593-.414.289-1.271c1.269-1.865,2.852-4.289,4.196-6.899.293-.445.581-.926.873-1.459.467-.365.761-.864.842-1.423.974-1.589,1.871-3.229,2.741-4.819.265-.484.53-.969.798-1.452h.291l.355-.997c.065-.183.243-.459.415-.727.526-.821,1.621-2.528.25-4.231ZM17.493,45.501c-.021-.149-.063-.444-.084-.593.108-.102.323-.297.432-.395.109.176.33.53.441.709-.199.068-.591.207-.789.279ZM28.197,45.595c-.259.76-.581,1.497-.849,2.254-.053-.158-.159-.471-.211-.625.299-.58.417-1.31,1.06-1.628ZM27.023,48.818c-.265,1.363-1.507,2.233-1.889,3.567-.622-1.365.868-2.803,1.889-3.567ZM20.569,48.56c-.203-.454-.404-.913-.613-1.372.149-.081.446-.247.595-.328.145.346.289.692.435,1.03l-.427.142c.343.56.574,1.168.921,1.718.007.092.013.276.017.37-.47-.43-1.298-.776-.927-1.56ZM22.887,53.373c-.188-.37-.375-.748-.557-1.132.224.21.446.421.662.63.146.024.44.066.586.09-.171.103-.517.307-.691.412ZM23.665,54.116c.468-.19.852.594.37.806-.462.203-.857-.596-.37-.806Z"/>
  </g>
</svg>