<?xml version="1.0" encoding="UTF-8"?>
<svg id="b" data-name="Layer 2" xmlns="http://www.w3.org/2000/svg" width="54.082" height="22.762" viewBox="0 0 54.082 22.762">
  <g id="c" data-name="New bodygraph">
    <g id="d" data-name="variables">
      <path id="e" data-name="arrow-right" d="M53.901,11.268c-3.922-3.757-7.982-7.405-11.986-11.098-3.955,3.587-7.867,7.208-11.744,10.856-1.903-1.02-3.817-2.027-5.62-3.218-1.732-1.059-3.364-2.266-4.989-3.48-2.052-1.525-4.319-2.885-6.867-3.354-2.498-.483-5.174-.178-7.444,1.001C3.34,3.148,1.792,4.918.968,7.012c-1.12,2.777-1.131,5.996.009,8.768.712,1.808,1.984,3.378,3.551,4.518,1.353.979,3,1.45,4.638,1.659,2.059.184,4.161-.154,6.058-.973,1.725-.722,3.265-1.804,4.749-2.926,1.712-1.284,3.461-2.522,5.288-3.639,1.612-1.045,3.338-1.894,5.026-2.806,3.889,3.648,7.701,7.356,11.622,10.978,4.01-3.766,7.999-7.547,11.992-11.324Z" fill="#fff" stroke="#262625" stroke-miterlimit="10" stroke-width=".25"/>
    </g>
  </g>
</svg>