<?xml version="1.0" encoding="UTF-8"?>
<svg id="b" data-name="Layer 2" xmlns="http://www.w3.org/2000/svg" width="275.338" height="421.458" viewBox="0 0 275.338 421.458">
  <g id="c" data-name="Bodygraph">
    <g>
      <path id="d" data-name="gate-18" d="M52.269,384.953c-26.98-22.419-35.341-47.956-35.684-49.032l5.716-1.824c.08.248,8.243,25.003,33.803,46.241l-3.835,4.615Z" fill="#fff"/>
      <path id="e" data-name="gate-48" d="M16.787,289.086l-5.94-.847c.067-.472,7.032-47.716,33.82-91.682l5.124,3.122c-26.123,42.875-32.938,88.945-33.004,89.406Z" fill="#fff"/>
      <path id="f" data-name="gate-57" d="M46.382,248.966l-2.813-1.043h0s0,0,0,0l-2.813-1.043c-11.145,30.055-14.299,53.815-14.428,54.812l2.975.385h0s0,0,0,0l2.975.385c.031-.237,3.194-24.076,14.104-53.496Z" fill="#fff"/>
      <path id="g" data-name="gate-28" d="M65.657,375.172c-29.698-23.149-32.107-39.102-32.195-39.77l5.943-.819c.022.143,2.543,14.5,29.94,35.856l-3.688,4.732Z" fill="#fff"/>
      <path id="h" data-name="gate-32" d="M76.389,363.518c-29.271-22.539-30.517-32.022-30.47-33.694l5.998.17s.016-.083-.007-.253c.011.082,1.39,8.426,28.139,29.023l-3.66,4.754Z" fill="#fff"/>
      <path id="i" data-name="gate-50" d="M85.501,331.192c-19.059-.684-29.398-5.707-29.829-5.921l2.657-5.379c.095.047,9.744,4.671,27.386,5.304l-.215,5.996Z" fill="#fff"/>
      <path id="j" data-name="gate-44" d="M44.755,308.164l-3.641-4.77c21.304-16.265,44.008-27.66,67.482-33.872l1.535,5.801c-22.707,6.008-44.703,17.058-65.376,32.841Z" fill="#fff"/>
      <path id="k" data-name="gate-26" d="M110.131,275.323l-1.535-5.801c42.541-11.257,72.593-1.748,73.851-1.338l-1.856,5.706s-.002,0-.003,0h0c-.46-.147-29.853-9.313-70.457,1.434Z" fill="#fff"/>
      <path id="l" data-name="gate-21" d="M210.989,250.532c-1.908.963-3.295-19.873-22.118-45.215l4.977-3.352c16.664,24.748,23.087,49.529,23.087,49.529,0,0-5.943-.968-5.945-.963Z" fill="#fff"/>
      <path id="m" data-name="gate-51" d="M196.728,258.697c-.038-.053-3.877-5.388-17.359-18.13l4.121-4.361c14.071,13.3,17.987,18.812,18.146,19.041l-4.908,3.45Z" fill="#fff"/>
      <path id="n" data-name="gate-40" d="M225.626,290.455c-2.777-6.363-1.728-3.517-9.345-15.788l5.996-2.16c5.284,7.8,3.585,4.937,8.722,15.278l-5.373,2.67Z" fill="#fff"/>
      <path id="o" data-name="gate-36" d="M258.632,292.945c-.063-.483-6.668-48.838-33.119-93.156l5.152-3.075c27.107,45.419,33.851,94.955,33.916,95.45l-5.949.781Z" fill="#fff"/>
      <path id="p" data-name="gate-22" d="M244.785,298.172c-.055-.436-5.788-44.054-30.862-87.185l5.188-3.016c25.713,44.229,31.571,89.004,31.628,89.451l-5.953.749Z" fill="#fff"/>
      <path id="q" data-name="gate-37" d="M231.802,304.665c-.042-.38-.534-2.85-6.176-14.211l5.373-2.668c2.924,5.885,4.918,10.294,5.929,13.103,0,0-5.176,3.321-5.126,3.776Z" fill="#fff"/>
      <path id="r" data-name="gate-6" d="M190.976,330.985c-1.787,0-3.522-.064-5.227-.15l.301-5.992c7.91.395,15.899.32,26.6-4.894l2.629,5.395c-9.538,4.646-17.305,5.642-24.303,5.642Z" fill="#fff"/>
      <path id="s" data-name="gate-30" d="M221.416,382.751l-3.949-4.518c23.844-20.843,32.643-44.035,32.729-44.267l5.625,2.088c-.373,1.005-9.427,24.861-34.404,46.696Z" fill="#fff"/>
      <path id="t" data-name="gate-55" d="M206.886,374.032l-3.752-4.682c26.543-21.277,30.122-36.546,30.154-36.697l5.877,1.208c-.14.696-3.766,17.314-32.279,40.171Z" fill="#fff"/>
      <path id="u" data-name="gate-49" d="M195.717,362.736l-3.705-4.719c25.354-19.906,25.474-27.604,25.472-27.679,0,0,.004.136.073.381l5.775-1.623c.646,2.298.564,11.516-27.615,33.64Z" fill="#fff"/>
      <path id="v" data-name="gate-41" d="M159.842,413.525l-1.303-5.857c22.481-5.001,42.308-14.904,58.928-29.434l3.949,4.518c-17.385,15.197-38.101,25.551-61.574,30.773Z" fill="#fff"/>
      <path id="w" data-name="gate-39" d="M158.003,398.511l-1.303-5.857c22.868-5.087,32.543-12.169,46.434-23.303l3.752,4.682c-14.617,11.716-25.201,19.21-48.883,24.479Z" fill="#fff"/>
      <path id="x" data-name="gate-19" d="M159.165,380.506l-1.706-5.752c.213-.063,21.437-6.438,34.553-16.736l3.705,4.719c-14.028,11.016-35.639,17.499-36.552,17.77Z" fill="#fff"/>
      <path id="y" data-name="gate-58" d="M111.26,413.525c-22.297-4.961-42.145-14.573-58.991-28.571l3.835-4.615c16.106,13.383,35.102,22.578,56.459,27.329l-1.303,5.857Z" fill="#fff"/>
      <path id="z" data-name="gate-38" d="M115.52,399.021c-22.666-5.043-35.011-12.272-49.863-23.849l3.688-4.732c14.161,11.038,25.921,17.928,47.477,22.724l-1.303,5.857Z" fill="#fff"/>
      <path id="aa" data-name="gate-54" d="M116.927,382.045c-23.173-5.156-26.82-7.964-40.389-18.412l-.149-.115,3.66-4.754.15.115c13.375,10.3,16.159,12.442,38.031,17.309l-1.303,5.857Z" fill="#fff"/>
      <rect id="ab" data-name="gate-53" x="118.855" y="350.849" width="6" height="16.593" fill="#fff"/>
      <rect id="ac" data-name="gate-60" x="134.74" y="350.849" width="6" height="16.113" fill="#fff"/>
      <rect id="ad" data-name="gate-52" x="150.624" y="350.849" width="6" height="16.113" fill="#fff"/>
      <rect id="ae" data-name="gate-3" x="134.74" y="333.568" width="6" height="17.28" fill="#fff"/>
      <rect id="af" data-name="gate-9" x="150.624" y="335.011" width="6" height="15.838" fill="#fff"/>
      <rect id="ag" data-name="gate-42" x="118.855" y="333.568" width="6" height="17.28" fill="#fff"/>
      <path id="ah" data-name="gate-27" d="M87.61,331.231c-.704,0-1.406-.013-2.109-.038l.214-5.996c9.217.331,18.499-1.753,27.603-6.188l2.628,5.395c-9.309,4.534-18.831,6.828-28.335,6.828Z" fill="#fff"/>
      <path id="ai" data-name="gate-34" d="M108.945,301.588c-28.557-.181-45.667-14.441-54.99-26.373-10.046-12.856-13.334-25.547-13.469-26.081l5.816-1.475c.031.12,3.182,12.168,12.52,24.038,12.367,15.721,29.244,23.759,50.162,23.891l-.038,6Z" fill="#fff"/>
      <path id="aj" data-name="gate-59" d="M185.75,330.835c-18.64-.932-28.45-6.105-28.858-6.325l2.842-5.283-1.421,2.642,1.413-2.646c.09.048,9.17,4.763,26.323,5.621l-.299,5.992Z" fill="#fff"/>
      <rect id="ak" data-name="gate-5" x="118.855" y="269.632" width="6" height="21.456" fill="#fff"/>
      <rect id="al" data-name="gate-14" x="134.74" y="268.528" width="6" height="22.56" fill="#fff"/>
      <rect id="am" data-name="gate-29" x="150.624" y="267.076" width="6" height="25.479" fill="#fff"/>
      <rect id="an" data-name="gate-2" x="134.74" y="243.391" width="6" height="25.138" fill="#fff"/>
      <rect id="ao" data-name="gate-46" x="150.624" y="244.528" width="6" height="22.548" fill="#fff"/>
      <rect id="ap" data-name="gate-15" x="118.855" y="245.968" width="6" height="23.664" fill="#fff"/>
      <path id="aq" data-name="gate-10" d="M45.975,249.716l-4.812-3.586c18.057-24.23,37.958-30.669,51.475-31.804,14.745-1.239,25.119,3.33,25.553,3.524l-2.451,5.477c-.095-.041-9.625-4.186-22.898-2.996-17.753,1.589-33.521,11.476-46.867,29.385Z" fill="#fff"/>
      <path id="ar" data-name="gate-25" d="M179.368,240.567c-8.252-7.8-16.36-12.061-19.482-12.596l1.014-5.914c5.479.939,14.77,6.757,22.59,14.148l-4.121,4.361Z" fill="#fff"/>
      <rect id="as" data-name="gate-7" x="118.855" y="193.588" width="6" height="21.9" fill="#fff"/>
      <rect id="at" data-name="gate-1" x="134.74" y="193.588" width="6" height="21.9" fill="#fff"/>
      <rect id="au" data-name="gate-13" x="150.624" y="193.588" width="6" height="20.583" fill="#fff"/>
      <path id="av" data-name="gate-20" d="M46.382,248.966l-5.626-2.086c.641-1.727,1.275-3.449,1.907-5.166,13.958-37.891,27.141-73.681,79.684-92.602l2.033,5.646c-49.912,17.973-62.042,50.901-76.086,89.03-.634,1.721-1.27,3.447-1.912,5.178Z" fill="#fff"/>
      <path id="aw" data-name="gate-45" d="M188.871,205.317c-6.146-9.127-13.172-16.835-22.897-27.504-2.507-2.75-5.182-5.685-8.053-8.876l4.461-4.013c2.861,3.18,5.527,6.105,8.026,8.847,9.897,10.857,17.048,18.702,23.439,28.195l-4.977,3.351Z" fill="#fff"/>
      <path id="ax" data-name="gate-12" d="M213.923,210.987c-13.57-23.343-32.247-43.096-55.511-58.708l3.344-4.982c23.688,15.897,43.521,36.878,57.354,60.675l-5.188,3.016Z" fill="#fff"/>
      <path id="ay" data-name="gate-35" d="M225.513,199.79c-18.514-31.021-42.995-51.674-74.845-63.139l2.031-5.646c33.209,11.955,58.712,33.448,77.966,65.709l-5.152,3.075Z" fill="#fff"/>
      <rect id="az" data-name="gate-31" x="118.855" y="175.169" width="6" height="18.419" fill="#fff"/>
      <rect id="ba" data-name="gate-8" x="134.74" y="175.169" width="6" height="18.419" fill="#fff"/>
      <rect id="bb" data-name="gate-33" x="150.624" y="175.169" width="6" height="18.419" fill="#fff"/>
      <path id="bc" data-name="gate-16" d="M49.791,199.68l-5.124-3.122c19.471-31.956,45.234-53.359,78.76-65.432l2.033,5.646c-32.188,11.59-56.939,32.168-75.669,62.909Z" fill="#fff"/>
      <rect id="bd" data-name="gate-56" x="150.624" y="112.288" width="6" height="16.32" fill="#fff"/>
      <rect id="be" data-name="gate-11" x="150.624" y="92.848" width="6" height="19.44" fill="#fff"/>
      <rect id="bf" data-name="gate-23" x="134.74" y="113.488" width="6" height="15.12" fill="#fff"/>
      <rect id="bg" data-name="gate-43" x="134.74" y="98.609" width="6" height="14.88" fill="#fff"/>
      <rect id="bh" data-name="gate-62" x="118.855" y="111.302" width="6" height="17.306" fill="#fff"/>
      <rect id="bi" data-name="gate-17" x="118.855" y="94.288" width="6" height="17.014" fill="#fff"/>
      <rect id="bj" data-name="gate-61" x="134.74" y="32.68" width="6" height="21.288" fill="#fff"/>
      <rect id="bk" data-name="gate-63" x="150.624" y="32.68" width="6" height="22.968" fill="#fff"/>
      <rect id="bl" data-name="gate-4" x="150.624" y="55.649" width="6" height="16.8" fill="#fff"/>
      <rect id="bm" data-name="gate-24" x="134.74" y="53.968" width="6" height="17.04" fill="#fff"/>
      <rect id="bn" data-name="gate-47" x="118.855" y="52.768" width="6" height="18.24" fill="#fff"/>
      <rect id="bo" data-name="gate-64" x="118.855" y="36.062" width="6" height="16.882" fill="#fff"/>
      <rect id="bp" data-name="center-sacral" x="106.425" y="281.169" width="62.629" height="62.629" rx="12" ry="12" fill="#fff" stroke="#231f20" stroke-miterlimit="10"/>
      <rect id="bq" data-name="center-root" x="106.425" y="358.329" width="62.629" height="62.629" rx="12" ry="12" fill="#fff" stroke="#231f20" stroke-miterlimit="10"/>
      <rect id="br" data-name="center-throat" x="109.526" y="117.519" width="56.427" height="68.831" rx="12" ry="12" fill="#fff" stroke="#231f20" stroke-miterlimit="10"/>
      <path id="bs" data-name="center-spleen" d="M70.594,322.936c1.379-17.072-53.444-46.05-66.289-31.583-7.307,8.23-4.522,37.024,12.114,48.05,24.703,16.373,53.215-4.579,54.175-16.467Z" fill="#fff" stroke="#231f20" stroke-miterlimit="10"/>
      <path id="bt" data-name="center-emotional-solar-plexus" d="M204.743,322.936c-1.379-17.072,53.444-46.05,66.289-31.583,7.307,8.23,4.522,37.024-12.114,48.05-24.703,16.373-53.215-4.579-54.175-16.467Z" fill="#fff" stroke="#231f20" stroke-miterlimit="10"/>
      <path id="bu" data-name="center-will" d="M216.323,242.408c-4.306-1.272-8.164.058-11.581,1.287-14.986,5.389-29.92,21.805-26.38,31.527,4.602,12.64,41.72,17.511,50.83,2.574,6.489-10.641-.916-31.857-12.868-35.388Z" fill="#fff" stroke="#231f20" stroke-miterlimit="10"/>
      <path id="bv" data-name="center-head" d="M167.535,43.869c4.493-12.257-31.513-49.184-48.521-42.587-11.625,4.509-15.917,29.95-5.679,40.805,4.287,4.545,10.066,5.413,18.557,6.689,2.503.376,32.077,4.821,35.642-4.907Z" fill="#fff" stroke="#231f20" stroke-miterlimit="10"/>
      <path id="bw" data-name="center-g-center" d="M101.194,216.751c7.938-19.671,53.242-24.16,65.528-1.8,5.616,10.221,3.904,25.273-2.831,34.656-11.961,16.662-39.298,14.807-53.393-.9-6.547-7.296-13.594-21.323-9.303-31.956Z" fill="#fff" stroke="#231f20" stroke-miterlimit="10"/>
      <path id="bx" data-name="center-ajna" d="M101.82,72.208c7.938-16.418,53.242-20.164,65.528-1.503,5.616,8.531,3.904,21.093-2.831,28.925-11.961,13.906-39.298,12.359-53.393-.751-6.547-6.089-13.594-17.796-9.303-26.671Z" fill="#fff" stroke="#231f20" stroke-miterlimit="10"/>
      <g>
        <path d="M119.45,38.039c-1.087,0-1.599.815-1.56,2.031.296-.528.824-.799,1.527-.799,1.12,0,1.807.695,1.807,1.791,0,1.159-.784,1.879-1.975,1.879-1.415,0-2.279-1.007-2.279-2.727,0-1.791.936-2.958,2.415-2.958.551,0,1.215.168,1.671.424l-.368.711c-.344-.224-.815-.352-1.239-.352ZM118.043,41.086c-.008.488.352,1.047,1.159,1.047.68,0,1.144-.4,1.144-1.08,0-.64-.424-1.039-1.104-1.039-.76,0-1.208.496-1.199,1.071Z"/>
        <path d="M124.657,37.296l-1.855,3.382h1.719l-.008-1.319h.879l.008,1.319h.824v.848h-.832v1.375h-.879v-1.375h-2.727v-.704l1.959-3.526h.911Z"/>
      </g>
      <g>
        <path d="M135.642,38.039c-1.087,0-1.599.815-1.56,2.031.296-.528.824-.799,1.527-.799,1.12,0,1.807.695,1.807,1.791,0,1.159-.784,1.879-1.975,1.879-1.415,0-2.279-1.007-2.279-2.727,0-1.791.936-2.958,2.415-2.958.551,0,1.215.168,1.671.424l-.368.711c-.344-.224-.815-.352-1.239-.352ZM134.234,41.086c-.008.488.352,1.047,1.159,1.047.68,0,1.144-.4,1.144-1.08,0-.64-.424-1.039-1.104-1.039-.76,0-1.208.496-1.199,1.071Z"/>
        <path d="M140.706,37.296v5.605h-.944v-4.757h-1.207v-.848h2.151Z"/>
      </g>
      <g>
        <path d="M151.833,38.039c-1.087,0-1.599.815-1.56,2.031.296-.528.824-.799,1.527-.799,1.12,0,1.808.695,1.808,1.791,0,1.159-.784,1.879-1.976,1.879-1.415,0-2.278-1.007-2.278-2.727,0-1.791.936-2.958,2.415-2.958.551,0,1.215.168,1.671.424l-.368.711c-.344-.224-.815-.352-1.239-.352ZM150.426,41.086c-.008.488.352,1.047,1.159,1.047.68,0,1.144-.4,1.144-1.08,0-.64-.424-1.039-1.104-1.039-.76,0-1.207.496-1.199,1.071Z"/>
        <path d="M158.296,41.166c0,1.047-.848,1.775-2.198,1.775-.744,0-1.52-.24-2.031-.608l.392-.768c.44.376,1.008.584,1.575.584.848,0,1.344-.384,1.344-.968,0-.607-.504-.919-1.359-.919h-.815v-.543l1.639-1.575h-2.494l-.008-.839h3.678v.591l-1.799,1.735.327.024c1.048.088,1.751.624,1.751,1.511Z"/>
      </g>
      <g>
        <path d="M136.004,64.723c0-.456-.368-.72-.983-.72-.504,0-1.096.264-1.575.696l-.384-.728c.624-.496,1.351-.8,2.087-.8,1.095,0,1.839.552,1.839,1.416,0,.56-.439,1.191-1.055,1.831l-1.535,1.551h2.862v.848h-4.102v-.696l2.135-2.207c.423-.424.711-.872.711-1.191Z"/>
        <path d="M140.82,63.212l-1.855,3.382h1.719l-.008-1.319h.879l.008,1.319h.824v.848h-.832v1.375h-.879v-1.375h-2.727v-.704l1.959-3.526h.911Z"/>
      </g>
      <g>
        <path d="M118.875,63.212l-1.855,3.382h1.719l-.008-1.319h.879l.008,1.319h.824v.848h-.832v1.375h-.879v-1.375h-2.727v-.704l1.959-3.526h.911Z"/>
        <path d="M125.315,63.212v.72l-2.359,4.885h-1l2.311-4.757h-2.367l-.008.784h-.839v-1.631h4.262Z"/>
      </g>
      <g>
        <path d="M120.196,96.173v5.605h-.944v-4.757h-1.207v-.848h2.151Z"/>
        <path d="M126.779,96.173v.72l-2.359,4.885h-1l2.311-4.757h-2.367l-.008.784h-.839v-1.631h4.262Z"/>
      </g>
      <g>
        <path d="M119.893,121.785c-1.087,0-1.599.815-1.56,2.031.296-.528.824-.799,1.527-.799,1.12,0,1.807.695,1.807,1.791,0,1.159-.784,1.879-1.975,1.879-1.415,0-2.279-1.007-2.279-2.727,0-1.791.936-2.958,2.415-2.958.551,0,1.215.168,1.671.424l-.368.711c-.344-.224-.815-.352-1.239-.352ZM118.485,124.831c-.008.488.352,1.047,1.159,1.047.68,0,1.144-.4,1.144-1.08,0-.64-.424-1.039-1.104-1.039-.76,0-1.208.496-1.199,1.071Z"/>
        <path d="M125.22,122.552c0-.456-.368-.72-.983-.72-.504,0-1.095.264-1.575.696l-.384-.728c.624-.496,1.351-.8,2.087-.8,1.095,0,1.839.552,1.839,1.416,0,.56-.44,1.191-1.055,1.831l-1.535,1.551h2.862v.848h-4.102v-.696l2.135-2.207c.424-.424.711-.872.711-1.191Z"/>
      </g>
      <g>
        <path d="M136.324,122.552c0-.456-.368-.72-.983-.72-.504,0-1.096.264-1.575.696l-.384-.728c.624-.496,1.351-.8,2.087-.8,1.095,0,1.839.552,1.839,1.416,0,.56-.439,1.191-1.055,1.831l-1.535,1.551h2.862v.848h-4.102v-.696l2.135-2.207c.423-.424.711-.872.711-1.191Z"/>
        <path d="M142.395,124.911c0,1.047-.848,1.775-2.199,1.775-.744,0-1.519-.24-2.031-.608l.392-.768c.44.376,1.008.584,1.575.584.848,0,1.343-.384,1.343-.968,0-.607-.503-.919-1.359-.919h-.815v-.543l1.639-1.575h-2.495l-.008-.839h3.678v.591l-1.799,1.735.328.024c1.047.088,1.751.624,1.751,1.511Z"/>
      </g>
      <g>
        <path d="M151.524,123.096c1.271,0,2.087.719,2.087,1.695,0,1.144-.848,1.887-2.159,1.887-.688,0-1.495-.256-2.07-.64l.384-.768c.472.375,1.056.591,1.583.591.783,0,1.255-.384,1.255-1.007,0-.576-.472-.928-1.239-.928-.359,0-1.143.032-1.543.08v-2.966h3.55v.848h-2.678v1.215c.247-.008.615-.008.831-.008Z"/>
        <path d="M156.907,121.785c-1.087,0-1.599.815-1.559,2.031.295-.528.823-.799,1.526-.799,1.12,0,1.808.695,1.808,1.791,0,1.159-.784,1.879-1.976,1.879-1.415,0-2.278-1.007-2.278-2.727,0-1.791.936-2.958,2.415-2.958.552,0,1.215.168,1.671.424l-.368.711c-.344-.224-.815-.352-1.239-.352ZM155.5,124.831c-.008.488.352,1.047,1.159,1.047.68,0,1.144-.4,1.144-1.08,0-.64-.424-1.039-1.104-1.039-.76,0-1.207.496-1.199,1.071Z"/>
      </g>
      <g>
        <path d="M158.022,137.519c0,1.047-.847,1.775-2.198,1.775-.744,0-1.52-.24-2.031-.608l.392-.768c.44.376,1.008.584,1.575.584.848,0,1.344-.384,1.344-.968,0-.607-.504-.919-1.359-.919h-.815v-.543l1.639-1.575h-2.494l-.008-.839h3.678v.591l-1.799,1.735.327.024c1.048.088,1.751.624,1.751,1.511Z"/>
        <path d="M160.984,135.704c1.271,0,2.087.719,2.087,1.695,0,1.144-.848,1.887-2.159,1.887-.688,0-1.495-.256-2.071-.64l.384-.768c.472.375,1.056.591,1.583.591.784,0,1.256-.384,1.256-1.007,0-.576-.472-.928-1.239-.928-.36,0-1.144.032-1.543.08v-2.966h3.55v.848h-2.679v1.215c.248-.008.616-.008.832-.008Z"/>
      </g>
      <g>
        <path d="M156.622,148.555v5.605h-.943v-4.757h-1.207v-.848h2.15Z"/>
        <path d="M161.822,150.066c0-.456-.368-.72-.983-.72-.504,0-1.096.264-1.575.696l-.384-.728c.623-.496,1.351-.8,2.087-.8,1.095,0,1.839.552,1.839,1.416,0,.56-.44,1.191-1.056,1.831l-1.535,1.551h2.862v.848h-4.102v-.696l2.135-2.207c.424-.424.712-.872.712-1.191Z"/>
      </g>
      <g>
        <path d="M156.766,166.083l-1.854,3.382h1.719l-.008-1.319h.88l.008,1.319h.823v.848h-.831v1.375h-.88v-1.375h-2.727v-.704l1.959-3.526h.911Z"/>
        <path d="M160.983,168.138c1.271,0,2.087.719,2.087,1.695,0,1.144-.848,1.887-2.159,1.887-.688,0-1.495-.256-2.07-.64l.384-.768c.472.375,1.056.591,1.583.591.783,0,1.255-.384,1.255-1.007,0-.576-.472-.928-1.239-.928-.359,0-1.144.032-1.543.08v-2.966h3.55v.848h-2.678v1.215c.247-.008.615-.008.831-.008Z"/>
      </g>
      <g>
        <path d="M152.879,181.96c0,1.047-.848,1.775-2.199,1.775-.743,0-1.519-.24-2.03-.608l.392-.768c.439.376,1.007.584,1.575.584.848,0,1.343-.384,1.343-.968,0-.607-.504-.919-1.359-.919h-.815v-.543l1.64-1.575h-2.495l-.008-.839h3.678v.591l-1.799,1.735.328.024c1.047.088,1.751.624,1.751,1.511Z"/>
        <path d="M157.815,181.96c0,1.047-.848,1.775-2.198,1.775-.744,0-1.52-.24-2.031-.608l.392-.768c.44.376,1.008.584,1.575.584.848,0,1.344-.384,1.344-.968,0-.607-.504-.919-1.359-.919h-.815v-.543l1.639-1.575h-2.494l-.008-.839h3.678v.591l-1.799,1.735.327.024c1.048.088,1.751.624,1.751,1.511Z"/>
      </g>
      <path d="M139.431,179.505c0,.536-.312.967-.815,1.191.671.232,1.095.752,1.095,1.423,0,1-.824,1.615-2.135,1.615s-2.135-.608-2.135-1.599c0-.68.439-1.208,1.135-1.439-.536-.24-.863-.688-.863-1.231,0-.872.719-1.416,1.854-1.416,1.151,0,1.863.552,1.863,1.456ZM136.329,182.032c0,.616.456.959,1.248.959.784,0,1.247-.344,1.247-.952,0-.583-.463-.927-1.255-.927-.783,0-1.239.336-1.239.919ZM136.513,179.553c0,.52.392.823,1.063.823s1.055-.304,1.055-.823-.384-.824-1.055-.824-1.063.304-1.063.824Z"/>
      <path d="M138.44,207.29v5.605h-.944v-4.758h-1.207v-.848h2.151Z"/>
      <g>
        <path d="M151.649,207.33v5.605h-.944v-4.758h-1.207v-.848h2.151Z"/>
        <path d="M157.984,211.2c0,1.048-.848,1.775-2.199,1.775-.743,0-1.519-.24-2.03-.608l.392-.768c.439.376,1.008.584,1.575.584.848,0,1.343-.384,1.343-.968,0-.607-.503-.919-1.359-.919h-.815v-.544l1.64-1.575h-2.495l-.008-.839h3.678v.591l-1.799,1.735.328.024c1.047.088,1.751.623,1.751,1.511Z"/>
      </g>
      <g>
        <path d="M161.248,226.566c0-.455-.368-.72-.983-.72-.504,0-1.096.265-1.575.696l-.384-.728c.623-.496,1.351-.8,2.087-.8,1.095,0,1.839.552,1.839,1.415,0,.56-.439,1.191-1.056,1.831l-1.535,1.551h2.862v.848h-4.102v-.695l2.135-2.207c.424-.424.712-.871.712-1.191Z"/>
        <path d="M165.345,227.109c1.271,0,2.087.72,2.087,1.695,0,1.144-.848,1.887-2.159,1.887-.688,0-1.495-.256-2.071-.64l.384-.768c.472.376,1.056.592,1.583.592.784,0,1.256-.384,1.256-1.008,0-.575-.472-.928-1.239-.928-.36,0-1.144.032-1.543.08v-2.966h3.55v.848h-2.679v1.215c.248-.008.616-.008.832-.008Z"/>
      </g>
      <g>
        <path d="M109.292,217.484v5.605h-.944v-4.758h-1.207v-.848h2.151Z"/>
        <path d="M115.803,220.283c0,1.823-.751,2.83-2.103,2.83-1.359,0-2.111-1.007-2.111-2.83s.751-2.822,2.111-2.822c1.351,0,2.103,1.007,2.103,2.822ZM112.525,220.283c0,1.423.392,2.095,1.175,2.095.775,0,1.167-.672,1.167-2.095s-.392-2.087-1.167-2.087c-.784,0-1.175.664-1.175,2.087Z"/>
      </g>
      <g>
        <path d="M119.961,246.839v5.604h-.944v-4.757h-1.207v-.848h2.151Z"/>
        <path d="M124.321,248.894c1.271,0,2.087.719,2.087,1.695,0,1.143-.848,1.887-2.159,1.887-.688,0-1.495-.256-2.071-.64l.384-.768c.472.376,1.056.591,1.583.591.784,0,1.255-.383,1.255-1.007,0-.575-.472-.928-1.239-.928-.36,0-1.144.032-1.543.08v-2.966h3.55v.848h-2.678v1.215c.248-.008.616-.008.832-.008Z"/>
      </g>
      <path d="M138.82,248.35c0-.455-.368-.72-.983-.72-.504,0-1.096.265-1.575.696l-.384-.728c.624-.496,1.351-.8,2.087-.8,1.095,0,1.839.552,1.839,1.415,0,.56-.439,1.191-1.055,1.831l-1.535,1.551h2.862v.848h-4.102v-.695l2.135-2.207c.423-.424.711-.871.711-1.191Z"/>
      <g>
        <path d="M151.792,246.839l-1.855,3.382h1.72l-.008-1.319h.879l.008,1.319h.824v.848h-.832v1.375h-.879v-1.375h-2.727v-.704l1.959-3.525h.911Z"/>
        <path d="M156.456,247.582c-1.087,0-1.599.815-1.559,2.031.295-.528.823-.8,1.526-.8,1.12,0,1.808.695,1.808,1.791,0,1.159-.784,1.879-1.976,1.879-1.415,0-2.278-1.007-2.278-2.727,0-1.791.936-2.958,2.415-2.958.552,0,1.215.168,1.671.424l-.368.711c-.344-.224-.815-.352-1.239-.352ZM155.049,250.629c-.008.487.352,1.047,1.159,1.047.68,0,1.144-.399,1.144-1.079,0-.64-.424-1.039-1.104-1.039-.76,0-1.207.495-1.199,1.071Z"/>
      </g>
      <g>
        <path d="M152.351,285.339c0-.456-.367-.72-.983-.72-.504,0-1.096.264-1.575.695l-.384-.728c.624-.495,1.352-.8,2.087-.8,1.096,0,1.839.552,1.839,1.416,0,.56-.439,1.191-1.055,1.831l-1.535,1.551h2.862v.848h-4.103v-.696l2.136-2.206c.423-.424.711-.872.711-1.191Z"/>
        <path d="M156.111,288.689c1.079,0,1.583-.815,1.552-2.03-.296.527-.816.799-1.52.799-1.111,0-1.791-.703-1.791-1.791,0-1.159.775-1.879,1.959-1.879,1.407,0,2.271,1.008,2.271,2.727,0,1.791-.936,2.959-2.406,2.959-.552,0-1.208-.168-1.663-.424l.367-.712c.344.224.808.352,1.231.352ZM155.233,285.675c0,.64.415,1.039,1.087,1.039.76,0,1.199-.496,1.191-1.071.008-.488-.344-1.048-1.151-1.048-.672,0-1.127.4-1.127,1.08Z"/>
      </g>
      <g>
        <path d="M135.544,283.827v5.605h-.944v-4.758h-1.207v-.848h2.151Z"/>
        <path d="M140.623,283.827l-1.855,3.383h1.719l-.008-1.319h.879l.008,1.319h.824v.848h-.832v1.375h-.879v-1.375h-2.727v-.704l1.959-3.526h.911Z"/>
      </g>
      <path d="M121.662,285.883c1.271,0,2.086.72,2.086,1.695,0,1.144-.847,1.887-2.159,1.887-.688,0-1.495-.256-2.071-.64l.384-.768c.472.376,1.056.592,1.583.592.784,0,1.255-.384,1.255-1.008,0-.575-.472-.928-1.239-.928-.36,0-1.143.032-1.543.08v-2.966h3.55v.848h-2.678v1.215c.248-.008.615-.008.832-.008Z"/>
      <g>
        <path d="M113.535,299.7c0,1.047-.847,1.774-2.199,1.774-.744,0-1.519-.239-2.031-.607l.392-.768c.44.376,1.007.584,1.575.584.848,0,1.343-.384,1.343-.968,0-.607-.504-.92-1.359-.92h-.815v-.543l1.639-1.575h-2.495l-.008-.84h3.678v.592l-1.799,1.735.328.023c1.047.088,1.751.624,1.751,1.512Z"/>
        <path d="M117.215,295.83l-1.855,3.382h1.719l-.008-1.319h.879l.008,1.319h.824v.848h-.832v1.375h-.879v-1.375h-2.727v-.704l1.959-3.525h.911Z"/>
      </g>
      <g>
        <path d="M11.105,290.222l-1.855,3.382h1.719l-.008-1.319h.879l.008,1.319h.824v.848h-.832v1.375h-.879v-1.375h-2.727v-.704l1.959-3.525h.911Z"/>
        <path d="M17.225,291.637c0,.536-.312.968-.815,1.191.671.231,1.095.752,1.095,1.423,0,1-.824,1.615-2.135,1.615s-2.135-.607-2.135-1.599c0-.68.439-1.208,1.135-1.439-.536-.24-.864-.688-.864-1.231,0-.871.72-1.415,1.855-1.415,1.151,0,1.863.552,1.863,1.455ZM14.122,294.163c0,.616.456.96,1.248.96.784,0,1.247-.344,1.247-.952,0-.583-.463-.927-1.255-.927-.784,0-1.24.336-1.24.919ZM14.306,291.685c0,.52.392.823,1.063.823s1.055-.304,1.055-.823-.384-.823-1.055-.823-1.063.304-1.063.823Z"/>
      </g>
      <g>
        <path d="M19.15,331.323v5.605h-.944v-4.758h-1.207v-.848h2.151Z"/>
        <path d="M25.414,332.739c0,.535-.312.967-.815,1.19.671.232,1.095.752,1.095,1.424,0,.999-.824,1.615-2.135,1.615s-2.135-.608-2.135-1.6c0-.68.439-1.207,1.135-1.439-.536-.239-.864-.688-.864-1.23,0-.872.72-1.416,1.855-1.416,1.151,0,1.863.552,1.863,1.456ZM22.311,335.266c0,.615.456.959,1.248.959.784,0,1.247-.344,1.247-.951,0-.584-.463-.928-1.255-.928-.784,0-1.24.336-1.24.92ZM22.495,332.787c0,.52.392.823,1.063.823s1.055-.304,1.055-.823-.384-.824-1.055-.824-1.063.304-1.063.824Z"/>
      </g>
      <g>
        <path d="M37.591,338.483c0-.455-.368-.72-.983-.72-.504,0-1.096.265-1.575.696l-.384-.728c.624-.496,1.351-.8,2.087-.8,1.095,0,1.839.552,1.839,1.415,0,.56-.439,1.191-1.055,1.831l-1.535,1.551h2.862v.848h-4.102v-.695l2.135-2.207c.423-.424.711-.871.711-1.191Z"/>
        <path d="M43.59,338.387c0,.536-.312.968-.815,1.191.671.231,1.095.752,1.095,1.423,0,1-.824,1.615-2.135,1.615s-2.135-.607-2.135-1.599c0-.68.439-1.208,1.135-1.439-.536-.24-.864-.688-.864-1.231,0-.871.72-1.415,1.855-1.415,1.151,0,1.863.552,1.863,1.455ZM40.488,340.913c0,.616.456.96,1.248.96.784,0,1.247-.344,1.247-.952,0-.583-.463-.927-1.255-.927-.784,0-1.24.336-1.24.919ZM40.672,338.435c0,.52.392.823,1.063.823s1.055-.304,1.055-.823-.384-.823-1.055-.823-1.063.304-1.063.823Z"/>
      </g>
      <g>
        <path d="M51.63,335.781c0,1.047-.847,1.774-2.199,1.774-.744,0-1.519-.239-2.031-.607l.392-.768c.44.376,1.007.584,1.575.584.848,0,1.343-.384,1.343-.968,0-.607-.504-.92-1.359-.92h-.815v-.543l1.639-1.575h-2.495l-.008-.84h3.678v.592l-1.799,1.735.328.023c1.047.088,1.751.624,1.751,1.512Z"/>
        <path d="M55.431,333.422c0-.455-.368-.72-.983-.72-.504,0-1.095.265-1.575.696l-.384-.728c.624-.496,1.351-.8,2.087-.8,1.095,0,1.839.552,1.839,1.415,0,.56-.44,1.191-1.055,1.831l-1.535,1.551h2.862v.848h-4.102v-.695l2.135-2.207c.424-.424.711-.871.711-1.191Z"/>
      </g>
      <g>
        <path d="M27.168,297.14c1.271,0,2.086.72,2.086,1.695,0,1.144-.847,1.887-2.159,1.887-.688,0-1.495-.256-2.071-.64l.384-.768c.472.376,1.056.592,1.583.592.784,0,1.255-.384,1.255-1.008,0-.575-.472-.928-1.239-.928-.36,0-1.143.032-1.543.08v-2.966h3.55v.848h-2.678v1.215c.248-.008.615-.008.832-.008Z"/>
        <path d="M34.326,295.085v.72l-2.359,4.885h-1l2.311-4.757h-2.367l-.008.783h-.839v-1.631h4.262Z"/>
      </g>
      <g>
        <path d="M60.32,323.498c1.271,0,2.086.72,2.086,1.695,0,1.144-.847,1.887-2.159,1.887-.688,0-1.495-.256-2.071-.64l.384-.768c.472.376,1.056.592,1.583.592.784,0,1.255-.384,1.255-1.008,0-.575-.472-.928-1.239-.928-.36,0-1.143.032-1.543.08v-2.966h3.55v.848h-2.678v1.215c.248-.008.615-.008.832-.008Z"/>
        <path d="M67.406,324.241c0,1.823-.751,2.831-2.103,2.831-1.359,0-2.111-1.008-2.111-2.831s.751-2.822,2.111-2.822c1.351,0,2.103,1.008,2.103,2.822ZM64.129,324.241c0,1.424.392,2.096,1.175,2.096.775,0,1.167-.672,1.167-2.096s-.392-2.087-1.167-2.087c-.784,0-1.175.664-1.175,2.087Z"/>
      </g>
      <g>
        <path d="M112.567,322.356c0-.455-.368-.72-.983-.72-.504,0-1.096.265-1.575.696l-.384-.728c.624-.496,1.351-.8,2.087-.8,1.095,0,1.839.552,1.839,1.415,0,.56-.439,1.191-1.055,1.831l-1.535,1.551h2.862v.848h-4.102v-.695l2.135-2.207c.423-.424.711-.871.711-1.191Z"/>
        <path d="M118.887,320.845v.72l-2.359,4.885h-1l2.311-4.757h-2.367l-.008.783h-.839v-1.631h4.262Z"/>
      </g>
      <g>
        <path d="M43.527,300.654l-1.855,3.383h1.719l-.008-1.319h.879l.008,1.319h.824v.848h-.832v1.375h-.879v-1.375h-2.727v-.704l1.959-3.526h.911Z"/>
        <path d="M48.463,300.654l-1.855,3.383h1.719l-.008-1.319h.879l.008,1.319h.824v.848h-.832v1.375h-.879v-1.375h-2.727v-.704l1.959-3.526h.911Z"/>
      </g>
      <g>
        <path d="M119.413,335.859l-1.855,3.382h1.719l-.008-1.319h.879l.008,1.319h.824v.848h-.832v1.375h-.879v-1.375h-2.727v-.704l1.959-3.525h.911Z"/>
        <path d="M124.469,337.37c0-.455-.368-.72-.983-.72-.504,0-1.095.265-1.575.696l-.384-.728c.624-.496,1.351-.8,2.087-.8,1.095,0,1.839.552,1.839,1.415,0,.56-.44,1.191-1.055,1.831l-1.535,1.551h2.862v.848h-4.102v-.695l2.135-2.207c.424-.424.711-.871.711-1.191Z"/>
      </g>
      <path d="M139.675,339.729c0,1.048-.847,1.775-2.199,1.775-.744,0-1.519-.24-2.031-.608l.392-.768c.44.376,1.007.584,1.575.584.848,0,1.343-.384,1.343-.968,0-.607-.504-.919-1.359-.919h-.815v-.544l1.639-1.575h-2.495l-.008-.839h3.678v.591l-1.799,1.735.328.024c1.047.088,1.751.623,1.751,1.511Z"/>
      <path d="M153.405,340.721c1.079,0,1.583-.815,1.551-2.031-.296.528-.815.8-1.52.8-1.111,0-1.791-.704-1.791-1.791,0-1.159.776-1.879,1.959-1.879,1.407,0,2.271,1.007,2.271,2.727,0,1.791-.936,2.958-2.407,2.958-.552,0-1.207-.168-1.663-.424l.368-.711c.344.224.808.352,1.231.352ZM152.525,337.706c0,.64.416,1.039,1.088,1.039.759,0,1.199-.495,1.19-1.071.009-.487-.344-1.047-1.151-1.047-.671,0-1.127.399-1.127,1.079Z"/>
      <g>
        <path d="M151.512,362.722c1.271,0,2.086.72,2.086,1.695,0,1.144-.847,1.887-2.158,1.887-.688,0-1.495-.256-2.071-.639l.384-.768c.472.375,1.056.591,1.583.591.784,0,1.256-.384,1.256-1.007,0-.576-.472-.928-1.239-.928-.36,0-1.144.031-1.543.08v-2.967h3.55v.848h-2.679v1.215c.248-.008.615-.008.832-.008Z"/>
        <path d="M157.287,362.179c0-.456-.368-.721-.983-.721-.504,0-1.096.265-1.575.696l-.384-.728c.623-.496,1.351-.8,2.087-.8,1.095,0,1.839.552,1.839,1.415,0,.561-.44,1.191-1.056,1.832l-1.535,1.551h2.862v.848h-4.102v-.696l2.135-2.206c.424-.424.712-.872.712-1.191Z"/>
      </g>
      <g>
        <path d="M160.181,373.083v5.605h-.943v-4.758h-1.207v-.848h2.15Z"/>
        <path d="M164.205,377.944c1.079,0,1.583-.815,1.552-2.03-.296.527-.816.799-1.52.799-1.111,0-1.791-.703-1.791-1.791,0-1.159.775-1.879,1.959-1.879,1.407,0,2.271,1.008,2.271,2.727,0,1.791-.936,2.959-2.406,2.959-.552,0-1.208-.168-1.663-.424l.367-.712c.344.224.808.352,1.231.352ZM163.326,374.931c0,.64.415,1.039,1.087,1.039.76,0,1.199-.496,1.191-1.071.008-.488-.344-1.048-1.151-1.048-.672,0-1.127.4-1.127,1.08Z"/>
      </g>
      <g>
        <path d="M161.749,393.848c0,1.047-.848,1.774-2.199,1.774-.743,0-1.519-.239-2.03-.607l.392-.768c.439.376,1.007.584,1.575.584.848,0,1.343-.384,1.343-.968,0-.607-.504-.92-1.359-.92h-.815v-.543l1.64-1.575h-2.495l-.008-.84h3.678v.592l-1.799,1.735.328.023c1.047.088,1.751.624,1.751,1.512Z"/>
        <path d="M164.374,394.839c1.079,0,1.583-.815,1.552-2.031-.296.528-.816.8-1.52.8-1.111,0-1.791-.704-1.791-1.791,0-1.159.775-1.879,1.959-1.879,1.407,0,2.271,1.007,2.271,2.727,0,1.791-.936,2.958-2.406,2.958-.552,0-1.208-.168-1.663-.424l.367-.711c.344.224.808.352,1.231.352ZM163.495,391.824c0,.64.415,1.039,1.087,1.039.76,0,1.199-.495,1.191-1.071.008-.487-.344-1.047-1.151-1.047-.672,0-1.127.399-1.127,1.079Z"/>
      </g>
      <g>
        <path d="M160.596,405.977l-1.854,3.383h1.719l-.008-1.319h.88l.008,1.319h.823v.848h-.831v1.375h-.88v-1.375h-2.727v-.704l1.959-3.526h.911Z"/>
        <path d="M165.389,405.977v5.605h-.944v-4.758h-1.207v-.848h2.151Z"/>
      </g>
      <g>
        <path d="M111.188,409.116c1.271,0,2.086.72,2.086,1.695,0,1.144-.847,1.887-2.159,1.887-.688,0-1.495-.256-2.071-.64l.384-.768c.472.376,1.056.592,1.583.592.784,0,1.255-.384,1.255-1.008,0-.575-.472-.928-1.239-.928-.36,0-1.143.032-1.543.08v-2.966h3.55v.848h-2.678v1.215c.248-.008.615-.008.832-.008Z"/>
        <path d="M118.026,408.477c0,.536-.312.968-.815,1.191.671.231,1.095.752,1.095,1.423,0,1-.824,1.615-2.135,1.615s-2.135-.607-2.135-1.599c0-.68.439-1.208,1.135-1.439-.536-.24-.864-.688-.864-1.231,0-.871.72-1.415,1.855-1.415,1.151,0,1.863.552,1.863,1.455ZM114.924,411.003c0,.616.456.96,1.248.96.784,0,1.247-.344,1.247-.952,0-.583-.463-.927-1.255-.927-.784,0-1.24.336-1.24.919ZM115.108,408.525c0,.52.392.823,1.063.823s1.055-.304,1.055-.823-.384-.823-1.055-.823-1.063.304-1.063.823Z"/>
      </g>
      <g>
        <path d="M113.162,395.061c0,1.048-.847,1.775-2.199,1.775-.744,0-1.519-.24-2.031-.608l.392-.768c.44.376,1.007.584,1.575.584.848,0,1.343-.384,1.343-.968,0-.607-.504-.919-1.359-.919h-.815v-.544l1.639-1.575h-2.495l-.008-.839h3.678v.591l-1.799,1.735.328.024c1.047.088,1.751.623,1.751,1.511Z"/>
        <path d="M118.026,392.607c0,.535-.312.967-.815,1.19.671.232,1.095.752,1.095,1.424,0,.999-.824,1.615-2.135,1.615s-2.135-.608-2.135-1.6c0-.68.439-1.207,1.135-1.439-.536-.239-.864-.688-.864-1.23,0-.872.72-1.416,1.855-1.416,1.151,0,1.863.552,1.863,1.456ZM114.924,395.133c0,.615.456.959,1.248.959.784,0,1.247-.344,1.247-.951,0-.584-.463-.928-1.255-.928-.784,0-1.24.336-1.24.92ZM115.108,392.654c0,.52.392.823,1.063.823s1.055-.304,1.055-.823-.384-.824-1.055-.824-1.063.304-1.063.824Z"/>
      </g>
      <g>
        <path d="M111.188,376.942c1.271,0,2.086.72,2.086,1.695,0,1.144-.847,1.887-2.159,1.887-.688,0-1.495-.256-2.071-.64l.384-.768c.472.376,1.056.592,1.583.592.784,0,1.255-.384,1.255-1.008,0-.575-.472-.928-1.239-.928-.36,0-1.143.032-1.543.08v-2.966h3.55v.848h-2.678v1.215c.248-.008.615-.008.832-.008Z"/>
        <path d="M116.843,374.887l-1.855,3.382h1.719l-.008-1.319h.879l.008,1.319h.824v.848h-.832v1.375h-.879v-1.375h-2.727v-.704l1.959-3.525h.911Z"/>
      </g>
      <g>
        <path d="M135.703,361.491c-1.087,0-1.599.815-1.56,2.031.296-.528.824-.8,1.527-.8,1.12,0,1.807.695,1.807,1.791,0,1.159-.784,1.879-1.975,1.879-1.415,0-2.279-1.007-2.279-2.727,0-1.791.936-2.958,2.415-2.958.551,0,1.215.168,1.671.424l-.368.711c-.344-.224-.815-.352-1.239-.352ZM134.296,364.538c-.008.487.352,1.047,1.159,1.047.68,0,1.144-.399,1.144-1.079,0-.64-.424-1.039-1.104-1.039-.76,0-1.208.495-1.199,1.071Z"/>
        <path d="M142.341,363.546c0,1.823-.751,2.831-2.103,2.831-1.359,0-2.111-1.008-2.111-2.831s.751-2.822,2.111-2.822c1.351,0,2.103,1.008,2.103,2.822ZM139.064,363.546c0,1.424.392,2.096,1.175,2.096.775,0,1.167-.672,1.167-2.096s-.392-2.087-1.167-2.087c-.784,0-1.175.664-1.175,2.087Z"/>
      </g>
      <g>
        <path d="M118.965,362.764c1.271,0,2.086.719,2.086,1.694,0,1.144-.847,1.888-2.159,1.888-.688,0-1.495-.256-2.071-.64l.384-.768c.472.375,1.056.591,1.583.591.784,0,1.255-.384,1.255-1.007,0-.576-.472-.928-1.239-.928-.36,0-1.143.032-1.543.08v-2.967h3.55v.848h-2.678v1.216c.248-.008.615-.008.832-.008Z"/>
        <path d="M125.876,364.578c0,1.048-.848,1.775-2.199,1.775-.744,0-1.519-.24-2.031-.608l.392-.768c.44.376,1.008.584,1.575.584.848,0,1.343-.384,1.343-.968,0-.607-.503-.919-1.359-.919h-.815v-.544l1.639-1.575h-2.495l-.008-.839h3.678v.591l-1.799,1.735.328.024c1.047.088,1.751.623,1.751,1.511Z"/>
      </g>
      <g>
        <path d="M194.611,253.418c1.271,0,2.086.72,2.086,1.695,0,1.144-.847,1.887-2.158,1.887-.688,0-1.495-.256-2.071-.64l.384-.768c.472.376,1.056.592,1.583.592.784,0,1.256-.384,1.256-1.008,0-.575-.472-.928-1.239-.928-.36,0-1.144.032-1.543.08v-2.966h3.55v.848h-2.679v1.215c.248-.008.615-.008.832-.008Z"/>
        <path d="M200.123,251.363v5.604h-.944v-4.757h-1.207v-.848h2.151Z"/>
      </g>
      <g>
        <path d="M210.956,246.521c0-.456-.367-.72-.983-.72-.504,0-1.096.264-1.575.695l-.384-.728c.624-.495,1.352-.8,2.087-.8,1.096,0,1.839.552,1.839,1.416,0,.56-.439,1.191-1.055,1.831l-1.535,1.551h2.862v.848h-4.103v-.696l2.136-2.206c.423-.424.711-.872.711-1.191Z"/>
        <path d="M215.629,245.009v5.605h-.944v-4.758h-1.207v-.848h2.151Z"/>
      </g>
      <g>
        <path d="M184.78,268.942c0-.455-.368-.72-.983-.72-.504,0-1.096.265-1.575.696l-.384-.728c.623-.496,1.351-.8,2.087-.8,1.095,0,1.839.552,1.839,1.415,0,.56-.439,1.191-1.056,1.831l-1.535,1.551h2.862v.848h-4.102v-.695l2.135-2.207c.424-.424.712-.871.712-1.191Z"/>
        <path d="M189.324,268.175c-1.087,0-1.599.815-1.559,2.031.295-.528.823-.8,1.526-.8,1.12,0,1.808.695,1.808,1.791,0,1.159-.784,1.879-1.976,1.879-1.415,0-2.278-1.007-2.278-2.727,0-1.791.936-2.958,2.415-2.958.552,0,1.215.168,1.671.424l-.368.711c-.344-.224-.815-.352-1.239-.352ZM187.917,271.222c-.008.487.352,1.047,1.159,1.047.68,0,1.144-.399,1.144-1.079,0-.64-.424-1.039-1.104-1.039-.76,0-1.207.495-1.199,1.071Z"/>
      </g>
      <g>
        <path d="M218.86,274.29l-1.854,3.383h1.719l-.008-1.319h.88l.008,1.319h.823v.848h-.831v1.375h-.88v-1.375h-2.727v-.704l1.959-3.526h.911Z"/>
        <path d="M225.228,277.089c0,1.823-.751,2.83-2.103,2.83-1.359,0-2.11-1.007-2.11-2.83s.751-2.822,2.11-2.822c1.352,0,2.103,1.007,2.103,2.822ZM221.95,277.089c0,1.423.392,2.095,1.175,2.095.775,0,1.168-.672,1.168-2.095s-.393-2.087-1.168-2.087c-.783,0-1.175.664-1.175,2.087Z"/>
      </g>
      <g>
        <path d="M232.58,303.2c0,1.048-.847,1.775-2.198,1.775-.744,0-1.52-.24-2.031-.608l.392-.768c.44.376,1.008.584,1.575.584.848,0,1.344-.384,1.344-.968,0-.607-.504-.919-1.359-.919h-.815v-.544l1.639-1.575h-2.494l-.008-.839h3.678v.591l-1.799,1.735.327.024c1.048.088,1.751.623,1.751,1.511Z"/>
        <path d="M237.765,299.33v.72l-2.359,4.886h-.999l2.311-4.758h-2.366l-.009.784h-.839v-1.632h4.262Z"/>
      </g>
      <g>
        <path d="M245.672,294.399c0-.456-.367-.72-.983-.72-.504,0-1.096.264-1.575.695l-.384-.728c.624-.495,1.352-.8,2.087-.8,1.096,0,1.839.552,1.839,1.416,0,.56-.439,1.191-1.055,1.831l-1.535,1.551h2.862v.848h-4.103v-.696l2.136-2.206c.423-.424.711-.872.711-1.191Z"/>
        <path d="M250.609,294.399c0-.456-.368-.72-.983-.72-.504,0-1.096.264-1.575.695l-.384-.728c.623-.495,1.351-.8,2.087-.8,1.095,0,1.839.552,1.839,1.416,0,.56-.44,1.191-1.056,1.831l-1.535,1.551h2.862v.848h-4.102v-.696l2.135-2.206c.424-.424.712-.872.712-1.191Z"/>
      </g>
      <g>
        <path d="M260.978,294.119c0,1.047-.847,1.774-2.198,1.774-.744,0-1.52-.239-2.031-.607l.392-.768c.44.376,1.008.584,1.575.584.848,0,1.344-.384,1.344-.968,0-.607-.504-.92-1.359-.92h-.815v-.543l1.639-1.575h-2.494l-.008-.84h3.678v.592l-1.799,1.735.327.023c1.048.088,1.751.624,1.751,1.512Z"/>
        <path d="M264.387,290.992c-1.087,0-1.599.815-1.559,2.031.295-.528.823-.8,1.526-.8,1.12,0,1.808.695,1.808,1.791,0,1.159-.784,1.879-1.976,1.879-1.415,0-2.278-1.007-2.278-2.727,0-1.791.936-2.958,2.415-2.958.552,0,1.215.168,1.671.424l-.368.711c-.344-.224-.815-.352-1.239-.352ZM262.98,294.039c-.008.487.352,1.047,1.159,1.047.68,0,1.144-.399,1.144-1.079,0-.64-.424-1.039-1.104-1.039-.76,0-1.207.495-1.199,1.071Z"/>
      </g>
      <g>
        <path d="M250.132,337.642c0,1.048-.848,1.775-2.199,1.775-.743,0-1.519-.24-2.03-.608l.392-.768c.439.376,1.007.584,1.575.584.848,0,1.343-.384,1.343-.968,0-.607-.504-.919-1.359-.919h-.815v-.544l1.64-1.575h-2.495l-.008-.839h3.678v.591l-1.799,1.735.328.024c1.047.088,1.751.623,1.751,1.511Z"/>
        <path d="M255.243,336.57c0,1.823-.751,2.83-2.103,2.83-1.359,0-2.11-1.007-2.11-2.83s.751-2.822,2.11-2.822c1.352,0,2.103,1.007,2.103,2.822ZM251.966,336.57c0,1.423.392,2.095,1.175,2.095.775,0,1.168-.672,1.168-2.095s-.393-2.087-1.168-2.087c-.783,0-1.175.664-1.175,2.087Z"/>
      </g>
      <g>
        <path d="M230.774,337.313c1.271,0,2.087.72,2.087,1.695,0,1.144-.848,1.887-2.159,1.887-.688,0-1.495-.256-2.07-.64l.384-.768c.472.376,1.056.592,1.583.592.783,0,1.255-.384,1.255-1.008,0-.575-.472-.928-1.239-.928-.359,0-1.143.032-1.543.08v-2.966h3.55v.848h-2.678v1.215c.247-.008.615-.008.831-.008Z"/>
        <path d="M235.71,337.313c1.271,0,2.087.72,2.087,1.695,0,1.144-.848,1.887-2.159,1.887-.688,0-1.495-.256-2.071-.64l.384-.768c.472.376,1.056.592,1.583.592.784,0,1.256-.384,1.256-1.008,0-.575-.472-.928-1.239-.928-.36,0-1.144.032-1.543.08v-2.966h3.55v.848h-2.679v1.215c.248-.008.616-.008.832-.008Z"/>
      </g>
      <g>
        <path d="M218.859,330.291l-1.854,3.382h1.719l-.008-1.319h.88l.008,1.319h.823v.848h-.831v1.375h-.88v-1.375h-2.727v-.704l1.959-3.525h.911Z"/>
        <path d="M222.74,335.152c1.079,0,1.583-.815,1.552-2.031-.296.528-.816.8-1.52.8-1.111,0-1.791-.704-1.791-1.791,0-1.159.775-1.879,1.959-1.879,1.407,0,2.271,1.007,2.271,2.727,0,1.791-.936,2.958-2.406,2.958-.552,0-1.208-.168-1.663-.424l.367-.711c.344.224.808.352,1.231.352ZM221.861,332.138c0,.64.415,1.039,1.087,1.039.76,0,1.199-.495,1.191-1.071.008-.487-.344-1.047-1.151-1.047-.672,0-1.127.399-1.127,1.079Z"/>
      </g>
      <path d="M210.812,321.549c-1.088,0-1.6.815-1.56,2.03.296-.527.823-.799,1.527-.799,1.119,0,1.807.695,1.807,1.791,0,1.159-.783,1.879-1.975,1.879-1.415,0-2.279-1.008-2.279-2.727,0-1.791.936-2.959,2.415-2.959.552,0,1.216.168,1.671.424l-.367.712c-.344-.224-.815-.352-1.239-.352ZM209.404,324.595c-.009.488.352,1.048,1.159,1.048.68,0,1.144-.4,1.144-1.08,0-.64-.424-1.039-1.104-1.039-.76,0-1.208.496-1.199,1.071Z"/>
      <g>
        <path d="M158.497,322.9c1.271,0,2.087.72,2.087,1.695,0,1.144-.848,1.887-2.159,1.887-.688,0-1.495-.256-2.07-.64l.384-.768c.472.376,1.056.592,1.583.592.783,0,1.255-.384,1.255-1.008,0-.575-.472-.928-1.239-.928-.359,0-1.143.032-1.543.08v-2.966h3.55v.848h-2.678v1.215c.247-.008.615-.008.831-.008Z"/>
        <path d="M163.098,325.706c1.079,0,1.583-.815,1.551-2.031-.296.528-.815.8-1.52.8-1.111,0-1.791-.704-1.791-1.791,0-1.159.776-1.879,1.959-1.879,1.407,0,2.271,1.007,2.271,2.727,0,1.791-.936,2.958-2.407,2.958-.552,0-1.207-.168-1.663-.424l.368-.711c.344.224.808.352,1.231.352ZM162.218,322.692c0,.64.416,1.039,1.088,1.039.759,0,1.199-.495,1.191-1.071.008-.487-.345-1.047-1.151-1.047-.672,0-1.128.399-1.128,1.079Z"/>
      </g>
      <g>
        <path d="M121.192,181.96c0,1.047-.847,1.775-2.199,1.775-.744,0-1.519-.24-2.031-.608l.392-.768c.44.376,1.007.584,1.575.584.848,0,1.343-.384,1.343-.968,0-.607-.504-.919-1.359-.919h-.815v-.543l1.639-1.575h-2.495l-.008-.839h3.678v.591l-1.799,1.735.328.024c1.047.088,1.751.624,1.751,1.511Z"/>
        <path d="M124.729,178.09v5.605h-.944v-4.757h-1.207v-.848h2.151Z"/>
      </g>
      <path d="M123.52,207.33v.72l-2.359,4.885h-1l2.311-4.757h-2.367l-.008.783h-.839v-1.631h4.262Z"/>
      <g>
        <path d="M115.058,152.58c0-.456-.368-.72-.983-.72-.504,0-1.096.264-1.575.696l-.384-.728c.624-.496,1.351-.8,2.087-.8,1.095,0,1.839.552,1.839,1.416,0,.56-.439,1.191-1.055,1.831l-1.535,1.551h2.862v.848h-4.102v-.696l2.135-2.207c.423-.424.711-.872.711-1.191Z"/>
        <path d="M121.305,153.867c0,1.823-.751,2.831-2.103,2.831-1.359,0-2.111-1.007-2.111-2.831s.751-2.822,2.111-2.822c1.351,0,2.103,1.007,2.103,2.822ZM118.027,153.867c0,1.423.392,2.095,1.175,2.095.775,0,1.167-.672,1.167-2.095s-.392-2.087-1.167-2.087c-.784,0-1.175.664-1.175,2.087Z"/>
      </g>
      <g>
        <path d="M114.795,133.649v5.605h-.944v-4.757h-1.207v-.848h2.151Z"/>
        <path d="M119.603,134.392c-1.087,0-1.599.815-1.559,2.031.295-.528.823-.799,1.527-.799,1.12,0,1.807.695,1.807,1.791,0,1.159-.784,1.879-1.975,1.879-1.415,0-2.279-1.007-2.279-2.727,0-1.791.936-2.958,2.415-2.958.552,0,1.215.168,1.671.424l-.368.711c-.344-.224-.816-.352-1.239-.352ZM118.195,137.439c-.008.488.352,1.047,1.159,1.047.68,0,1.144-.4,1.144-1.08,0-.64-.424-1.039-1.104-1.039-.76,0-1.208.496-1.199,1.071Z"/>
      </g>
      <g>
        <path d="M135.508,100.622l-1.855,3.382h1.719l-.008-1.319h.879l.008,1.319h.824v.848h-.832v1.375h-.879v-1.375h-2.727v-.704l1.959-3.526h.911Z"/>
        <path d="M141.699,104.492c0,1.047-.848,1.775-2.199,1.775-.744,0-1.519-.24-2.031-.608l.392-.768c.44.376,1.008.584,1.575.584.848,0,1.343-.384,1.343-.968,0-.607-.503-.919-1.359-.919h-.815v-.543l1.639-1.575h-2.495l-.008-.839h3.678v.591l-1.799,1.735.328.024c1.047.088,1.751.624,1.751,1.511Z"/>
      </g>
      <g>
        <path d="M151.544,96.173v5.605h-.943v-4.757h-1.207v-.848h2.15Z"/>
        <path d="M156.481,96.173v5.605h-.944v-4.757h-1.207v-.848h2.151Z"/>
      </g>
      <path d="M154.681,63.212l-1.855,3.382h1.72l-.008-1.319h.879l.008,1.319h.824v.848h-.832v1.375h-.879v-1.375h-2.727v-.704l1.959-3.526h.911Z"/>
    </g>
  </g>
</svg>