<?xml version="1.0" encoding="UTF-8"?>
<svg id="b" data-name="Layer 2" xmlns="http://www.w3.org/2000/svg" width="990.053" height="990.053" viewBox="0 0 990.053 990.053">
  <g id="c" data-name="Layer 2">
    <g id="d" data-name="combined chart">
      <g id="e" data-name="Inner Houses">
        <path d="M333.466,618.583c-2.193,2.875-3.773,6.285-4.513,10.127-1.167,6.055.006,12.531,3.221,17.793,5.85,9.573,18.011,13.99,28.701,10.785,11.392-3.415,18.739-15.098,17.675-26.814-.067-.734-.166-1.465-.298-2.19-.588-3.228-1.683-6.356-1.507-9.685.229-4.922,6.518-15.621,6.529-15.674-1.282.746-6.882,3.826-8.757,4.775-2.976,1.566-6.3,2.215-9.634,2.116-3.304-.049-6.452-1.304-9.752-1.357-8.625-.137-16.711,3.63-21.665,10.123ZM354.788,610.596c3.395.131,6.654,1.309,10.052,1.392,4.458.282,8.834-1.195,12.674-3.364-3.399,5.402-3.623,12.293-1.814,18.28,2.825,9.879-1.802,21.309-10.851,26.251-6.869,4.017-15.946,4.087-22.722-.159-9.511-5.114-13.924-17.712-9.829-27.668,3.317-9.061,12.891-15.221,22.491-14.732Z" fill="#262625"/>
        <path d="M416.889,682.81c-.462,3.587-.125,7.329,1.155,11.027,2.017,5.827,6.27,10.849,11.686,13.798,9.853,5.365,22.593,3.11,30.248-5.01,8.158-8.654,8.679-22.445,1.9-32.059-.425-.602-.876-1.186-1.353-1.748-2.123-2.501-4.636-4.663-6.148-7.634-2.263-4.377-2.166-16.787-2.183-16.838-.737,1.287-4.047,6.754-5.196,8.514-1.794,2.844-4.349,5.069-7.285,6.65-2.886,1.61-6.239,2.096-9.124,3.701-7.538,4.194-12.657,11.499-13.7,19.599ZM431.361,665.232c3.006-1.585,6.417-2.193,9.401-3.82,4.002-1.985,7.053-5.452,9.294-9.25-.243,6.378,3.009,12.457,7.569,16.738,7.386,7.143,9.094,19.355,3.728,28.159-3.941,6.914-11.766,11.512-19.758,11.223-10.794.327-20.915-8.378-22.346-19.046-1.658-9.506,3.553-19.628,12.112-24.003Z" fill="#262625"/>
        <path d="M521.25,696.72c1.393,3.337,3.556,6.41,6.514,8.972,4.661,4.038,10.855,6.26,17.02,6.107,11.215-.28,21.121-8.603,23.69-19.463,2.738-11.574-3.706-23.777-14.384-28.714-.669-.309-1.352-.589-2.046-.837-3.089-1.105-6.346-1.72-9.141-3.537-4.148-2.659-10.269-13.455-10.309-13.491.005,1.483-.128,7.873-.243,9.971-.131,3.36-1.232,6.564-2.984,9.402-1.694,2.837-4.355,4.935-6.051,7.767-4.431,7.401-5.212,16.287-2.065,23.824ZM524.994,674.261c1.811-2.875,4.46-5.108,6.232-8.009,2.473-3.72,3.382-8.248,3.424-12.658,2.978,5.645,8.834,9.284,14.924,10.711,9.968,2.493,17.554,12.215,17.308,22.523.044,7.958-4.434,15.853-11.499,19.598-9.185,5.68-22.301,3.202-28.875-5.322-6.189-7.403-6.736-18.775-1.513-26.843Z" fill="#262625"/>
        <path d="M618.583,656.587c2.875,2.193,6.285,3.773,10.127,4.513,6.055,1.167,12.531-.006,17.793-3.221,9.573-5.85,13.99-18.011,10.785-28.701-3.415-11.392-15.098-18.739-26.814-17.675-.734.067-1.465.166-2.19.298-3.228.588-6.356,1.683-9.685,1.507-4.922-.229-15.621-6.518-15.674-6.529.746,1.282,3.826,6.882,4.775,8.757,1.566,2.976,2.215,6.3,2.116,9.634-.049,3.304-1.304,6.452-1.357,9.752-.137,8.625,3.63,16.711,10.123,21.665ZM610.596,635.265c.131-3.395,1.309-6.654,1.392-10.052.282-4.458-1.195-8.834-3.364-12.674,5.402,3.399,12.293,3.623,18.28,1.814,9.879-2.825,21.309,1.802,26.251,10.851,4.017,6.869,4.087,15.946-.159,22.722-5.114,9.511-17.712,13.924-27.668,9.829-9.061-3.317-15.221-12.891-14.732-22.491Z" fill="#262625"/>
        <path d="M682.81,573.164c3.587.462,7.329.125,11.027-1.155,5.827-2.017,10.849-6.27,13.798-11.686,5.365-9.853,3.11-22.593-5.01-30.248-8.654-8.158-22.445-8.679-32.059-1.9-.602.425-1.186.876-1.748,1.353-2.501,2.123-4.663,4.636-7.634,6.148-4.377,2.263-16.787,2.166-16.838,2.183,1.287.737,6.754,4.047,8.514,5.196,2.844,1.794,5.069,4.349,6.65,7.285,1.61,2.886,2.096,6.239,3.701,9.124,4.194,7.538,11.499,12.657,19.599,13.7ZM665.232,558.692c-1.585-3.006-2.193-6.417-3.82-9.401-1.985-4.002-5.452-7.053-9.25-9.294,6.378.243,12.457-3.009,16.738-7.569,7.143-7.386,19.355-9.094,28.159-3.728,6.914,3.941,11.512,11.766,11.223,19.758.327,10.794-8.378,20.915-19.046,22.346-9.506,1.658-19.628-3.553-24.003-12.112Z" fill="#262625"/>
        <path d="M696.72,468.804c3.337-1.393,6.41-3.556,8.972-6.514,4.038-4.661,6.26-10.855,6.107-17.02-.28-11.215-8.603-21.121-19.463-23.69-11.574-2.738-23.777,3.706-28.714,14.384-.309.669-.589,1.352-.837,2.046-1.105,3.089-1.72,6.346-3.537,9.141-2.659,4.148-13.455,10.269-13.491,10.309,1.483-.005,7.873.128,9.971.243,3.36.131,6.564,1.232,9.402,2.984,2.837,1.694,4.935,4.355,7.767,6.051,7.401,4.431,16.287,5.212,23.824,2.065ZM674.261,465.059c-2.875-1.811-5.108-4.46-8.009-6.232-3.72-2.473-8.248-3.382-12.658-3.424,5.645-2.978,9.284-8.834,10.711-14.924,2.493-9.968,12.215-17.554,22.523-17.308,7.958-.044,15.853,4.434,19.598,11.499,5.68,9.185,3.202,22.301-5.322,28.875-7.403,6.189-18.775,6.736-26.843,1.513Z" fill="#262625"/>
        <path d="M656.587,371.47c2.193-2.875,3.773-6.285,4.513-10.127,1.167-6.055-.006-12.531-3.221-17.793-5.85-9.573-18.011-13.99-28.701-10.785-11.392,3.415-18.739,15.098-17.675,26.814.067.734.166,1.465.298,2.19.588,3.228,1.683,6.356,1.507,9.685-.229,4.922-6.518,15.621-6.529,15.674,1.282-.746,6.882-3.826,8.757-4.775,2.976-1.566,6.3-2.215,9.634-2.116,3.304.049,6.452,1.304,9.752,1.357,8.625.137,16.711-3.63,21.665-10.123ZM635.265,379.457c-3.395-.131-6.654-1.309-10.052-1.392-4.458-.282-8.834,1.195-12.674,3.364,3.399-5.402,3.623-12.293,1.814-18.28-2.825-9.879,1.802-21.309,10.851-26.251,6.869-4.017,15.946-4.087,22.722.159,9.511,5.114,13.924,17.712,9.829,27.668-3.317,9.061-12.891,15.221-22.491,14.732Z" fill="#262625"/>
        <path d="M573.164,307.243c.462-3.587.125-7.329-1.155-11.027-2.017-5.827-6.27-10.849-11.686-13.798-9.853-5.365-22.593-3.11-30.248,5.01-8.158,8.654-8.679,22.445-1.9,32.059.425.602.876,1.186,1.353,1.748,2.123,2.501,4.636,4.663,6.148,7.634,2.263,4.377,2.166,16.787,2.183,16.838.737-1.287,4.047-6.754,5.196-8.514,1.794-2.844,4.349-5.069,7.285-6.65,2.886-1.61,6.239-2.096,9.124-3.701,7.538-4.194,12.657-11.499,13.7-19.599ZM558.692,324.821c-3.006,1.585-6.417,2.193-9.401,3.82-4.002,1.985-7.053,5.452-9.294,9.25.243-6.378-3.009-12.457-7.569-16.738-7.386-7.143-9.094-19.355-3.728-28.159,3.941-6.914,11.766-11.512,19.758-11.223,10.794-.327,20.915,8.378,22.346,19.046,1.658,9.506-3.553,19.628-12.112,24.003Z" fill="#262625"/>
        <path d="M468.804,293.333c-1.393-3.337-3.556-6.41-6.514-8.972-4.661-4.038-10.855-6.26-17.02-6.107-11.215.28-21.121,8.603-23.69,19.463-2.738,11.574,3.706,23.777,14.384,28.714.669.309,1.352.589,2.046.837,3.089,1.105,6.346,1.72,9.141,3.537,4.148,2.659,10.269,13.455,10.309,13.491-.005-1.483.128-7.873.243-9.971.131-3.36,1.232-6.564,2.984-9.402,1.694-2.837,4.355-4.935,6.051-7.767,4.431-7.401,5.212-16.287,2.065-23.824ZM465.059,315.792c-1.811,2.875-4.46,5.108-6.232,8.009-2.473,3.72-3.382,8.248-3.424,12.658-2.978-5.645-8.834-9.284-14.924-10.711-9.968-2.493-17.554-12.215-17.308-22.523-.044-7.958,4.434-15.853,11.499-19.598,9.185-5.68,22.301-3.202,28.875,5.322,6.189,7.403,6.736,18.775,1.513,26.843Z" fill="#262625"/>
        <path d="M371.47,333.466c-2.875-2.193-6.285-3.773-10.127-4.513-6.055-1.167-12.531.006-17.793,3.221-9.573,5.85-13.99,18.011-10.785,28.701,3.415,11.392,15.098,18.739,26.814,17.675.734-.067,1.465-.166,2.19-.298,3.228-.588,6.356-1.683,9.685-1.507,4.922.229,15.621,6.518,15.674,6.529-.746-1.282-3.826-6.882-4.775-8.757-1.566-2.976-2.215-6.3-2.116-9.634.049-3.304,1.304-6.452,1.357-9.752.137-8.625-3.63-16.711-10.123-21.665ZM379.457,354.788c-.131,3.395-1.309,6.654-1.392,10.052-.282,4.458,1.195,8.834,3.364,12.674-5.402-3.399-12.293-3.623-18.28-1.814-9.879,2.825-21.309-1.802-26.251-10.851-4.017-6.869-4.087-15.946.159-22.722,5.114-9.511,17.712-13.924,27.668-9.829,9.061,3.317,15.221,12.891,14.732,22.491Z" fill="#262625"/>
        <path d="M307.243,416.889c-3.587-.462-7.329-.125-11.027,1.155-5.827,2.017-10.849,6.27-13.798,11.686-5.365,9.853-3.11,22.593,5.01,30.248,8.654,8.158,22.445,8.679,32.059,1.9.602-.425,1.186-.876,1.748-1.353,2.501-2.123,4.663-4.636,7.634-6.148,4.377-2.263,16.787-2.166,16.838-2.183-1.287-.737-6.754-4.047-8.514-5.196-2.844-1.794-5.069-4.349-6.65-7.285-1.61-2.886-2.096-6.239-3.701-9.124-4.194-7.538-11.499-12.657-19.599-13.7ZM324.821,431.361c1.585,3.006,2.193,6.417,3.82,9.401,1.985,4.002,5.452,7.053,9.25,9.294-6.378-.243-12.457,3.009-16.738,7.569-7.143,7.386-19.355,9.094-28.159,3.728-6.914-3.941-11.512-11.766-11.223-19.758-.327-10.794,8.378-20.915,19.046-22.346,9.506-1.658,19.628,3.553,24.003,12.112Z" fill="#262625"/>
        <path d="M293.333,521.25c-3.337,1.393-6.41,3.556-8.972,6.514-4.038,4.661-6.26,10.855-6.107,17.02.28,11.215,8.603,21.121,19.463,23.69,11.574,2.738,23.777-3.706,28.714-14.384.309-.669.589-1.352.837-2.046,1.105-3.089,1.72-6.346,3.537-9.141,2.659-4.148,13.455-10.269,13.491-10.309-1.483.005-7.873-.128-9.971-.243-3.36-.131-6.564-1.232-9.402-2.984-2.837-1.694-4.935-4.355-7.767-6.051-7.401-4.431-16.287-5.212-23.824-2.065ZM315.792,524.994c2.875,1.811,5.108,4.46,8.009,6.232,3.72,2.473,8.248,3.382,12.658,3.424-5.645,2.978-9.284,8.834-10.711,14.924-2.493,9.968-12.215,17.554-22.523,17.308-7.958.044-15.853-4.434-19.598-11.499-5.68-9.185-3.202-22.301,5.322-28.875,7.403-6.189,18.775-6.736,26.843-1.513Z" fill="#262625"/>
      </g>
      <g>
        <path d="M229.406,731.864c-2.193,2.875-3.773,6.285-4.513,10.127-1.167,6.055.006,12.531,3.221,17.793,5.85,9.573,18.011,13.99,28.701,10.785,11.392-3.415,18.739-15.098,17.675-26.814-.067-.734-.166-1.465-.298-2.19-.588-3.228-1.683-6.356-1.507-9.685.229-4.922,6.518-15.621,6.529-15.674-1.282.746-6.882,3.826-8.757,4.775-2.976,1.566-6.3,2.215-9.634,2.116-3.304-.049-6.452-1.304-9.752-1.357-8.625-.137-16.711,3.63-21.665,10.123ZM250.728,723.877c3.395.131,6.654,1.309,10.052,1.392,4.458.282,8.834-1.195,12.674-3.364-3.399,5.402-3.623,12.293-1.814,18.28,2.825,9.879-1.802,21.309-10.851,26.251-6.869,4.017-15.946,4.087-22.722-.159-9.511-5.114-13.924-17.712-9.829-27.668,3.317-9.061,12.891-15.221,22.491-14.732Z" fill="#262625"/>
        <g id="f" data-name="outer houses">
          <path d="M422.73,146.574c-1.393-3.337-3.556-6.41-6.514-8.972-4.661-4.038-10.855-6.26-17.02-6.107-11.215.28-21.121,8.603-23.69,19.463-2.738,11.574,3.706,23.777,14.384,28.714.669.309,1.352.589,2.046.837,3.089,1.105,6.346,1.72,9.141,3.537,4.148,2.659,10.269,13.455,10.309,13.491-.005-1.483.128-7.873.243-9.971.131-3.36,1.232-6.564,2.984-9.402,1.694-2.837,4.355-4.935,6.051-7.767,4.431-7.401,5.212-16.287,2.065-23.824ZM418.986,169.033c-1.811,2.875-4.46,5.108-6.232,8.009-2.473,3.72-3.382,8.248-3.424,12.658-2.978-5.645-8.834-9.284-14.924-10.711-9.968-2.493-17.554-12.215-17.308-22.523-.044-7.958,4.434-15.853,11.499-19.598,9.185-5.68,22.301-3.202,28.875,5.322,6.189,7.403,6.736,18.775,1.513,26.843Z" fill="#262625"/>
          <path d="M258.189,229.406c-2.875-2.193-6.285-3.773-10.127-4.513-6.055-1.167-12.531.006-17.793,3.221-9.573,5.85-13.99,18.011-10.785,28.701,3.415,11.392,15.098,18.739,26.814,17.675.734-.067,1.465-.166,2.19-.298,3.228-.588,6.356-1.683,9.685-1.507,4.922.229,15.621,6.518,15.674,6.529-.746-1.282-3.826-6.882-4.775-8.757-1.566-2.976-2.215-6.3-2.116-9.634.049-3.304,1.304-6.452,1.357-9.752.137-8.625-3.63-16.711-10.123-21.665ZM266.176,250.728c-.131,3.395-1.309,6.654-1.392,10.052-.282,4.458,1.195,8.834,3.364,12.674-5.402-3.399-12.293-3.623-18.28-1.814-9.879,2.825-21.309-1.802-26.251-10.851-4.017-6.869-4.087-15.946.159-22.722,5.114-9.511,17.712-13.924,27.668-9.829,9.061,3.317,15.221,12.891,14.732,22.491Z" fill="#262625"/>
          <path d="M157.109,383.411c-3.587-.462-7.329-.125-11.027,1.155-5.827,2.017-10.849,6.27-13.798,11.686-5.365,9.853-3.11,22.593,5.01,30.248,8.654,8.158,22.445,8.679,32.059,1.9.602-.425,1.186-.876,1.748-1.353,2.501-2.123,4.663-4.636,7.634-6.148,4.377-2.263,16.787-2.166,16.838-2.183-1.287-.737-6.754-4.047-8.514-5.196-2.844-1.794-5.069-4.349-6.65-7.285-1.61-2.886-2.096-6.239-3.701-9.124-4.194-7.538-11.499-12.657-19.599-13.7ZM174.687,397.883c1.585,3.006,2.193,6.417,3.82,9.401,1.985,4.002,5.452,7.053,9.25,9.294-6.378-.243-12.457,3.009-16.738,7.569-7.143,7.386-19.355,9.094-28.159,3.728-6.914-3.941-11.512-11.766-11.223-19.758-.327-10.794,8.378-20.915,19.046-22.346,9.506-1.658,19.628,3.553,24.003,12.112Z" fill="#262625"/>
          <path d="M146.574,567.323c-3.337,1.393-6.41,3.556-8.972,6.514-4.038,4.661-6.26,10.855-6.107,17.02.28,11.215,8.603,21.121,19.463,23.69,11.574,2.738,23.777-3.706,28.714-14.384.309-.669.589-1.352.837-2.046,1.105-3.089,1.72-6.346,3.537-9.141,2.659-4.148,13.455-10.269,13.491-10.309-1.483.005-7.873-.128-9.971-.243-3.36-.131-6.564-1.232-9.402-2.984-2.837-1.694-4.935-4.355-7.767-6.051-7.401-4.431-16.287-5.212-23.824-2.065ZM169.033,571.067c2.875,1.811,5.108,4.46,8.009,6.232,3.72,2.473,8.248,3.382,12.658,3.424-5.645,2.978-9.284,8.834-10.711,14.924-2.493,9.968-12.215,17.554-22.523,17.308-7.958.044-15.853-4.434-19.598-11.499-5.68-9.185-3.202-22.301,5.322-28.875,7.403-6.189,18.775-6.736,26.843-1.513Z" fill="#262625"/>
          <path d="M383.411,832.944c-.462,3.587-.125,7.329,1.155,11.027,2.017,5.827,6.27,10.849,11.686,13.798,9.853,5.365,22.593,3.11,30.248-5.01,8.158-8.654,8.679-22.445,1.9-32.059-.425-.602-.876-1.186-1.353-1.748-2.123-2.501-4.636-4.663-6.148-7.634-2.263-4.377-2.166-16.787-2.183-16.838-.737,1.287-4.047,6.754-5.196,8.514-1.794,2.844-4.349,5.069-7.285,6.65-2.886,1.61-6.239,2.096-9.124,3.701-7.538,4.194-12.657,11.499-13.7,19.599ZM397.883,815.366c3.006-1.585,6.417-2.193,9.401-3.82,4.002-1.985,7.053-5.452,9.294-9.25-.243,6.378,3.009,12.457,7.569,16.738,7.386,7.143,9.094,19.355,3.728,28.159-3.941,6.914-11.766,11.512-19.758,11.223-10.794.327-20.915-8.378-22.346-19.046-1.658-9.506,3.553-19.628,12.112-24.003Z" fill="#262625"/>
          <path d="M567.323,843.479c1.393,3.337,3.556,6.41,6.514,8.972,4.661,4.038,10.855,6.26,17.02,6.107,11.215-.28,21.121-8.603,23.69-19.463,2.738-11.574-3.706-23.777-14.384-28.714-.669-.309-1.352-.589-2.046-.837-3.089-1.105-6.346-1.72-9.141-3.537-4.148-2.659-10.269-13.455-10.309-13.491.005,1.483-.128,7.873-.243,9.971-.131,3.36-1.232,6.564-2.984,9.402-1.694,2.837-4.355,4.935-6.051,7.767-4.431,7.401-5.212,16.287-2.065,23.824ZM571.067,821.02c1.811-2.875,4.46-5.108,6.232-8.009,2.473-3.72,3.382-8.248,3.424-12.658,2.978,5.645,8.834,9.284,14.924,10.711,9.968,2.493,17.554,12.215,17.308,22.523.044,7.958-4.434,15.853-11.499,19.598-9.185,5.68-22.301,3.202-28.875-5.322-6.189-7.403-6.736-18.775-1.513-26.843Z" fill="#262625"/>
          <path d="M731.864,760.647c2.875,2.193,6.285,3.773,10.127,4.513,6.055,1.167,12.531-.006,17.793-3.221,9.573-5.85,13.99-18.011,10.785-28.701-3.415-11.392-15.098-18.739-26.814-17.675-.734.067-1.465.166-2.19.298-3.228.588-6.356,1.683-9.685,1.507-4.922-.229-15.621-6.518-15.674-6.529.746,1.282,3.826,6.882,4.775,8.757,1.566,2.976,2.215,6.3,2.116,9.634-.049,3.304-1.304,6.452-1.357,9.752-.137,8.625,3.63,16.711,10.123,21.665ZM723.877,739.325c.131-3.395,1.309-6.654,1.392-10.052.282-4.458-1.195-8.834-3.364-12.674,5.402,3.399,12.293,3.623,18.28,1.814,9.879-2.825,21.309,1.802,26.251,10.851,4.017,6.869,4.087,15.946-.159,22.722-5.114,9.511-17.712,13.924-27.668,9.829-9.061-3.317-15.221-12.891-14.732-22.491Z" fill="#262625"/>
          <path d="M832.944,606.642c3.587.462,7.329.125,11.027-1.155,5.827-2.017,10.849-6.27,13.798-11.686,5.365-9.853,3.11-22.593-5.01-30.248-8.654-8.158-22.445-8.679-32.059-1.9-.602.425-1.186.876-1.748,1.353-2.501,2.123-4.663,4.636-7.634,6.148-4.377,2.263-16.787,2.166-16.838,2.183,1.287.737,6.754,4.047,8.514,5.196,2.844,1.794,5.069,4.349,6.65,7.285,1.61,2.886,2.096,6.239,3.701,9.124,4.194,7.538,11.499,12.657,19.599,13.7ZM815.366,592.17c-1.585-3.006-2.193-6.417-3.82-9.401-1.985-4.002-5.452-7.053-9.25-9.294,6.378.243,12.457-3.009,16.738-7.569,7.143-7.386,19.355-9.094,28.159-3.728,6.914,3.941,11.512,11.766,11.223,19.758.327,10.794-8.378,20.915-19.046,22.346-9.506,1.658-19.628-3.553-24.003-12.112Z" fill="#262625"/>
          <path d="M843.479,422.73c3.337-1.393,6.41-3.556,8.972-6.514,4.038-4.661,6.26-10.855,6.107-17.02-.28-11.215-8.603-21.121-19.463-23.69-11.574-2.738-23.777,3.706-28.714,14.384-.309.669-.589,1.352-.837,2.046-1.105,3.089-1.72,6.346-3.537,9.141-2.659,4.148-13.455,10.269-13.491,10.309,1.483-.005,7.873.128,9.971.243,3.36.131,6.564,1.232,9.402,2.984,2.837,1.694,4.935,4.355,7.767,6.051,7.401,4.431,16.287,5.212,23.824,2.065ZM821.02,418.986c-2.875-1.811-5.108-4.46-8.009-6.232-3.72-2.473-8.248-3.382-12.658-3.424,5.645-2.978,9.284-8.834,10.711-14.924,2.493-9.968,12.215-17.554,22.523-17.308,7.958-.044,15.853,4.434,19.598,11.499,5.68,9.185,3.202,22.301-5.322,28.875-7.403,6.189-18.775,6.736-26.843,1.513Z" fill="#262625"/>
          <path d="M760.647,258.189c2.193-2.875,3.773-6.285,4.513-10.127,1.167-6.055-.006-12.531-3.221-17.793-5.85-9.573-18.011-13.99-28.701-10.785-11.392,3.415-18.739,15.098-17.675,26.814.067.734.166,1.465.298,2.19.588,3.228,1.683,6.356,1.507,9.685-.229,4.922-6.518,15.621-6.529,15.674,1.282-.746,6.882-3.826,8.757-4.775,2.976-1.566,6.3-2.215,9.634-2.116,3.304.049,6.452,1.304,9.752,1.357,8.625.137,16.711-3.63,21.665-10.123ZM739.325,266.176c-3.395-.131-6.654-1.309-10.052-1.392-4.458-.282-8.834,1.195-12.674,3.364,3.399-5.402,3.623-12.293,1.814-18.28-2.825-9.879,1.802-21.309,10.851-26.251,6.869-4.017,15.946-4.087,22.722.159,9.511,5.114,13.924,17.712,9.829,27.668-3.317,9.061-12.891,15.221-22.491,14.732Z" fill="#262625"/>
          <path d="M606.642,157.109c.462-3.587.125-7.329-1.155-11.027-2.017-5.827-6.27-10.849-11.686-13.798-9.853-5.365-22.593-3.11-30.248,5.01-8.158,8.654-8.679,22.445-1.9,32.059.425.602.876,1.186,1.353,1.748,2.123,2.501,4.636,4.663,6.148,7.634,2.263,4.377,2.166,16.787,2.183,16.838.737-1.287,4.047-6.754,5.196-8.514,1.794-2.844,4.349-5.069,7.285-6.65,2.886-1.61,6.239-2.096,9.124-3.701,7.538-4.194,12.657-11.499,13.7-19.599ZM592.17,174.687c-3.006,1.585-6.417,2.193-9.401,3.82-4.002,1.985-7.053,5.452-9.294,9.25.243-6.378-3.009-12.457-7.569-16.738-7.386-7.143-9.094-19.355-3.728-28.159,3.941-6.914,11.766-11.512,19.758-11.223,10.794-.327,20.915,8.378,22.346,19.046,1.658,9.506-3.553,19.628-12.112,24.003Z" fill="#262625"/>
        </g>
      </g>
      <path d="M651.983,492.055c-.064-4.087-.255-8.172-.55-12.241-1.826-21.345-8.228-42.206-18.321-61.096-.934-1.748-1.891-3.482-2.887-5.195-12.935-22.229-31.104-41.395-53.02-54.919-.977-.603-1.952-1.207-2.944-1.787-.713-.431-1.432-.852-2.152-1.271-22.406-13.024-48.216-20.004-74.112-20.356-1.981-.027-3.962-.015-5.942.036-3.47.089-6.937.291-10.392.621-22.37,1.886-44.029,9.056-63.397,20.259-1.715.992-3.408,2.021-5.086,3.075-16.928,10.638-31.919,24.399-43.828,40.423-3.378,4.497-6.463,9.199-9.293,14.053-.998,1.711-1.959,3.444-2.893,5.192-3.364,6.29-6.333,12.796-8.946,19.427-6.475,17.169-9.838,35.445-10.149,53.779-.034,1.981-.03,3.962.008,5.943.306,16.121,2.966,32.201,7.951,47.524,2.31,6.862,5.39,13.432,8.393,20.012.921,1.885,1.895,3.741,2.893,5.584.944,1.743,1.925,3.464,2.935,5.167,11.678,19.702,27.687,36.779,46.259,50.166,2.175,1.545,4.395,3.028,6.649,4.458,1.673,1.062,3.366,2.091,5.079,3.088,22.337,13.001,47.966,20.434,73.818,20.859,1.98.033,3.961.025,5.942-.026.695-.018,1.391-.033,2.086-.061,25.228-.428,50.112-7.835,71.941-20.411,1.717-.989,3.418-2.005,5.096-3.058,1.717-1.077,3.417-2.178,5.09-3.319,19.353-13.541,35.694-31.313,47.793-51.581.209-.35.426-.694.633-1.045.766-1.375,1.511-2.762,2.245-4.156,7.177-13.631,12.775-28.158,15.748-43.294,2.198-9.823,3.198-19.855,3.358-29.908.031-1.981.029-3.962-.002-5.943ZM630.223,569.667c-.939,1.745-1.916,3.469-2.922,5.175-2.594,4.399-5.393,8.678-8.423,12.792-11.659,16.262-26.485,30.169-43.344,40.924-1.67,1.066-3.36,2.101-5.069,3.104-.308.18-.611.369-.919.547-21.715,12.273-46.553,19.379-71.55,19.548-1.594.011-3.189-.003-4.784-.049-.386-.003-.772-.015-1.158-.021-25.323-.388-50.373-7.688-72.266-20.378-1.714-.994-3.409-2.021-5.083-3.08-3.541-2.24-6.993-4.621-10.335-7.143-16.65-12.551-30.801-28.414-41.452-46.342-1.012-1.704-1.992-3.425-2.939-5.165-4.232-7.772-7.836-15.885-10.682-24.271-5.17-15.226-7.897-31.244-8.204-47.31-.038-1.981-.04-3.962-.005-5.943.28-15.482,2.807-30.924,7.584-45.659,2.907-8.994,6.67-17.696,11.174-25.998.945-1.741,1.922-3.465,2.932-5.17,12.776-21.565,30.683-40.105,51.928-53.403,1.679-1.051,3.385-2.059,5.104-3.044,2.773-1.588,5.592-3.098,8.465-4.505,15.049-7.846,31.596-12.449,48.365-14.801,5.112-.679,10.26-1.067,15.414-1.202,1.98-.052,3.961-.069,5.942-.041,22.352.314,44.644,5.665,64.612,15.736,2.711,1.314,5.371,2.72,7.987,4.2,1.725.976,3.427,1.99,5.11,3.034,21.399,13.286,39.256,32.041,51.931,53.816.997,1.712,1.95,3.45,2.882,5.198,5.517,10.349,9.896,21.302,12.95,32.622,3.82,12.712,5.312,25.964,5.48,39.217.025,1.982.022,3.963-.009,5.943-.035,2.247-.103,4.491-.201,6.731-1.401,22.618-7.762,44.97-18.515,64.938Z" fill="#262625"/>
      <path d="M452.887,2.1c101.038-9.485,205.071,13.327,291.999,64.937,137.11,78.767,229.838,225.758,243.355,380.881,3.669,49.703,2.266,100.148-8.849,148.924-10.333,51.664-30.703,101.049-56.738,146.937-38.338,64.116-90.624,120.31-152.704,162.966-75.974,50.895-166.76,81.417-258.976,82.954-104.68,4.133-209.873-28.243-295.074-87.696-68.986-48.829-126.83-113.475-164.251-188.639-9.47-20.374-19.182-40.722-26.467-61.97-35.532-107.249-33.67-226.446,6.907-332.106,17.024-42.417,38.716-83.245,66.639-119.754C182.041,89.452,313.08,13.678,452.887,2.1ZM437.05,13.334c-52.88,7.286-105.058,21.54-152.515,45.835C166.366,115.999,73.961,221.579,33.519,344.433.901,443.256,1.467,552.333,35.488,650.733c32.133,92.968,93.888,175.604,173.667,234.66,80.129,59.374,179.575,94.134,280.155,94.823,83.879,2.384,167.866-19.95,240.711-60.38,61.001-34.602,114.501-81.788,155.563-138.035,55.686-74.237,88.358-164.794,94.158-256.729,2.401-53.916-.728-108.759-16.619-160.688-36.045-131.173-130.068-246.715-254.983-306.168C625.07,17.07,529.239,1.306,437.05,13.334Z" fill="#262625"/>
      <path d="M468.041,179.363c64.703-6.074,131.325,8.534,186.992,41.585,87.803,50.442,147.185,144.572,155.841,243.911,2.35,31.829,1.451,64.134-5.667,95.369-6.617,33.085-19.662,64.71-36.334,94.097-24.551,41.059-58.034,77.045-97.789,104.361-48.653,32.593-106.791,52.138-165.845,53.122-67.036,2.647-134.4-18.086-188.962-56.159-44.178-31.269-81.22-72.668-105.184-120.802-6.064-13.047-12.284-26.078-16.949-39.685-22.754-68.681-21.562-145.013,4.423-212.676,10.902-27.163,24.793-53.309,42.675-76.689,53.352-70.496,137.268-119.02,226.799-126.435ZM457.899,186.557c-33.863,4.666-67.278,13.794-97.668,29.352-75.674,36.393-134.849,104.005-160.748,182.679-20.888,63.285-20.525,133.137,1.261,196.15,20.577,59.536,60.125,112.454,111.214,150.273,51.313,38.022,114.998,60.282,179.407,60.723,53.715,1.527,107.499-12.776,154.148-38.667,39.064-22.158,73.325-52.376,99.621-88.396,35.66-47.54,56.583-105.532,60.298-164.406,1.538-34.527-.466-69.648-10.643-102.902-23.082-84.001-83.294-157.993-163.287-196.066-53.197-26.349-114.566-36.444-173.602-28.741Z" fill="#262625"/>
      <g id="g" data-name="outer cusps">
        <path d="M120.949,314.949c-20.238,0-36.702-16.465-36.702-36.702s16.465-36.702,36.702-36.702,36.702,16.465,36.702,36.702-16.465,36.702-36.702,36.702ZM120.949,244.535c-18.589,0-33.711,15.123-33.711,33.711s15.123,33.711,33.711,33.711,33.711-15.123,33.711-33.711-15.123-33.711-33.711-33.711Z" fill="#262625"/>
        <path d="M152.036,728.948c-10.119,17.526-32.61,23.553-50.136,13.434-17.526-10.119-23.553-32.61-13.434-50.136s32.61-23.553,50.136-13.434,23.553,32.61,13.434,50.136ZM91.056,693.742c-9.294,16.098-3.759,36.756,12.339,46.05s36.756,3.759,46.051-12.339,3.759-36.756-12.339-46.051-36.756-3.759-46.05,12.339Z" fill="#262625"/>
        <path d="M314.949,869.104c0,20.238-16.465,36.702-36.702,36.702-20.237,0-36.702-16.465-36.702-36.702,0-20.238,16.465-36.702,36.702-36.702,20.238,0,36.702,16.465,36.702,36.702ZM244.535,869.104c0,18.589,15.123,33.711,33.711,33.711,18.589,0,33.711-15.123,33.711-33.711,0-18.589-15.123-33.711-33.711-33.711s-33.711,15.123-33.711,33.711Z" fill="#262625"/>
        <path d="M728.948,838.017c17.526,10.119,23.553,32.61,13.434,50.136-10.119,17.526-32.61,23.553-50.136,13.434-17.526-10.119-23.553-32.61-13.434-50.136,10.119-17.526,32.61-23.553,50.136-13.434ZM693.742,898.997c16.098,9.294,36.756,3.759,46.05-12.339,9.294-16.098,3.759-36.756-12.339-46.051-16.098-9.294-36.756-3.759-46.051,12.339-9.294,16.098-3.759,36.756,12.339,46.05Z" fill="#262625"/>
        <path d="M869.104,675.104c20.238,0,36.702,16.465,36.702,36.702s-16.465,36.702-36.702,36.702c-20.238,0-36.702-16.465-36.702-36.702,0-20.238,16.465-36.702,36.702-36.702ZM869.104,745.518c18.589,0,33.711-15.123,33.711-33.711,0-18.589-15.123-33.711-33.711-33.711-18.589,0-33.711,15.123-33.711,33.711,0,18.588,15.123,33.711,33.711,33.711Z" fill="#262625"/>
        <path d="M838.017,261.105c10.119-17.526,32.61-23.553,50.136-13.434,17.526,10.119,23.553,32.61,13.434,50.136-10.119,17.526-32.61,23.553-50.136,13.434-17.526-10.119-23.553-32.61-13.434-50.136ZM898.997,296.311c9.294-16.098,3.759-36.756-12.339-46.05-16.098-9.294-36.756-3.759-46.051,12.339-9.294,16.098-3.759,36.756,12.339,46.051,16.098,9.294,36.756,3.759,46.05-12.339Z" fill="#262625"/>
        <path d="M675.104,120.949c0-20.238,16.465-36.702,36.702-36.702,20.237,0,36.702,16.465,36.702,36.702,0,20.238-16.465,36.702-36.702,36.702s-36.702-16.465-36.702-36.702ZM745.518,120.949c0-18.589-15.123-33.711-33.711-33.711s-33.711,15.123-33.711,33.711c0,18.589,15.123,33.711,33.711,33.711,18.588,0,33.711-15.123,33.711-33.711Z" fill="#262625"/>
        <path d="M261.105,152.036c-17.526-10.119-23.553-32.61-13.434-50.136,10.119-17.526,32.61-23.553,50.136-13.434,17.526,10.119,23.553,32.61,13.434,50.136-10.119,17.526-32.61,23.553-50.136,13.434ZM296.311,91.056c-16.098-9.294-36.756-3.759-46.05,12.339-9.294,16.098-3.759,36.756,12.339,46.051,16.098,9.294,36.756,3.759,46.051-12.339,9.294-16.098,3.759-36.756-12.339-46.05Z" fill="#262625"/>
        <path d="M458.728,67.384c.635,5.264,2.462,10.462,5.613,15.256,4.966,7.556,12.82,13.161,21.579,15.402,15.936,4.077,33.231-3.717,41.186-18.016,8.478-15.238,4.252-35.026-8.846-46.249-.821-.703-1.672-1.37-2.553-1.997-3.919-2.79-8.268-4.957-11.487-8.635C499.428,17.74,495.096.067,495.054,0c-.584,2.095-3.319,11.057-4.319,13.972-1.525,4.688-4.355,8.77-7.959,12.075-3.522,3.327-8.113,5.227-11.635,8.546-9.203,8.675-13.848,20.902-12.413,32.79ZM472.966,37.188c3.701-3.335,8.33-5.428,11.986-8.816,4.972-4.262,8.06-10.289,9.878-16.495,1.951,9.152,8.763,16.622,16.786,21.063,13.07,7.492,19.897,24.234,15.44,38.68-3.11,11.246-12.577,20.6-24.039,23.067-15.224,4.352-32.743-4.374-38.62-19.022-5.78-12.913-2.019-29.176,8.569-38.478Z" fill="#262625"/>
        <path d="M67.384,531.325c5.264-.635,10.462-2.462,15.256-5.613,7.556-4.966,13.161-12.82,15.402-21.579,4.077-15.936-3.717-33.231-18.016-41.186-15.238-8.478-35.026-4.252-46.249,8.846-.703.821-1.37,1.672-1.997,2.553-2.79,3.919-4.957,8.268-8.635,11.487C17.74,490.625.067,494.957,0,494.999c2.095.584,11.057,3.319,13.972,4.319,4.688,1.525,8.77,4.355,12.075,7.959,3.327,3.522,5.227,8.113,8.546,11.635,8.675,9.203,20.902,13.848,32.79,12.413ZM37.188,517.087c-3.335-3.701-5.428-8.33-8.816-11.986-4.262-4.972-10.289-8.06-16.495-9.878,9.152-1.951,16.622-8.763,21.063-16.786,7.492-13.07,24.234-19.897,38.68-15.44,11.246,3.11,20.6,12.577,23.067,24.039,4.352,15.224-4.374,32.743-19.022,38.62-12.913,5.78-29.176,2.019-38.478-8.569Z" fill="#262625"/>
        <path d="M531.325,922.669c-.635-5.264-2.462-10.462-5.613-15.256-4.966-7.556-12.82-13.161-21.579-15.402-15.936-4.077-33.231,3.717-41.186,18.016-8.478,15.238-4.252,35.026,8.846,46.249.821.703,1.672,1.37,2.553,1.997,3.919,2.79,8.268,4.957,11.487,8.635,4.793,5.406,9.125,23.079,9.167,23.146.584-2.095,3.319-11.057,4.319-13.972,1.525-4.688,4.355-8.77,7.959-12.075,3.522-3.327,8.113-5.227,11.635-8.546,9.203-8.675,13.848-20.902,12.413-32.79ZM517.087,952.865c-3.701,3.335-8.33,5.428-11.986,8.816-4.972,4.262-8.06,10.289-9.878,16.495-1.951-9.152-8.763-16.622-16.786-21.063-13.07-7.492-19.897-24.234-15.44-38.68,3.11-11.246,12.577-20.6,24.039-23.067,15.224-4.352,32.743,4.374,38.62,19.022,5.78,12.913,2.019,29.176-8.569,38.478Z" fill="#262625"/>
        <path d="M922.669,458.728c-5.264.635-10.462,2.462-15.256,5.613-7.556,4.966-13.161,12.82-15.402,21.579-4.077,15.936,3.717,33.231,18.016,41.186,15.238,8.478,35.026,4.252,46.249-8.846.703-.821,1.37-1.672,1.997-2.553,2.79-3.919,4.957-8.268,8.635-11.487,5.406-4.793,23.079-9.125,23.146-9.167-2.095-.584-11.057-3.319-13.972-4.319-4.688-1.525-8.77-4.355-12.075-7.959-3.327-3.522-5.227-8.113-8.546-11.635-8.675-9.203-20.902-13.848-32.79-12.413ZM952.865,472.966c3.335,3.701,5.428,8.33,8.816,11.986,4.262,4.972,10.289,8.06,16.495,9.878-9.152,1.951-16.622,8.763-21.063,16.786-7.492,13.07-24.234,19.897-38.68,15.44-11.246-3.11-20.6-12.577-23.067-24.039-4.352-15.224,4.374-32.743,19.022-38.62,12.913-5.78,29.176-2.019,38.478,8.569Z" fill="#262625"/>
      </g>
      <g id="h" data-name="inner cusps">
        <path d="M254.864,380.432c-13.788,0-25.006-11.204-25.006-24.976s11.217-24.976,25.006-24.976,25.006,11.204,25.006,24.976-11.217,24.976-25.006,24.976ZM254.864,332.516c-12.665,0-22.968,10.291-22.968,22.94s10.303,22.941,22.968,22.941,22.968-10.291,22.968-22.941-10.303-22.94-22.968-22.94Z" fill="#262625"/>
        <path d="M275.584,645.467c-6.894,11.927-22.217,16.028-34.158,9.142s-16.047-22.191-9.153-34.118c6.894-11.927,22.217-16.028,34.158-9.142s16.047,22.191,9.153,34.118ZM234.037,621.509c-6.332,10.955-2.561,25.013,8.407,31.337,10.968,6.325,25.043,2.558,31.375-8.397,6.332-10.955,2.561-25.013-8.407-31.337-10.968-6.325-25.042-2.558-31.375,8.397Z" fill="#262625"/>
        <path d="M380.293,734.902c0,13.772-11.217,24.976-25.006,24.976-13.788,0-25.005-11.204-25.005-24.976,0-13.772,11.217-24.976,25.005-24.976,13.788,0,25.006,11.204,25.006,24.976ZM332.319,734.902c0,12.65,10.303,22.941,22.968,22.941,12.665,0,22.968-10.291,22.968-22.941,0-12.65-10.303-22.941-22.968-22.941-12.664,0-22.968,10.291-22.968,22.941Z" fill="#262625"/>
        <path d="M645.644,714.207c11.941,6.886,16.047,22.191,9.153,34.118-6.894,11.927-22.217,16.028-34.158,9.142-11.941-6.886-16.047-22.191-9.153-34.118s22.217-16.028,34.158-9.142ZM621.657,755.704c10.968,6.325,25.043,2.558,31.375-8.397,6.332-10.955,2.561-25.013-8.407-31.337s-25.043-2.558-31.375,8.397-2.561,25.012,8.407,31.337Z" fill="#262625"/>
        <path d="M735.185,609.623c13.788,0,25.006,11.204,25.006,24.976,0,13.772-11.217,24.976-25.006,24.976-13.788,0-25.006-11.204-25.006-24.976,0-13.772,11.217-24.976,25.006-24.976ZM735.185,657.539c12.665,0,22.968-10.291,22.968-22.94s-10.303-22.941-22.968-22.941c-12.665,0-22.968,10.291-22.968,22.941,0,12.649,10.303,22.94,22.968,22.94Z" fill="#262625"/>
        <path d="M714.466,344.588c6.894-11.927,22.217-16.028,34.158-9.142,11.941,6.886,16.047,22.191,9.153,34.118-6.894,11.927-22.217,16.028-34.158,9.142-11.941-6.886-16.047-22.191-9.153-34.118ZM756.012,368.546c6.332-10.955,2.561-25.013-8.407-31.337-10.968-6.325-25.043-2.558-31.375,8.397-6.332,10.955-2.561,25.013,8.407,31.337,10.968,6.325,25.042,2.558,31.375-8.397Z" fill="#262625"/>
        <path d="M609.757,255.153c0-13.772,11.217-24.976,25.006-24.976,13.788,0,25.005,11.204,25.005,24.976,0,13.772-11.217,24.976-25.005,24.976-13.788,0-25.006-11.204-25.006-24.976ZM657.73,255.153c0-12.65-10.303-22.941-22.968-22.941-12.665,0-22.968,10.291-22.968,22.941,0,12.65,10.303,22.941,22.968,22.941,12.664,0,22.968-10.291,22.968-22.941Z" fill="#262625"/>
        <path d="M344.406,275.848c-11.941-6.886-16.047-22.191-9.153-34.118,6.894-11.927,22.217-16.028,34.158-9.142,11.941,6.886,16.047,22.191,9.153,34.118-6.894,11.927-22.217,16.028-34.158,9.142ZM368.392,234.351c-10.968-6.325-25.043-2.558-31.375,8.397-6.332,10.955-2.561,25.013,8.407,31.337,10.968,6.325,25.043,2.558,31.375-8.397,6.332-10.955,2.561-25.012-8.407-31.337Z" fill="#262625"/>
        <path d="M471.966,218.715c.403,3.339,1.564,6.636,3.565,9.677,3.154,4.792,8.141,8.348,13.703,9.769,10.12,2.586,21.102-2.358,26.154-11.427,5.384-9.665,2.7-22.216-5.617-29.334-.521-.446-1.062-.869-1.621-1.266-2.488-1.77-5.25-3.144-7.295-5.477-3.044-3.429-5.794-14.638-5.821-14.681-.371,1.329-2.108,7.013-2.742,8.862-.969,2.974-2.766,5.563-5.054,7.659-2.236,2.11-5.152,3.315-7.388,5.421-5.844,5.502-8.794,13.257-7.883,20.798ZM481.008,199.563c2.35-2.115,5.29-3.443,7.611-5.592,3.158-2.703,5.119-6.526,6.272-10.462,1.239,5.805,5.565,10.543,10.66,13.36,8.3,4.752,12.635,15.371,9.805,24.533-1.975,7.133-7.987,13.066-15.265,14.631-9.667,2.76-20.792-2.774-24.525-12.065-3.67-8.19-1.282-18.505,5.441-24.405Z" fill="#262625"/>
        <path d="M218.386,518.059c3.343-.403,6.644-1.562,9.688-3.56,4.798-3.15,8.358-8.131,9.781-13.687,2.589-10.108-2.36-21.077-11.44-26.123-9.676-5.377-22.243-2.697-29.369,5.611-.446.52-.87,1.061-1.268,1.619-1.772,2.485-3.148,5.244-5.484,7.286-3.433,3.04-14.656,5.787-14.698,5.814,1.33.37,7.022,2.105,8.873,2.739,2.977.967,5.569,2.762,7.668,5.048,2.113,2.234,3.319,5.146,5.427,7.379,5.509,5.837,13.273,8.783,20.823,7.873ZM199.211,509.029c-2.118-2.348-3.447-5.283-5.598-7.602-2.706-3.154-6.534-5.113-10.475-6.265,5.812-1.238,10.555-5.558,13.376-10.647,4.758-8.29,15.389-12.62,24.563-9.793,7.141,1.973,13.081,7.977,14.648,15.247,2.763,9.656-2.778,20.768-12.079,24.495-8.2,3.666-18.528,1.28-24.434-5.435Z" fill="#262625"/>
        <path d="M518.087,771.338c-.403-3.339-1.564-6.636-3.565-9.677-3.154-4.792-8.141-8.348-13.703-9.769-10.12-2.586-21.102,2.358-26.154,11.427-5.384,9.665-2.7,22.216,5.617,29.334.521.446,1.062.869,1.621,1.266,2.488,1.77,5.25,3.144,7.295,5.477,3.044,3.429,5.794,14.638,5.821,14.681.371-1.329,2.108-7.013,2.742-8.862.969-2.974,2.766-5.563,5.054-7.659,2.236-2.11,5.152-3.315,7.388-5.421,5.844-5.502,8.794-13.257,7.883-20.798ZM509.046,790.49c-2.35,2.115-5.29,3.443-7.611,5.592-3.158,2.703-5.119,6.526-6.272,10.462-1.239-5.805-5.565-10.543-10.66-13.36-8.3-4.752-12.635-15.371-9.805-24.533,1.975-7.133,7.987-13.066,15.265-14.631,9.667-2.76,20.792,2.774,24.525,12.065,3.67,8.19,1.282,18.505-5.441,24.405Z" fill="#262625"/>
        <path d="M771.667,471.994c-3.343.403-6.644,1.562-9.688,3.56-4.798,3.15-8.358,8.131-9.781,13.687-2.589,10.108,2.36,21.077,11.44,26.123,9.676,5.377,22.243,2.697,29.369-5.611.446-.52.87-1.061,1.268-1.619,1.772-2.485,3.148-5.244,5.484-7.286,3.433-3.04,14.656-5.787,14.698-5.814-1.33-.37-7.022-2.105-8.873-2.739-2.977-.967-5.569-2.762-7.668-5.048-2.113-2.234-3.319-5.146-5.427-7.379-5.509-5.837-13.273-8.783-20.823-7.873ZM790.842,481.024c2.118,2.348,3.447,5.283,5.598,7.602,2.706,3.154,6.534,5.113,10.475,6.265-5.812,1.238-10.555,5.558-13.376,10.647-4.758,8.29-15.389,12.62-24.563,9.793-7.141-1.973-13.081-7.977-14.648-15.247-2.763-9.656,2.778-20.768,12.079-24.495,8.2-3.666,18.528-1.28,24.434,5.435Z" fill="#262625"/>
      </g>
    </g>
  </g>
</svg>