<?xml version="1.0" encoding="UTF-8"?>
<svg id="b" data-name="Layer 2" xmlns="http://www.w3.org/2000/svg" width="999.736" height="1000" viewBox="0 0 999.736 1000">
  <g id="c" data-name="astrowheel-lunacco">
    <path id="d" data-name="anchor-house-2" d="M304.895,647.13c-2.647,3.424-4.553,7.484-5.447,12.059-1.408,7.211.007,14.922,3.888,21.187,7.06,11.399,21.736,16.659,34.636,12.842,13.748-4.067,22.614-17.979,21.33-31.929-.08-.874-.2-1.745-.359-2.608-.71-3.844-2.032-7.568-1.819-11.533.276-5.861,7.866-18.601,7.879-18.664-1.547.889-8.305,4.556-10.568,5.686-3.591,1.865-7.603,2.638-11.627,2.52-3.987-.058-7.786-1.553-11.769-1.616-10.408-.163-20.166,4.322-26.145,12.054ZM330.627,637.619c4.098.155,8.03,1.558,12.131,1.658,5.38.336,10.661-1.423,15.295-4.006-4.102,6.432-4.372,14.638-2.189,21.768,3.409,11.764-2.174,25.375-13.095,31.259-8.29,4.784-19.244,4.866-27.421-.19-11.478-6.09-16.803-21.092-11.862-32.946,4.003-10.79,15.557-18.125,27.142-17.542Z" fill="#262625"/>
    <path id="e" data-name="anchor-house-3" d="M405.571,723.61c-.558,4.271-.151,8.728,1.394,13.131,2.435,6.939,7.567,12.919,14.103,16.431,11.89,6.389,27.265,3.703,36.503-5.966,9.845-10.305,10.474-26.727,2.293-38.175-.513-.717-1.057-1.412-1.633-2.081-2.562-2.978-5.595-5.552-7.419-9.09-2.731-5.212-2.614-19.99-2.634-20.051-.889,1.533-4.884,8.043-6.271,10.138-2.165,3.387-5.248,6.036-8.792,7.918-3.483,1.917-7.53,2.496-11.011,4.407-9.096,4.994-15.275,13.692-16.534,23.338ZM423.036,702.679c3.627-1.887,7.744-2.612,11.346-4.549,4.829-2.363,8.511-6.492,11.216-11.015-.293,7.595,3.631,14.834,9.134,19.931,8.913,8.506,10.975,23.048,4.499,33.532-4.755,8.233-14.199,13.708-23.844,13.364-13.026.389-25.24-9.976-26.967-22.68-2.001-11.319,4.288-23.372,14.616-28.583Z" fill="#262625"/>
    <path id="f" data-name="anchor-house-4" d="M531.514,740.175c1.681,3.974,4.292,7.633,7.861,10.684,5.625,4.808,13.1,7.455,20.54,7.272,13.535-.333,25.489-10.244,28.589-23.176,3.304-13.782-4.472-28.314-17.359-34.192-.807-.368-1.631-.701-2.469-.997-3.728-1.315-7.658-2.048-11.032-4.212-5.006-3.167-12.393-16.022-12.441-16.065.007,1.766-.154,9.375-.293,11.874-.159,4.001-1.487,7.816-3.602,11.195-2.045,3.378-5.256,5.877-7.302,9.249-5.347,8.813-6.29,19.394-2.493,28.369ZM536.032,713.431c2.185-3.424,5.383-6.082,7.52-9.537,2.985-4.429,4.081-9.821,4.132-15.073,3.594,6.722,10.661,11.055,18.01,12.755,12.029,2.969,21.184,14.545,20.887,26.82.053,9.476-5.351,18.877-13.877,23.337-11.084,6.763-26.913,3.813-34.847-6.337-7.468-8.816-8.13-22.357-1.825-31.965Z" fill="#262625"/>
    <path id="g" data-name="anchor-house-5" d="M648.977,692.384c3.47,2.612,7.585,4.493,12.221,5.374,7.308,1.389,15.122-.007,21.472-3.836,11.552-6.966,16.883-21.447,13.015-34.176-4.122-13.566-18.22-22.314-32.359-21.047-.886.079-1.768.197-2.643.355-3.895.7-7.67,2.005-11.688,1.795-5.94-.272-18.851-7.761-18.915-7.775.9,1.526,4.617,8.195,5.763,10.428,1.89,3.543,2.673,7.503,2.554,11.472-.059,3.934-1.574,7.682-1.637,11.613-.165,10.27,4.38,19.899,12.217,25.798ZM639.338,666.994c.158-4.043,1.579-7.923,1.68-11.97.34-5.308-1.442-10.519-4.06-15.092,6.519,4.048,14.835,4.314,22.061,2.16,11.922-3.364,25.716,2.145,31.679,12.922,4.848,8.18,4.932,18.988-.192,27.057-6.172,11.326-21.376,16.58-33.39,11.704-10.935-3.95-18.369-15.351-17.778-26.782Z" fill="#262625"/>
    <path id="h" data-name="anchor-house-6" d="M726.486,593.045c4.328.55,8.845.149,13.307-1.375,7.033-2.402,13.093-7.467,16.652-13.916,6.475-11.732,3.753-26.903-6.047-36.019-10.444-9.715-27.086-10.335-38.689-2.263-.727.506-1.431,1.043-2.109,1.611-3.019,2.528-5.627,5.52-9.212,7.321-5.282,2.695-20.258,2.579-20.321,2.599,1.553.877,8.151,4.819,10.275,6.187,3.432,2.136,6.117,5.178,8.025,8.675,1.943,3.436,2.53,7.43,4.467,10.865,5.061,8.976,13.877,15.072,23.652,16.314ZM705.273,575.812c-1.912-3.579-2.647-7.641-4.61-11.195-2.395-4.765-6.579-8.398-11.163-11.067,7.697.29,15.034-3.583,20.2-9.013,8.62-8.795,23.358-10.829,33.983-4.439,8.344,4.692,13.893,14.011,13.544,23.527.394,12.853-10.11,24.905-22.985,26.609-11.471,1.974-23.687-4.231-28.967-14.422Z" fill="#262625"/>
    <path id="i" data-name="anchor-house-7" d="M743.274,468.774c4.027-1.659,7.736-4.235,10.828-7.756,4.873-5.55,7.555-12.926,7.369-20.267-.338-13.355-10.382-25.15-23.488-28.21-13.967-3.261-28.695,4.413-34.652,17.128-.373.797-.711,1.61-1.01,2.436-1.333,3.679-2.076,7.557-4.269,10.885-3.209,4.94-16.237,12.228-16.281,12.276,1.79-.006,9.501.152,12.033.289,4.055.157,7.921,1.467,11.346,3.554,3.424,2.018,5.956,5.186,9.373,7.205,8.931,5.276,19.655,6.206,28.75,2.459ZM716.17,464.316c-3.47-2.156-6.164-5.311-9.665-7.421-4.489-2.945-9.953-4.027-15.276-4.077,6.812-3.546,11.204-10.52,12.926-17.771,3.009-11.87,14.741-20.903,27.181-20.61,9.604-.053,19.131,5.28,23.651,13.693,6.854,10.937,3.864,26.556-6.422,34.385-8.934,7.369-22.657,8.022-32.395,1.801Z" fill="#262625"/>
    <path id="j" data-name="anchor-house-8" d="M694.84,352.87c2.647-3.424,4.553-7.484,5.447-12.059,1.408-7.211-.007-14.922-3.888-21.187-7.06-11.399-21.736-16.659-34.636-12.842-13.748,4.067-22.614,17.979-21.33,31.929.08.874.2,1.745.359,2.608.71,3.844,2.032,7.568,1.819,11.533-.276,5.861-7.866,18.601-7.879,18.664,1.547-.889,8.305-4.556,10.568-5.686,3.591-1.865,7.603-2.638,11.627-2.52,3.987.058,7.786,1.553,11.769,1.616,10.408.163,20.166-4.322,26.145-12.054ZM669.109,362.381c-4.098-.155-8.03-1.558-12.131-1.658-5.38-.336-10.661,1.423-15.295,4.006,4.102-6.432,4.372-14.638,2.189-21.768-3.409-11.764,2.174-25.375,13.095-31.259,8.29-4.784,19.244-4.866,27.421.19,11.478,6.09,16.803,21.092,11.862,32.946-4.003,10.79-15.557,18.125-27.142,17.542Z" fill="#262625"/>
    <path id="k" data-name="anchor-house-9" d="M594.164,276.39c.558-4.271.151-8.728-1.394-13.131-2.435-6.939-7.567-12.919-14.103-16.431-11.89-6.389-27.265-3.703-36.503,5.966-9.845,10.305-10.474,26.727-2.293,38.175.513.717,1.057,1.412,1.633,2.081,2.562,2.978,5.595,5.552,7.419,9.09,2.731,5.212,2.614,19.99,2.634,20.051.889-1.533,4.884-8.043,6.271-10.138,2.165-3.387,5.248-6.036,8.792-7.918,3.483-1.917,7.53-2.496,11.011-4.407,9.096-4.994,15.275-13.692,16.534-23.338ZM576.7,297.321c-3.627,1.887-7.744,2.612-11.346,4.549-4.829,2.363-8.511,6.492-11.216,11.015.293-7.595-3.631-14.834-9.134-19.931-8.913-8.506-10.975-23.048-4.499-33.532,4.755-8.233,14.199-13.708,23.844-13.364,13.026-.389,25.24,9.976,26.967,22.68,2.001,11.319-4.288,23.372-14.616,28.583Z" fill="#262625"/>
    <path id="l" data-name="anchor-house-10" d="M468.222,259.825c-1.681-3.974-4.292-7.633-7.861-10.684-5.625-4.808-13.1-7.455-20.54-7.272-13.535.333-25.489,10.244-28.589,23.176-3.304,13.782,4.472,28.314,17.359,34.192.807.368,1.631.701,2.469.997,3.728,1.315,7.658,2.048,11.032,4.212,5.006,3.167,12.393,16.022,12.441,16.065-.007-1.766.154-9.375.293-11.874.159-4.001,1.487-7.816,3.602-11.195,2.045-3.378,5.256-5.877,7.302-9.249,5.347-8.813,6.29-19.394,2.493-28.369ZM463.703,286.569c-2.185,3.424-5.383,6.082-7.52,9.537-2.985,4.429-4.081,9.821-4.132,15.073-3.594-6.722-10.661-11.055-18.01-12.755-12.029-2.969-21.184-14.545-20.887-26.82-.053-9.476,5.351-18.877,13.877-23.337,11.084-6.763,26.913-3.813,34.847,6.337,7.468,8.816,8.13,22.357,1.825,31.965Z" fill="#262625"/>
    <path id="m" data-name="anchor-house-11" d="M350.759,307.616c-3.47-2.612-7.585-4.493-12.221-5.374-7.308-1.389-15.122.007-21.472,3.836-11.552,6.966-16.883,21.447-13.015,34.176,4.122,13.566,18.22,22.314,32.359,21.047.886-.079,1.768-.197,2.643-.355,3.895-.7,7.67-2.005,11.688-1.795,5.94.272,18.851,7.761,18.915,7.775-.9-1.526-4.617-8.195-5.763-10.428-1.89-3.543-2.673-7.503-2.554-11.472.059-3.934,1.574-7.682,1.637-11.613.165-10.27-4.38-19.899-12.217-25.798ZM360.398,333.006c-.158,4.043-1.579,7.923-1.68,11.97-.34,5.308,1.442,10.519,4.06,15.092-6.519-4.048-14.835-4.314-22.061-2.16-11.922,3.364-25.716-2.145-31.679-12.922-4.848-8.18-4.932-18.988.192-27.057,6.172-11.326,21.376-16.58,33.39-11.704,10.935,3.95,18.369,15.351,17.778,26.782Z" fill="#262625"/>
    <path id="n" data-name="anchor-house-12" d="M273.249,406.955c-4.328-.55-8.845-.149-13.307,1.375-7.033,2.402-13.093,7.467-16.652,13.916-6.475,11.732-3.753,26.903,6.047,36.019,10.444,9.715,27.086,10.335,38.689,2.263.727-.506,1.431-1.043,2.109-1.611,3.019-2.528,5.627-5.52,9.212-7.321,5.282-2.695,20.258-2.579,20.321-2.599-1.553-.877-8.151-4.819-10.275-6.187-3.432-2.136-6.117-5.178-8.025-8.675-1.943-3.436-2.53-7.43-4.467-10.865-5.061-8.976-13.877-15.072-23.652-16.314ZM294.463,424.188c1.912,3.579,2.647,7.641,4.61,11.195,2.395,4.765,6.579,8.398,11.163,11.067-7.697-.29-15.034,3.583-20.2,9.013-8.62,8.795-23.358,10.829-33.983,4.439-8.344-4.692-13.893-14.011-13.544-23.527-.394-12.853,10.11-24.905,22.985-26.609,11.471-1.974,23.687,4.231,28.967,14.422Z" fill="#262625"/>
    <path id="o" data-name="anchor-house-1" d="M256.462,531.226c-4.027,1.659-7.736,4.235-10.828,7.756-4.873,5.55-7.555,12.926-7.369,20.267.338,13.355,10.382,25.15,23.488,28.21,13.967,3.261,28.695-4.413,34.652-17.128.373-.797.711-1.61,1.01-2.436,1.333-3.679,2.076-7.557,4.269-10.885,3.209-4.94,16.237-12.228,16.281-12.276-1.79.006-9.501-.152-12.033-.289-4.055-.157-7.921-1.467-11.346-3.554-3.424-2.018-5.956-5.186-9.373-7.205-8.931-5.276-19.655-6.206-28.75-2.459ZM283.566,535.684c3.47,2.156,6.164,5.311,9.665,7.421,4.489,2.945,9.953,4.027,15.276,4.077-6.812,3.546-11.204,10.52-12.926,17.771-3.009,11.87-14.741,20.903-27.181,20.61-9.604.053-19.131-5.28-23.651-13.693-6.854-10.937-3.864-26.556,6.422-34.385,8.934-7.369,22.657-8.022,32.395-1.801Z" fill="#262625"/>
    <g id="p" data-name="circles">
      <path d="M995.924,435.051c-7.072-61.916-27.824-121.891-58.012-176.468-12.235-21.579-25.816-42.426-40.811-62.229-30.969-40.64-68.001-76.82-109.881-106.46-47.675-34.706-102.403-59.73-159.702-74.399C581.218,3.589,533.138-1.038,485.363.192c-34.629,1.425-69.278,5.358-102.967,13.556-53.076,12.249-104.074,33.545-149.594,63.175-77.092,49.941-140.068,120.719-180.652,202.4-18.635,37.448-32.878,77.073-41.365,117.967C.164,445.494-2.467,495.328,2.251,544.4c4.738,44.027,15.302,87.448,31.464,128.762,13.056,33.993,30.702,66.133,50.84,96.515,34.886,52.391,79.485,98.35,130.454,135.71,37.21,26.888,77.913,49.151,121.167,65.01,18.042,6.295,36.231,12.307,54.836,16.777,22.938,5.192,46.192,9.223,69.673,11.048,50.445,4.509,101.572.322,150.8-11.253,57.744-14.288,113.095-38.464,161.938-72.135,32.927-22.516,62.878-49.131,89.97-78.206,36.805-40.171,67.952-85.535,91.038-134.715,17.557-38.044,30.781-78.157,37.824-119.421,3.65-21.335,6.518-42.855,7.201-64.512.643-27.669.455-55.485-3.531-82.929ZM931.068,734.6c-19.169,33.916-42.443,65.508-68.466,94.612-23.205,25.483-48.862,48.79-76.399,69.636-49.298,36.746-105.796,63.937-165.4,79.933-89.228,23.59-185.775,20.369-272.847-10.326-46.488-15.899-90.296-39.196-129.831-68.046-48.694-35.262-91.077-78.928-124.905-128.283-21.86-31.759-40.435-65.791-54.352-101.658-15.747-40.23-26.281-82.5-30.603-125.433-4.837-47.765-2.265-96.281,7.488-143.304,5.697-25.942,12.661-51.708,22.651-76.39,10.455-27.181,23.412-53.396,38.308-78.479,17.112-27.894,36.291-54.684,58.654-78.742,34.926-38.581,75.984-71.706,121.156-97.95,36.498-20.935,75.954-36.795,116.804-47.306,45.014-11.458,91.592-17.216,138.1-16.162,76.261,1.279,152.363,20.105,219.623,55.768,58.921,31.71,111.305,75.18,153.045,127.044,55.539,69.012,93.808,152.283,105.509,239.916,3.333,22.506,4.599,45.286,4.53,68.026.396,82.676-21.869,165.205-63.066,237.144Z" fill="#262625"/>
      <path d="M924.529,265.96c-11.861-20.92-25.027-41.13-39.564-60.328-30.023-39.398-65.924-74.473-106.523-103.208-46.219-33.646-99.274-57.905-154.823-72.126-44.886-11.543-91.498-16.028-137.812-14.836-33.571,1.381-67.161,5.194-99.821,13.142-51.454,11.874-100.895,32.52-145.023,61.245-74.736,48.415-135.789,117.031-175.132,196.216-18.065,36.304-31.874,74.719-40.101,114.363-10.299,46.731-12.849,95.042-8.275,142.615,4.593,42.682,14.834,84.776,30.502,124.828,12.657,32.955,29.764,64.112,49.287,93.566,33.82,50.79,77.057,95.345,126.468,131.564,36.074,26.067,75.532,47.649,117.465,63.024,17.49,6.103,35.124,11.931,53.161,16.264,22.237,5.034,44.781,8.941,67.544,10.711,48.904,4.371,98.469.312,146.193-10.909,55.98-13.852,109.64-37.288,156.99-69.931,31.922-21.828,60.957-47.63,87.221-75.816,35.68-38.944,65.876-82.922,88.257-130.599,17.02-36.882,29.841-75.769,36.668-115.773,3.538-20.683,6.319-41.546,6.981-62.541.623-26.824.441-53.789-3.423-80.396-6.856-60.025-26.974-118.167-56.239-171.076ZM917.893,727.433c-18.583,32.879-41.146,63.507-66.375,91.721-22.496,24.704-47.369,47.299-74.065,67.509-47.791,35.623-102.563,61.983-160.346,77.491-86.502,22.869-180.099,19.747-264.511-10.01-45.068-15.413-87.537-37.998-125.865-65.967-47.206-34.185-88.295-76.516-121.089-124.364-21.192-30.788-39.2-63.781-52.691-98.552-15.266-39.001-25.478-79.979-29.668-121.601-4.689-46.305-2.196-93.339,7.259-138.925,5.523-25.149,12.274-50.128,21.958-74.056,10.135-26.351,22.697-51.765,37.138-76.081,16.589-27.042,35.182-53.014,56.863-76.337,33.858-37.402,73.662-69.515,117.455-94.957,35.383-20.295,73.634-35.67,113.236-45.861,43.639-11.108,88.794-16.69,133.881-15.669,73.931,1.24,147.708,19.491,212.913,54.064,57.121,30.741,107.904,72.883,148.37,123.162,53.842,66.903,90.941,147.63,102.285,232.586,3.231,21.819,4.459,43.902,4.392,65.948.384,80.15-21.201,160.157-61.139,229.899Z" fill="#262625"/>
      <path d="M591.471,342.34c-31.869-19.012-70.01-27.416-107.052-23.921-51.256,4.265-99.297,32.178-129.841,72.73-10.237,13.449-18.19,28.489-24.431,44.115-14.876,38.922-15.559,82.832-2.532,122.34,2.67,7.827,6.231,15.323,9.703,22.828,13.719,27.689,34.926,51.503,60.217,69.49,31.236,21.901,69.802,33.828,108.179,32.305,33.808-.566,67.092-11.809,94.945-30.558,22.76-15.713,41.928-36.414,55.984-60.033,9.545-16.904,17.013-35.096,20.801-54.128,4.075-17.968,4.589-36.551,3.244-54.86-4.955-57.144-38.951-111.292-89.218-140.307ZM677.573,511.068c-2.126,33.866-14.105,67.226-34.52,94.573-15.054,20.72-34.668,38.102-57.032,50.849-26.706,14.894-57.497,23.121-88.249,22.243-36.874-.254-73.333-13.059-102.709-34.93-29.248-21.755-51.889-52.196-63.669-86.443-12.473-36.248-12.68-76.429-.722-112.833,14.827-45.256,48.704-84.149,92.027-105.084,17.398-8.95,36.528-14.201,55.915-16.885,33.798-4.431,68.931,1.376,99.386,16.533,45.796,21.901,80.267,64.464,93.481,112.785,5.826,19.129,6.973,39.332,6.093,59.193Z" fill="#262625"/>
      <path d="M451.618,100.207c-.106-2.691.009-5.383.364-8.049-39.258,4.649-77.528,15.406-113.527,31.288,1.364,2.25,2.54,4.622,3.52,7.09,34.688-15.513,71.944-25.082,109.643-30.329Z" fill="#262625"/>
      <path d="M451.632,899.865c-38.223-4.757-75.671-15.316-110.849-30.894-1.161,2.456-2.524,4.799-4.073,7.008,36.505,16.286,75.459,27.237,115.188,32.081-.319-2.718-.41-5.461-.266-8.195Z" fill="#262625"/>
      <path d="M180.079,741.013c-2.158,1.532-4.444,2.897-6.845,4.069,23.065,30.437,50.361,57.779,80.641,81.292,1.242-2.304,2.669-4.497,4.262-6.559-29.418-22.666-55.726-49.275-78.058-78.802Z" fill="#262625"/>
      <path d="M867.055,336.659c7.849,17.8,14.393,36.156,19.518,54.896,6.068,19.925,9.88,40.368,12.033,61.012,2.626-.246,5.26-.289,7.88-.106-4.48-41.063-15.578-81.323-32.365-119.154-2.248,1.296-4.608,2.419-7.066,3.351Z" fill="#262625"/>
      <path d="M548.134,99.604c37.675,4.427,74.699,14.268,109.447,29.294.938-2.516,2.094-4.927,3.428-7.225-35.963-15.456-74.277-25.549-113.253-29.982.341,2.623.469,5.269.379,7.913Z" fill="#262625"/>
      <path d="M744.73,170.124c-1.363,2.221-2.911,4.319-4.609,6.286,29.789,22.362,56.306,48.932,78.764,78.528,2.012-1.635,4.165-3.104,6.428-4.407-22.94-30.325-50.042-57.543-80.583-80.407Z" fill="#262625"/>
      <path d="M101.607,547.463c-2.642.228-5.289.243-7.922.038,3.214,27.944,9.221,55.569,18.034,82.298,3.772,11.057,8.334,21.821,13.139,32.48,2.151-1.421,4.428-2.668,6.802-3.741-4.197-9.607-8.018-19.375-11.428-29.289-9.127-26.525-15.32-53.987-18.626-81.786Z" fill="#262625"/>
      <path d="M740.866,821.53c1.526,2.27,2.857,4.676,3.979,7.193,30.091-23.185,57.017-50.347,80.004-80.428-2.47-1.108-4.836-2.403-7.066-3.886-21.972,28.994-47.95,54.945-76.917,77.122Z" fill="#262625"/>
      <path d="M117.425,354.124c-12.095,31.646-20.003,64.757-23.822,98.334,2.643-.182,5.301-.155,7.944.085,3.096-26.317,8.777-52.335,17.06-77.549,4.15-12.667,8.964-25.112,14.396-37.286-2.507-.919-4.91-2.045-7.203-3.342-2.934,6.529-5.723,13.119-8.374,19.757Z" fill="#262625"/>
      <path d="M898.243,547.378c-4.732,39.408-15.356,78.177-31.422,114.583,2.365,1.188,4.621,2.557,6.744,4.098,11.69-26.182,20.856-53.452,26.447-81.542,2.768-12.204,4.795-24.536,6.21-36.938-2.658.145-5.327.082-7.979-.201Z" fill="#262625"/>
      <path d="M548.122,900.33c.096,2.693-.031,5.385-.396,8.052,39.446-4.405,78.105-15.075,114.417-30.982-1.695-2.137-3.218-4.413-4.531-6.817-34.788,15.06-71.793,25.279-109.49,29.747Z" fill="#262625"/>
      <path d="M174.788,251.692c2.371,1.405,4.605,3.01,6.692,4.781,22.393-29.186,48.741-55.419,78.181-77.662-1.711-2-3.26-4.139-4.626-6.399-30.209,22.733-57.338,49.453-80.247,79.28Z" fill="#262625"/>
    </g>
    <path id="q" data-name="anchor-cusp-5" d="M700.383,800.029c-26.771,0-48.551,21.491-48.551,47.906,0,8.187,2.096,15.9,5.781,22.648,1.313,2.405,2.836,4.68,4.531,6.817,8.894,11.214,22.723,18.442,38.24,18.442,26.771,0,48.551-21.491,48.551-47.907,0-6.831-1.467-13.326-4.089-19.212-1.122-2.518-2.453-4.923-3.979-7.193-8.701-12.945-23.596-21.501-40.483-21.501ZM744.977,847.935c0,24.263-20.005,44.003-44.595,44.003-13.902,0-26.335-6.312-34.52-16.181-1.744-2.103-3.296-4.366-4.627-6.765-3.471-6.258-5.448-13.433-5.448-21.056,0-24.263,20.005-44.002,44.595-44.002,15.612,0,29.367,7.963,37.336,19.983,1.517,2.288,2.826,4.721,3.896,7.276,2.162,5.165,3.363,10.817,3.363,16.743Z" fill="#262625"/>
    <path id="r" data-name="anchor-cusp-6" d="M844.866,656.761c-26.771,0-48.551,21.491-48.551,47.906,0,16.528,8.527,31.128,21.468,39.742,2.229,1.484,4.596,2.779,7.066,3.886,6.108,2.739,12.882,4.279,20.017,4.279,26.771,0,48.551-21.491,48.551-47.907,0-15.828-7.825-29.881-19.852-38.609-2.123-1.54-4.379-2.909-6.744-4.098-6.599-3.317-14.056-5.2-21.956-5.2ZM889.46,704.667c0,24.263-20.005,44.003-44.595,44.003-6.243,0-12.187-1.277-17.586-3.573-2.506-1.065-4.893-2.35-7.138-3.831-11.971-7.899-19.871-21.354-19.871-36.599,0-24.263,20.005-44.002,44.595-44.002,7.331,0,14.248,1.766,20.356,4.872,2.365,1.203,4.608,2.604,6.705,4.188,10.649,8.049,17.534,20.714,17.534,34.942Z" fill="#262625"/>
    <path id="s" data-name="anchor-cusp-8" d="M801.151,291.927c0,26.416,21.78,47.907,48.551,47.907,6.113,0,11.96-1.131,17.352-3.175,2.458-.931,4.819-2.055,7.066-3.351,14.419-8.316,24.133-23.745,24.133-41.38,0-26.415-21.78-47.906-48.551-47.906-8.887,0-17.217,2.379-24.39,6.51-2.263,1.303-4.416,2.772-6.428,4.407-10.821,8.794-17.733,22.11-17.733,36.989ZM849.702,247.925c24.59,0,44.595,19.739,44.595,44.002,0,16.047-8.754,30.109-21.793,37.797-2.232,1.316-4.59,2.443-7.051,3.363-4.901,1.832-10.207,2.843-15.75,2.843-24.59,0-44.595-19.739-44.595-44.003,0-13.596,6.284-25.769,16.133-33.846,2.006-1.645,4.164-3.112,6.443-4.394,6.501-3.659,14.013-5.761,22.018-5.761Z" fill="#262625"/>
    <path id="t" data-name="anchor-cusp-9" d="M654.616,145.389c0,26.416,21.78,47.907,48.551,47.907,14.786,0,28.041-6.564,36.953-16.885,1.699-1.967,3.246-4.065,4.609-6.286,4.433-7.225,6.988-15.691,6.988-24.736,0-26.415-21.78-47.906-48.551-47.906-18.03,0-33.785,9.756-42.158,24.191-1.333,2.299-2.49,4.709-3.428,7.225-1.917,5.144-2.965,10.698-2.965,16.49ZM703.167,101.386c24.59,0,44.595,19.739,44.595,44.002,0,8.163-2.272,15.81-6.214,22.369-1.344,2.237-2.885,4.344-4.597,6.305-8.185,9.375-20.289,15.329-33.784,15.329-24.59,0-44.595-19.739-44.595-44.003,0-5.227.933-10.241,2.636-14.896.927-2.533,2.088-4.955,3.448-7.249,7.743-13.06,22.101-21.857,38.511-21.857Z" fill="#262625"/>
    <path id="u" data-name="anchor-cusp-11" d="M296.762,195.865c26.771,0,48.551-21.491,48.551-47.907,0-6.146-1.192-12.019-3.338-17.423-.98-2.468-2.156-4.84-3.52-7.09-8.485-13.997-23.995-23.393-41.692-23.393-26.771,0-48.551,21.491-48.551,47.906,0,8.929,2.495,17.29,6.824,24.454,1.365,2.26,2.914,4.399,4.626,6.399,8.913,10.419,22.234,17.054,37.102,17.054ZM252.167,147.959c0-24.263,20.005-44.002,44.595-44.002,16.094,0,30.222,8.457,38.065,21.103,1.394,2.248,2.581,4.632,3.553,7.12,1.915,4.902,2.977,10.219,2.977,15.779,0,24.263-20.005,44.003-44.595,44.003-13.583,0-25.758-6.03-33.944-15.511-1.719-1.991-3.26-4.134-4.602-6.406-3.838-6.497-6.048-14.039-6.048-22.085Z" fill="#262625"/>
    <path id="v" data-name="anchor-cusp-12" d="M149.866,340.693c26.771,0,48.551-21.491,48.551-47.907,0-14.508-6.579-27.521-16.938-36.314-2.086-1.771-4.321-3.376-6.692-4.781-7.29-4.321-15.815-6.812-24.921-6.812-26.771,0-48.551,21.491-48.551,47.906,0,17.778,9.872,33.313,24.484,41.58,2.293,1.297,4.697,2.423,7.203,3.342,5.256,1.927,10.936,2.985,16.864,2.985ZM105.272,292.786c0-24.263,20.005-44.002,44.595-44.002,8.213,0,15.909,2.212,22.525,6.049,2.387,1.385,4.63,2.982,6.707,4.766,9.402,8.073,15.363,19.953,15.363,33.188,0,24.263-20.005,44.003-44.595,44.003-5.352,0-10.486-.937-15.244-2.65-2.51-.904-4.909-2.032-7.186-3.345-13.243-7.639-22.164-21.81-22.164-38.007Z" fill="#262625"/>
    <path id="w" data-name="anchor-cusp-2" d="M200.342,702.115c0-26.415-21.78-47.906-48.551-47.906-7.179,0-13.992,1.558-20.13,4.329-2.374,1.072-4.651,2.32-6.802,3.741-13.024,8.601-21.619,23.245-21.619,39.836,0,26.416,21.78,47.907,48.551,47.907,7.694,0,14.971-1.783,21.442-4.94,2.401-1.172,4.688-2.536,6.846-4.069,12.258-8.704,20.263-22.892,20.263-38.898ZM151.791,746.118c-24.59,0-44.595-19.739-44.595-44.003,0-15.004,7.656-28.272,19.31-36.218,2.123-1.448,4.38-2.714,6.748-3.786,5.649-2.559,11.924-3.997,18.537-3.997,24.59,0,44.595,19.739,44.595,44.002,0,14.725-7.376,27.774-18.665,35.766-2.162,1.531-4.464,2.88-6.89,4.015-5.778,2.704-12.232,4.222-19.04,4.222Z" fill="#262625"/>
    <path id="x" data-name="anchor-cusp-3" d="M345.313,848.796c0-26.415-21.78-47.906-48.551-47.906-15.74,0-29.748,7.434-38.625,18.925-1.593,2.062-3.02,4.255-4.262,6.559-3.609,6.695-5.663,14.324-5.663,22.422,0,26.416,21.78,47.907,48.551,47.907,16.547,0,31.179-8.215,39.948-20.723,1.549-2.209,2.912-4.552,4.073-7.008,2.9-6.136,4.531-12.97,4.531-20.175ZM296.762,892.798c-24.59,0-44.595-19.739-44.595-44.003,0-7.194,1.77-13.983,4.885-19.985,1.211-2.333,2.622-4.548,4.219-6.618,8.153-10.564,21.026-17.399,35.49-17.399,24.59,0,44.595,19.739,44.595,44.002,0,6.635-1.505,12.928-4.182,18.576-1.163,2.453-2.55,4.78-4.132,6.962-8.096,11.166-21.337,18.465-36.281,18.465Z" fill="#262625"/>
    <path id="y" data-name="anchor-cusp-4" d="M548.122,900.33c-.047-1.311-.129-2.622-.289-3.93-.84-6.871-3.257-13.656-7.425-19.914-6.569-9.862-16.958-17.179-28.546-20.104-21.08-5.321-43.959,4.852-54.482,23.515-3.523,6.247-5.385,13.08-5.749,19.968-.144,2.734-.053,5.476.266,8.195,1.434,12.239,7.46,23.983,17.185,32.205,1.085.918,2.212,1.788,3.377,2.606,5.184,3.642,10.937,6.471,15.196,11.272,6.34,7.056,12.07,30.124,12.126,30.212.772-2.734,4.391-14.433,5.713-18.237,2.018-6.119,5.761-11.448,10.529-15.761,4.659-4.343,10.732-6.822,15.391-11.155,9.04-8.409,14.747-19.375,16.313-30.818.365-2.667.493-5.359.397-8.052ZM529,935.813c-4.896,4.353-11.019,7.086-15.856,11.507-6.578,5.563-10.663,13.43-13.066,21.53-2.581-11.946-11.592-21.696-22.206-27.494-12.007-6.792-20.025-19.407-21.832-32.797-.367-2.714-.476-5.458-.313-8.194.191-3.202.749-6.39,1.72-9.496,4.115-14.679,16.637-26.888,31.8-30.109,20.138-5.68,43.313,5.709,51.088,24.829,2.186,4.818,3.336,9.994,3.543,15.213.106,2.678-.037,5.367-.419,8.025-1.476,10.281-6.512,20.097-14.459,26.986Z" fill="#262625"/>
    <path id="z" data-name="anchor-cusp-7" d="M968.074,494.449c-6.202-1.991-11.601-5.685-15.973-10.389-4.402-4.597-6.914-10.589-11.305-15.186-9.273-9.707-21.615-15.523-34.31-16.412-2.62-.183-5.253-.14-7.88.106-.396.037-.792.057-1.187.104-6.964.829-13.84,3.214-20.181,7.327-9.995,6.482-17.41,16.733-20.375,28.167-5.393,20.801,4.917,43.375,23.832,53.759,5.517,3.029,11.486,4.807,17.549,5.454,2.652.283,5.321.346,7.979.201,13.471-.732,26.646-6.831,35.652-17.202.93-1.071,1.812-2.183,2.641-3.332,3.691-5.115,6.557-10.792,11.423-14.994,7.151-6.256,30.529-11.91,30.619-11.965-2.771-.762-14.627-4.332-18.483-5.637ZM942.981,521.704c-7.403,12.744-21.634,20.937-36.327,21.844-2.648.163-5.311.087-7.952-.24-2.322-.287-4.627-.762-6.888-1.451-14.876-4.06-27.25-16.416-30.514-31.378-5.756-19.871,5.786-42.738,25.163-50.41,4.001-1.767,8.247-2.843,12.559-3.289,2.622-.271,5.267-.314,7.899-.124,11.523.832,22.771,5.982,30.442,14.597,4.411,4.831,7.181,10.873,11.662,15.645,5.638,6.49,13.61,10.521,21.82,12.893-12.106,2.547-21.988,11.438-27.863,21.911Z" fill="#262625"/>
    <path id="aa" data-name="anchor-cusp-1" d="M101.607,547.463c.511-.044,1.022-.073,1.531-.134,6.964-.829,13.84-3.214,20.181-7.327,9.995-6.482,17.41-16.733,20.375-28.167,5.393-20.801-4.917-43.375-23.832-53.759-5.75-3.157-11.99-4.959-18.317-5.533-2.643-.24-5.3-.267-7.944-.085-13.215.91-26.077,6.982-34.919,17.165-.93,1.071-1.812,2.183-2.641,3.332-3.691,5.115-6.557,10.792-11.423,14.994-7.151,6.256-30.529,11.91-30.619,11.965,2.771.762,14.627,4.332,18.483,5.637,6.202,1.991,11.601,5.685,15.973,10.389,4.402,4.597,6.914,10.59,11.305,15.186,9.179,9.608,21.365,15.396,33.923,16.375,2.633.205,5.281.19,7.922-.038ZM93.209,543.304c-11.373-.927-22.439-6.051-30.015-14.559-4.411-4.831-7.181-10.873-11.662-15.645-5.638-6.49-13.61-10.521-21.82-12.893,12.106-2.547,21.988-11.438,27.863-21.911,7.275-12.523,21.143-20.645,35.563-21.784,2.647-.209,5.31-.186,7.957.093,2.578.271,5.139.774,7.647,1.538,14.876,4.06,27.25,16.416,30.514,31.378,5.756,19.871-5.786,42.738-25.163,50.41-4.131,1.824-8.521,2.914-12.977,3.332-2.627.246-5.275.257-7.908.042Z" fill="#262625"/>
    <path id="ab" data-name="anchor-cusp-10" d="M451.618,100.207c.05,1.253.131,2.506.284,3.756.84,6.871,3.257,13.656,7.425,19.914,6.569,9.862,16.958,17.179,28.546,20.104,21.08,5.321,43.959-4.852,54.482-23.515,3.674-6.517,5.534-13.671,5.779-20.861.09-2.643-.038-5.29-.379-7.913-1.561-12.018-7.539-23.509-17.102-31.594-1.085-.918-2.212-1.788-3.377-2.606-5.183-3.642-10.937-6.471-15.196-11.272-6.34-7.056-12.07-30.124-12.126-30.212-.772,2.734-4.391,14.433-5.713,18.237-2.018,6.119-5.762,11.448-10.529,15.761-4.659,4.343-10.732,6.822-15.391,11.155-9.087,8.453-14.81,19.488-16.341,30.995-.355,2.667-.47,5.358-.364,8.049ZM470.736,64.549c4.896-4.353,11.019-7.086,15.856-11.507,6.578-5.563,10.663-13.429,13.066-21.53,2.581,11.946,11.592,21.696,22.206,27.493,11.835,6.694,19.797,19.045,21.754,32.219.389,2.619.536,5.27.434,7.916-.135,3.489-.705,6.969-1.763,10.352-4.115,14.679-16.637,26.888-31.8,30.109-20.138,5.68-43.313-5.709-51.088-24.829-2.169-4.781-3.319-9.913-3.539-15.091-.113-2.671.025-5.354.398-8.007,1.45-10.332,6.494-20.206,14.477-27.126Z" fill="#262625"/>
  </g>
</svg>