<?xml version="1.0" encoding="UTF-8"?>
<svg id="b" data-name="Layer 2" xmlns="http://www.w3.org/2000/svg" width="1010.74" height="1024.608" viewBox="0 0 1010.74 1024.608">
  <g id="c" data-name="Layer 3">
    <g id="d" data-name="solowheel">
      <path d="M490.706.197c48.3-1.26,96.91,3.48,143.72,15.68,57.93,15.03,113.26,40.67,161.46,76.23,42.34,30.37,79.78,67.44,111.09,109.08,15.16,20.29,28.89,41.65,41.26,63.76,30.52,55.92,51.5,117.37,58.65,180.81,4.03,28.12,4.22,56.62,3.57,84.97-.69,22.19-3.59,44.24-7.28,66.1-7.12,42.28-20.49,83.38-38.24,122.36-23.34,50.39-54.83,96.87-92.04,138.03-27.39,29.79-57.67,57.06-90.96,80.13-49.38,34.5-105.34,59.27-163.72,73.91-49.77,11.86-101.46,16.15-152.46,11.53-23.74-1.87-47.25-6-70.44-11.32-18.81-4.58-37.2-10.74-55.44-17.19-43.73-16.25-84.88-39.06-122.5-66.61-51.53-38.28-96.62-85.37-131.89-139.05-20.36-31.13-38.2-64.06-51.4-98.89-16.34-42.33-27.02-86.82-31.81-131.93-4.77-50.28-2.11-101.34,8.63-150.73,8.58-41.9,22.98-82.5,41.82-120.87,41.03-83.69,104.7-156.21,182.64-207.38,46.02-30.36,97.58-52.18,151.24-64.73C420.666,5.687,455.696,1.657,490.706.197ZM517.056,6.867c-47.02-1.08-94.11,4.82-139.62,16.56-41.3,10.77-81.19,27.02-118.09,48.47-45.67,26.89-87.18,60.83-122.49,100.36-22.61,24.65-42,52.1-59.3,80.68-15.06,25.7-28.16,52.56-38.73,80.41-10.1,25.29-17.14,51.69-22.9,78.27-9.86,48.18-12.46,97.89-7.57,146.83,4.37,43.99,15.02,87.3,30.94,128.52,14.07,36.75,32.85,71.62,54.95,104.16,34.2,50.57,77.05,95.31,126.28,131.44,39.97,29.56,84.26,53.43,131.26,69.72,88.03,31.45,185.64,34.75,275.85,10.58,60.26-16.39,117.38-44.25,167.22-81.9,27.84-21.36,53.78-45.24,77.24-71.35,26.31-29.82,49.84-62.19,69.22-96.94,41.65-73.71,64.16-158.27,63.76-242.98.07-23.3-1.21-46.64-4.58-69.7-11.83-89.79-50.52-175.11-106.67-245.82-42.2-53.14-95.16-97.68-154.73-130.17-68-36.54-144.94-55.83-222.04-57.14Z" fill="#262625"/>
      <path d="M491.154,15.843c46.824-1.222,93.949,3.374,139.329,15.201,56.16,14.571,109.8,39.427,156.527,73.901,41.046,29.442,77.343,65.38,107.696,105.747,14.697,19.67,28.007,40.377,39.999,61.812,29.588,54.212,49.927,113.784,56.858,175.286,3.907,27.261,4.091,54.89,3.461,82.374-.669,21.512-3.48,42.888-7.058,64.08-6.902,40.988-19.864,80.833-37.072,118.622-22.627,48.85-53.155,93.91-89.228,133.813-26.553,28.88-55.908,55.317-88.181,77.682-47.871,33.446-102.122,57.459-158.718,71.652-48.249,11.498-98.36,15.657-147.802,11.178-23.015-1.813-45.806-5.817-68.288-10.974-18.235-4.44-36.063-10.412-53.746-16.665-42.394-15.754-82.287-37.867-118.757-64.575-49.956-37.11-93.668-82.762-127.86-134.802-19.738-30.179-37.033-62.103-49.83-95.869-15.841-41.037-26.194-84.167-30.838-127.899-4.624-48.744-2.046-98.244,8.366-146.125,8.318-40.62,22.278-79.979,40.542-117.177,39.776-81.133,101.501-151.437,177.06-201.044,44.614-29.432,94.599-50.586,146.619-62.752,33.019-8.143,66.979-12.05,100.92-13.466ZM516.699,22.309c-45.583-1.047-91.235,4.673-135.354,16.054-40.038,10.441-78.709,26.194-114.482,46.989-44.275,26.068-84.516,58.972-118.748,97.294-21.919,23.897-40.717,50.508-57.488,78.215-14.6,24.915-27.3,50.954-37.547,77.953-9.791,24.517-16.616,50.111-22.2,75.879-9.559,46.708-12.079,94.899-7.339,142.344,4.236,42.646,14.561,84.633,29.995,124.593,13.64,35.627,31.846,69.432,53.271,100.978,33.155,49.025,74.696,92.398,122.422,127.424,38.749,28.657,81.686,51.798,127.25,67.59,85.34,30.489,179.968,33.688,267.422,10.257,58.419-15.889,113.794-42.898,162.111-79.398,26.989-20.707,52.137-43.858,74.88-69.17,25.506-28.909,48.317-60.29,67.105-93.978,40.377-71.458,62.2-153.434,61.812-235.556.068-22.588-1.173-45.215-4.44-67.571-11.469-87.047-48.976-169.76-103.411-238.31-40.911-51.516-92.253-94.696-150.003-126.193-65.922-35.424-140.512-54.124-215.256-55.394Z" fill="#262625"/>
      <g id="e" data-name="houses">
        <path d="M308.251,663.054c-2.676,3.508-4.603,7.668-5.506,12.356-1.423,7.388.007,15.289,3.93,21.709,7.138,11.68,21.975,17.069,35.017,13.158,13.899-4.167,22.863-18.421,21.565-32.715-.081-.896-.202-1.787-.363-2.672-.718-3.938-2.054-7.755-1.839-11.817.279-6.005,7.952-19.059,7.966-19.123-1.564.91-8.397,4.668-10.684,5.826-3.63,1.911-7.687,2.703-11.754,2.582-4.031-.059-7.871-1.591-11.898-1.655-10.523-.167-20.388,4.428-26.433,12.351ZM334.266,653.309c4.143.159,8.118,1.597,12.264,1.699,5.439.344,10.778-1.458,15.463-4.105-4.148,6.591-4.42,14.998-2.213,22.303,3.447,12.053-2.198,25.999-13.239,32.028-8.381,4.901-19.455,4.986-27.723-.195-11.604-6.24-16.988-21.611-11.992-33.757,4.047-11.055,15.728-18.571,27.441-17.974Z" fill="#262625"/>
        <path d="M410.035,741.417c-.564,4.376-.153,8.942,1.409,13.454,2.461,7.11,7.651,13.237,14.258,16.835,12.021,6.546,27.565,3.794,36.905-6.113,9.954-10.559,10.59-27.385,2.318-39.115-.518-.735-1.069-1.447-1.651-2.132-2.59-3.052-5.656-5.689-7.501-9.314-2.761-5.34-2.643-20.481-2.663-20.544-.899,1.57-4.938,8.241-6.34,10.388-2.189,3.47-5.306,6.184-8.889,8.113-3.521,1.964-7.613,2.558-11.132,4.516-9.197,5.117-15.443,14.029-16.716,23.913ZM427.693,719.97c3.667-1.933,7.829-2.676,11.47-4.661,4.882-2.421,8.605-6.652,11.339-11.286-.297,7.781,3.671,15.199,9.235,20.422,9.011,8.715,11.096,23.615,4.548,34.357-4.808,8.435-14.356,14.046-24.106,13.693-13.17.398-25.518-10.221-27.264-23.238-2.023-11.598,4.335-23.947,14.777-29.286Z" fill="#262625"/>
        <path d="M537.364,758.389c1.7,4.072,4.339,7.821,7.947,10.947,5.687,4.927,13.244,7.638,20.766,7.451,13.684-.342,25.769-10.497,28.904-23.747,3.341-14.121-4.521-29.011-17.55-35.033-.816-.377-1.649-.719-2.496-1.021-3.769-1.348-7.743-2.099-11.153-4.316-5.061-3.244-12.529-16.416-12.578-16.461.007,1.809-.156,9.606-.296,12.166-.16,4.099-1.503,8.009-3.641,11.471-2.067,3.461-5.314,6.021-7.383,9.477-5.406,9.029-6.359,19.871-2.52,29.067ZM541.932,730.986c2.209-3.508,5.442-6.232,7.603-9.772,3.017-4.538,4.126-10.063,4.177-15.444,3.634,6.887,10.779,11.327,18.209,13.068,12.162,3.042,21.417,14.903,21.117,27.48.054,9.709-5.41,19.342-14.03,23.912-11.206,6.93-27.21,3.907-35.231-6.493-7.551-9.033-8.219-22.907-1.846-32.751Z" fill="#262625"/>
        <path d="M656.12,709.422c3.508,2.676,7.668,4.603,12.356,5.506,7.388,1.423,15.289-.007,21.709-3.93,11.68-7.138,17.069-21.975,13.158-35.017-4.167-13.899-18.421-22.863-32.715-21.565-.896.081-1.787.202-2.672.363-3.938.718-7.755,2.054-11.817,1.839-6.005-.279-19.059-7.952-19.123-7.966.91,1.564,4.668,8.397,5.826,10.684,1.911,3.63,2.703,7.687,2.582,11.754-.059,4.031-1.591,7.871-1.655,11.898-.167,10.523,4.428,20.388,12.351,26.433ZM646.375,683.407c.159-4.143,1.597-8.118,1.699-12.264.344-5.439-1.458-10.778-4.105-15.463,6.591,4.148,14.998,4.42,22.303,2.213,12.053-3.447,25.999,2.198,32.028,13.239,4.901,8.381,4.986,19.455-.195,27.723-6.24,11.604-21.611,16.988-33.757,11.992-11.055-4.047-18.571-15.728-17.974-27.441Z" fill="#262625"/>
        <path d="M734.483,607.638c4.376.564,8.942.153,13.454-1.409,7.11-2.461,13.237-7.651,16.835-14.258,6.546-12.021,3.794-27.565-6.113-36.905-10.559-9.954-27.385-10.59-39.115-2.318-.735.518-1.447,1.069-2.132,1.651-3.052,2.59-5.689,5.656-9.314,7.501-5.34,2.761-20.481,2.643-20.544,2.663,1.57.899,8.241,4.938,10.388,6.34,3.47,2.189,6.184,5.306,8.113,8.889,1.964,3.521,2.558,7.613,4.516,11.132,5.117,9.197,14.029,15.443,23.913,16.716ZM713.036,589.981c-1.933-3.667-2.676-7.829-4.661-11.47-2.421-4.882-6.652-8.605-11.286-11.339,7.781.297,15.199-3.671,20.422-9.235,8.715-9.011,23.615-11.096,34.357-4.548,8.435,4.808,14.046,14.356,13.693,24.106.398,13.17-10.221,25.518-23.238,27.264-11.598,2.023-23.947-4.335-29.286-14.777Z" fill="#262625"/>
        <path d="M751.455,480.309c4.072-1.7,7.821-4.339,10.947-7.947,4.927-5.687,7.638-13.244,7.451-20.766-.342-13.684-10.497-25.769-23.747-28.904-14.121-3.341-29.011,4.521-35.033,17.55-.377.816-.719,1.649-1.021,2.496-1.348,3.769-2.099,7.743-4.316,11.153-3.244,5.061-16.416,12.529-16.461,12.578,1.809-.007,9.606.156,12.166.296,4.099.16,8.009,1.503,11.471,3.641,3.461,2.067,6.021,5.314,9.477,7.383,9.029,5.406,19.871,6.359,29.067,2.52ZM724.053,475.741c-3.508-2.209-6.232-5.442-9.772-7.603-4.538-3.017-10.063-4.126-15.444-4.177,6.887-3.634,11.327-10.779,13.068-18.209,3.042-12.162,14.903-21.417,27.48-21.117,9.709-.054,19.342,5.41,23.912,14.03,6.93,11.206,3.907,27.21-6.493,35.231-9.033,7.551-22.907,8.219-32.751,1.846Z" fill="#262625"/>
        <path d="M702.488,361.553c2.676-3.508,4.603-7.668,5.506-12.356,1.423-7.388-.007-15.289-3.93-21.709-7.138-11.68-21.975-17.069-35.017-13.158-13.899,4.167-22.863,18.421-21.565,32.715.081.896.202,1.787.363,2.672.718,3.938,2.054,7.755,1.839,11.817-.279,6.005-7.952,19.059-7.966,19.123,1.564-.91,8.397-4.668,10.684-5.826,3.63-1.911,7.687-2.703,11.754-2.582,4.031.059,7.871,1.591,11.898,1.655,10.523.167,20.388-4.428,26.433-12.351ZM676.473,371.298c-4.143-.159-8.118-1.597-12.264-1.699-5.439-.344-10.778,1.458-15.463,4.105,4.148-6.591,4.42-14.998,2.213-22.303-3.447-12.053,2.198-25.999,13.239-32.028,8.381-4.901,19.455-4.986,27.723.195,11.604,6.24,16.988,21.611,11.992,33.757-4.047,11.055-15.728,18.571-27.441,17.974Z" fill="#262625"/>
        <path d="M600.704,283.191c.564-4.376.153-8.942-1.409-13.454-2.461-7.11-7.651-13.237-14.258-16.835-12.021-6.546-27.565-3.794-36.905,6.113-9.954,10.559-10.59,27.385-2.318,39.115.518.735,1.069,1.447,1.651,2.132,2.59,3.052,5.656,5.689,7.501,9.314,2.761,5.34,2.643,20.481,2.663,20.544.899-1.57,4.938-8.241,6.34-10.388,2.189-3.47,5.306-6.184,8.889-8.113,3.521-1.964,7.613-2.558,11.132-4.516,9.197-5.117,15.443-14.029,16.716-23.913ZM583.047,304.638c-3.667,1.933-7.829,2.676-11.47,4.661-4.882,2.421-8.605,6.652-11.339,11.286.297-7.781-3.671-15.199-9.235-20.422-9.011-8.715-11.096-23.615-4.548-34.357,4.808-8.435,14.356-14.046,24.106-13.693,13.17-.398,25.518,10.221,27.264,23.238,2.023,11.598-4.335,23.947-14.777,29.286Z" fill="#262625"/>
        <path d="M473.375,266.219c-1.7-4.072-4.339-7.821-7.947-10.947-5.687-4.927-13.244-7.638-20.766-7.451-13.684.342-25.769,10.497-28.904,23.747-3.341,14.121,4.521,29.011,17.55,35.033.816.377,1.649.719,2.496,1.021,3.769,1.348,7.743,2.099,11.153,4.316,5.061,3.244,12.529,16.416,12.578,16.461-.007-1.809.156-9.606.296-12.166.16-4.099,1.503-8.009,3.641-11.471,2.067-3.461,5.314-6.021,7.383-9.477,5.406-9.029,6.359-19.871,2.52-29.067ZM468.807,293.621c-2.209,3.508-5.442,6.232-7.603,9.772-3.017,4.538-4.126,10.063-4.177,15.444-3.634-6.887-10.779-11.327-18.209-13.068-12.162-3.042-21.417-14.903-21.117-27.48-.054-9.709,5.41-19.342,14.03-23.912,11.206-6.93,27.21-3.907,35.231,6.493,7.551,9.033,8.219,22.907,1.846,32.751Z" fill="#262625"/>
        <path d="M354.619,315.185c-3.508-2.676-7.668-4.603-12.356-5.506-7.388-1.423-15.289.007-21.709,3.93-11.68,7.138-17.069,21.975-13.158,35.017,4.167,13.899,18.421,22.863,32.715,21.565.896-.081,1.787-.202,2.672-.363,3.938-.718,7.755-2.054,11.817-1.839,6.005.279,19.059,7.952,19.123,7.966-.91-1.564-4.668-8.397-5.826-10.684-1.911-3.63-2.703-7.687-2.582-11.754.059-4.031,1.591-7.871,1.655-11.898.167-10.523-4.428-20.388-12.351-26.433ZM364.364,341.2c-.159,4.143-1.597,8.118-1.699,12.264-.344,5.439,1.458,10.778,4.105,15.463-6.591-4.148-14.998-4.42-22.303-2.213-12.053,3.447-25.999-2.198-32.028-13.239-4.901-8.381-4.986-19.455.195-27.723,6.24-11.604,21.611-16.988,33.757-11.992,11.055,4.047,18.571,15.728,17.974,27.441Z" fill="#262625"/>
        <path d="M276.257,416.969c-4.376-.564-8.942-.153-13.454,1.409-7.11,2.461-13.237,7.651-16.835,14.258-6.546,12.021-3.794,27.565,6.113,36.905,10.559,9.954,27.385,10.59,39.115,2.318.735-.518,1.447-1.069,2.132-1.651,3.052-2.59,5.689-5.656,9.314-7.501,5.34-2.761,20.481-2.643,20.544-2.663-1.57-.899-8.241-4.938-10.388-6.34-3.47-2.189-6.184-5.306-8.113-8.889-1.964-3.521-2.558-7.613-4.516-11.132-5.117-9.197-14.029-15.443-23.913-16.716ZM297.704,434.626c1.933,3.667,2.676,7.829,4.661,11.47,2.421,4.882,6.652,8.605,11.286,11.339-7.781-.297-15.199,3.671-20.422,9.235-8.715,9.011-23.615,11.096-34.357,4.548-8.435-4.808-14.046-14.356-13.693-24.106-.398-13.17,10.221-25.518,23.238-27.264,11.598-2.023,23.947,4.335,29.286,14.777Z" fill="#262625"/>
        <path d="M259.285,544.298c-4.072,1.7-7.821,4.339-10.947,7.947-4.927,5.687-7.638,13.244-7.451,20.766.342,13.684,10.497,25.769,23.747,28.904,14.121,3.341,29.011-4.521,35.033-17.55.377-.816.719-1.649,1.021-2.496,1.348-3.769,2.099-7.743,4.316-11.153,3.244-5.061,16.416-12.529,16.461-12.578-1.809.007-9.606-.156-12.166-.296-4.099-.16-8.009-1.503-11.471-3.641-3.461-2.067-6.021-5.314-9.477-7.383-9.029-5.406-19.871-6.359-29.067-2.52ZM286.687,548.866c3.508,2.209,6.232,5.442,9.772,7.603,4.538,3.017,10.063,4.126,15.444,4.177-6.887,3.634-11.327,10.779-13.068,18.209-3.042,12.162-14.903,21.417-27.48,21.117-9.709.054-19.342-5.41-23.912-14.03-6.93-11.206-3.907-27.21,6.493-35.231,9.033-7.551,22.907-8.219,32.751-1.846Z" fill="#262625"/>
      </g>
      <path d="M489.751,326.254c37.45-3.58,76.01,5.03,108.23,24.51,50.82,29.73,85.19,85.21,90.2,143.76,1.36,18.76.84,37.8-3.28,56.21-3.83,19.5-11.38,38.14-21.03,55.46-14.21,24.2-33.59,45.41-56.6,61.51-28.16,19.21-61.81,30.73-95.99,31.31-38.8,1.56-77.79-10.66-109.37-33.1-25.57-18.43-47.01-42.83-60.88-71.2-3.51-7.69-7.11-15.37-9.81-23.39-13.17-40.48-12.48-85.47,2.56-125.35,6.31-16.01,14.35-31.42,24.7-45.2,30.88-41.55,79.45-70.15,131.27-74.52ZM483.881,330.494c-19.6,2.75-38.94,8.13-56.53,17.3-43.8,21.45-78.05,61.3-93.04,107.67-12.09,37.3-11.88,78.47.73,115.61,11.91,35.09,34.8,66.28,64.37,88.57,29.7,22.41,66.56,35.53,103.84,35.79,31.09.9,62.22-7.53,89.22-22.79,22.61-13.06,42.44-30.87,57.66-52.1,20.64-28.02,32.75-62.2,34.9-96.9.89-20.35-.27-41.05-6.16-60.65-13.36-49.51-48.21-93.12-94.51-115.56-30.79-15.53-66.31-21.48-100.48-16.94Z" fill="#262625"/>
      <path d="M456.589,102.673c-.107-2.757.009-5.515.368-8.247-39.69,4.763-78.381,15.785-114.777,32.058,1.379,2.306,2.568,4.736,3.559,7.265,35.07-15.895,72.736-25.699,110.85-31.075Z" fill="#262625"/>
      <path d="M456.602,922.008c-38.643-4.874-76.503-15.693-112.069-31.654-1.173,2.516-2.552,4.917-4.117,7.18,36.907,16.686,76.29,27.907,116.455,32.87-.322-2.785-.415-5.595-.269-8.396Z" fill="#262625"/>
      <path d="M182.061,759.248c-2.181,1.57-4.493,2.968-6.921,4.169,23.319,31.186,50.915,59.201,81.529,83.293,1.256-2.361,2.698-4.608,4.309-6.721-29.742-23.223-56.34-50.488-78.917-80.741Z" fill="#262625"/>
      <path d="M896.331,401.19c6.135,20.416,9.989,41.361,12.166,62.513,2.655-.252,5.318-.296,7.966-.108-4.53-42.073-15.749-83.325-32.721-122.086-2.272,1.328-4.659,2.479-7.144,3.433,7.935,18.238,14.551,37.046,19.733,56.247Z" fill="#262625"/>
      <path d="M554.167,102.055c38.09,4.536,75.521,14.619,110.651,30.015.948-2.578,2.118-5.048,3.466-7.403-36.359-15.836-75.095-26.177-114.5-30.719.344,2.687.474,5.399.383,8.107Z" fill="#262625"/>
      <path d="M827.897,261.211c2.034-1.675,4.211-3.18,6.499-4.515-23.192-31.071-50.593-58.959-81.469-82.386-1.378,2.276-2.943,4.425-4.66,6.441,30.116,22.912,56.926,50.136,79.631,80.46Z" fill="#262625"/>
      <path d="M262.518,183.211c-1.73-2.05-3.296-4.241-4.677-6.557-30.542,23.292-57.969,50.669-81.13,81.231,2.397,1.44,4.656,3.084,6.765,4.898,22.639-29.904,49.278-56.782,79.042-79.573Z" fill="#262625"/>
      <path d="M121.557,644.734c-9.228-27.178-15.489-55.315-18.831-83.799-2.671.234-5.347.25-8.009.039,3.25,28.632,9.323,56.937,18.232,84.323,3.814,11.329,8.426,22.357,13.284,33.279,2.175-1.456,4.477-2.734,6.877-3.833-4.243-9.843-8.106-19.852-11.553-30.009Z" fill="#262625"/>
      <path d="M749.02,841.746c1.542,2.326,2.889,4.79,4.023,7.37,30.423-23.755,57.645-51.586,80.885-82.407-2.497-1.135-4.89-2.462-7.144-3.982-22.214,29.707-48.478,56.297-77.764,79.019Z" fill="#262625"/>
      <path d="M102.664,463.679c3.13-26.964,8.874-53.623,17.248-79.457,4.196-12.979,9.062-25.73,14.555-38.204-2.534-.942-4.965-2.095-7.283-3.424-2.966,6.69-5.786,13.442-8.467,20.243-12.228,32.424-20.224,66.35-24.084,100.754,2.673-.187,5.359-.159,8.031.087Z" fill="#262625"/>
      <path d="M908.13,560.847c-4.784,40.378-15.525,80.101-31.768,117.402,2.391,1.218,4.672,2.62,6.818,4.198,11.819-26.826,21.085-54.768,26.738-83.548,2.799-12.505,4.848-25.14,6.278-37.847-2.688.148-5.386.084-8.067-.206Z" fill="#262625"/>
      <path d="M554.155,922.485c.097,2.759-.032,5.517-.401,8.25,39.88-4.513,78.965-15.446,115.676-31.744-1.714-2.19-3.253-4.521-4.581-6.985-35.171,15.431-72.584,25.901-110.695,30.479Z" fill="#262625"/>
      <g id="f" data-name="cusps">
        <path d="M708.091,819.715c-27.066,0-49.085,22.02-49.085,49.085,0,8.389,2.119,16.291,5.844,23.205,1.328,2.464,2.867,4.796,4.581,6.985,8.992,11.49,22.973,18.895,38.661,18.895,27.066,0,49.085-22.02,49.085-49.085,0-6.999-1.483-13.654-4.134-19.685-1.134-2.58-2.48-5.044-4.023-7.37-8.797-13.263-23.855-22.03-40.929-22.03ZM753.177,868.8c0,24.86-20.225,45.085-45.085,45.085-14.055,0-26.625-6.467-34.9-16.579-1.763-2.154-3.332-4.473-4.677-6.932-3.509-6.412-5.508-13.764-5.508-21.574,0-24.86,20.225-45.085,45.085-45.085,15.784,0,29.69,8.159,37.747,20.475,1.534,2.344,2.857,4.837,3.939,7.455,2.186,5.292,3.4,11.083,3.4,17.155Z" fill="#262625"/>
        <path d="M854.165,672.922c-27.066,0-49.085,22.02-49.085,49.085,0,16.935,8.621,31.894,21.705,40.72,2.254,1.52,4.646,2.847,7.144,3.982,6.175,2.807,13.023,4.384,20.237,4.384,27.066,0,49.085-22.02,49.085-49.085,0-16.217-7.911-30.616-20.07-39.559-2.146-1.578-4.427-2.981-6.818-4.198-6.671-3.398-14.211-5.328-22.197-5.328ZM899.25,722.007c0,24.86-20.225,45.085-45.085,45.085-6.311,0-12.321-1.309-17.78-3.66-2.533-1.091-4.947-2.407-7.216-3.925-12.102-8.093-20.09-21.88-20.09-37.5,0-24.86,20.225-45.085,45.085-45.085,7.412,0,14.405,1.809,20.58,4.992,2.391,1.232,4.659,2.668,6.779,4.292,10.766,8.247,17.727,21.224,17.727,35.802Z" fill="#262625"/>
        <path d="M809.969,299.111c0,27.066,22.02,49.085,49.085,49.085,6.18,0,12.092-1.159,17.543-3.253,2.485-.954,4.872-2.105,7.144-3.433,14.577-8.521,24.398-24.33,24.398-42.399,0-27.065-22.02-49.085-49.085-49.085-8.985,0-17.407,2.438-24.658,6.67-2.288,1.335-4.465,2.84-6.499,4.515-10.94,9.01-17.928,22.654-17.928,37.899ZM859.055,254.026c24.86,0,45.085,20.225,45.085,45.085,0,16.442-8.85,30.85-22.033,38.727-2.257,1.348-4.641,2.503-7.129,3.446-4.955,1.877-10.319,2.913-15.924,2.913-24.86,0-45.085-20.225-45.085-45.085,0-13.93,6.353-26.403,16.311-34.679,2.028-1.685,4.21-3.189,6.514-4.503,6.573-3.749,14.168-5.903,22.261-5.903Z" fill="#262625"/>
        <path d="M661.821,148.966c0,27.066,22.02,49.085,49.085,49.085,14.949,0,28.35-6.726,37.36-17.3,1.717-2.016,3.282-4.165,4.66-6.441,4.482-7.403,7.065-16.077,7.065-25.344,0-27.065-22.02-49.085-49.085-49.085-18.229,0-34.157,9.996-42.622,24.786-1.348,2.355-2.518,4.825-3.466,7.403-1.938,5.27-2.998,10.961-2.998,16.896ZM710.906,103.881c24.86,0,45.085,20.225,45.085,45.085,0,8.364-2.297,16.199-6.282,22.92-1.359,2.292-2.917,4.451-4.647,6.46-8.275,9.606-20.512,15.706-34.156,15.706-24.86,0-45.085-20.225-45.085-45.085,0-5.355.943-10.493,2.665-15.262.937-2.596,2.111-5.077,3.486-7.428,7.828-13.381,22.344-22.395,38.935-22.395Z" fill="#262625"/>
        <path d="M300.028,200.685c27.066,0,49.085-22.02,49.085-49.085,0-6.297-1.205-12.315-3.375-17.852-.991-2.529-2.18-4.959-3.559-7.265-8.578-14.342-24.259-23.968-42.151-23.968-27.066,0-49.085,22.02-49.085,49.085,0,9.148,2.523,17.716,6.899,25.055,1.38,2.316,2.947,4.507,4.677,6.557,9.011,10.676,22.479,17.474,37.51,17.474ZM254.943,151.599c0-24.86,20.225-45.085,45.085-45.085,16.271,0,30.555,8.666,38.484,21.622,1.409,2.303,2.609,4.746,3.593,7.296,1.937,5.022,3.009,10.47,3.009,16.167,0,24.86-20.225,45.085-45.085,45.085-13.732,0-26.042-6.178-34.318-15.893-1.738-2.04-3.296-4.236-4.653-6.564-3.88-6.656-6.115-14.384-6.115-22.629Z" fill="#262625"/>
        <path d="M151.516,349.076c27.066,0,49.085-22.02,49.085-49.085,0-14.865-6.652-28.198-17.125-37.207-2.109-1.815-4.368-3.459-6.765-4.898-7.371-4.427-15.99-6.979-25.196-6.979-27.066,0-49.085,22.02-49.085,49.085,0,18.215,9.981,34.133,24.753,42.603,2.318,1.329,4.749,2.482,7.283,3.424,5.313,1.975,11.057,3.058,17.049,3.058ZM106.431,299.991c0-24.86,20.225-45.085,45.085-45.085,8.304,0,16.084,2.266,22.772,6.198,2.413,1.419,4.681,3.055,6.781,4.883,9.506,8.272,15.532,20.444,15.532,34.004,0,24.86-20.225,45.085-45.085,45.085-5.411,0-10.601-.96-15.412-2.715-2.537-.926-4.963-2.082-7.265-3.428-13.389-7.827-22.408-22.347-22.408-38.943Z" fill="#262625"/>
        <path d="M202.547,719.392c0-27.065-22.02-49.085-49.085-49.085-7.258,0-14.146,1.596-20.352,4.436-2.401,1.099-4.702,2.377-6.877,3.833-13.167,8.813-21.857,23.817-21.857,40.817,0,27.066,22.02,49.085,49.085,49.085,7.779,0,15.136-1.827,21.678-5.061,2.428-1.2,4.74-2.599,6.921-4.169,12.393-8.918,20.486-23.455,20.486-39.855ZM153.462,764.478c-24.86,0-45.085-20.225-45.085-45.085,0-15.374,7.74-28.968,19.523-37.11,2.146-1.483,4.428-2.781,6.822-3.88,5.712-2.622,12.056-4.096,18.741-4.096,24.86,0,45.085,20.225,45.085,45.085,0,15.087-7.457,28.457-18.87,36.646-2.186,1.568-4.513,2.951-6.965,4.114-5.842,2.77-12.367,4.326-19.25,4.326Z" fill="#262625"/>
        <path d="M349.114,869.682c0-27.065-22.02-49.085-49.085-49.085-15.913,0-30.076,7.617-39.051,19.391-1.611,2.113-3.053,4.359-4.309,6.721-3.649,6.859-5.726,14.677-5.726,22.973,0,27.066,22.02,49.085,49.085,49.085,16.729,0,31.522-8.417,40.387-21.233,1.566-2.263,2.944-4.664,4.117-7.18,2.932-6.287,4.581-13.289,4.581-20.672ZM300.028,914.768c-24.86,0-45.085-20.225-45.085-45.085,0-7.371,1.789-14.327,4.939-20.477,1.225-2.391,2.651-4.66,4.266-6.781,8.243-10.824,21.257-17.827,35.881-17.827,24.86,0,45.085,20.225,45.085,45.085,0,6.799-1.521,13.246-4.228,19.033-1.176,2.513-2.578,4.898-4.177,7.134-8.185,11.441-21.572,18.919-36.68,18.919Z" fill="#262625"/>
        <path d="M554.155,922.485c-.047-1.344-.13-2.687-.292-4.027-.85-7.04-3.293-13.992-7.507-20.404-6.642-10.105-17.145-17.602-28.86-20.599-21.312-5.452-44.443,4.971-55.082,24.094-3.561,6.401-5.444,13.401-5.812,20.459-.146,2.801-.053,5.611.269,8.396,1.45,12.54,7.542,24.573,17.374,32.997,1.097.94,2.237,1.832,3.414,2.67,5.241,3.732,11.058,6.63,15.363,11.549,6.41,7.23,12.203,30.865,12.26,30.956.781-2.801,4.439-14.788,5.776-18.686,2.04-6.27,5.825-11.729,10.645-16.149,4.71-4.45,10.85-6.99,15.56-11.43,9.14-8.616,14.909-19.852,16.492-31.577.369-2.733.498-5.491.401-8.25ZM534.822,958.841c-4.95,4.46-11.14,7.26-16.03,11.79-6.65,5.7-10.78,13.76-13.21,22.06-2.61-12.24-11.72-22.23-22.45-28.17-12.14-6.959-20.245-19.885-22.073-33.604-.371-2.781-.481-5.593-.316-8.396.193-3.28.757-6.547,1.739-9.73,4.16-15.04,16.82-27.55,32.15-30.85,20.36-5.82,43.79,5.85,51.65,25.44,2.21,4.937,3.373,10.24,3.582,15.587.107,2.744-.038,5.499-.424,8.223-1.492,10.534-6.583,20.591-14.618,27.65Z" fill="#262625"/>
        <path d="M978.729,506.616c-6.27-2.04-11.729-5.825-16.149-10.645-4.45-4.71-6.99-10.85-11.43-15.56-9.375-9.946-21.853-15.905-34.688-16.816-2.649-.188-5.311-.144-7.966.108-.4.038-.801.058-1.2.106-7.04.849-13.992,3.293-20.404,7.507-10.105,6.642-17.602,17.145-20.599,28.86-5.452,21.312,4.971,44.443,24.094,55.082,5.578,3.103,11.612,4.926,17.742,5.588,2.681.29,5.379.354,8.067.206,13.619-.75,26.94-7,36.044-17.625.94-1.097,1.832-2.237,2.67-3.414,3.732-5.241,6.63-11.058,11.549-15.363,7.23-6.41,30.865-12.203,30.956-12.259-2.801-.781-14.788-4.439-18.687-5.776ZM953.36,534.542c-7.485,13.058-21.873,21.452-36.727,22.382-2.677.167-5.369.089-8.039-.245-2.347-.294-4.677-.781-6.964-1.486-15.04-4.16-27.55-16.82-30.85-32.15-5.82-20.36,5.85-43.79,25.44-51.65,4.045-1.811,8.337-2.913,12.697-3.37,2.65-.278,5.325-.321,7.986-.127,11.65.852,23.022,6.129,30.777,14.956,4.46,4.95,7.26,11.14,11.79,16.03,5.7,6.65,13.76,10.78,22.06,13.21-12.24,2.61-22.23,11.72-28.17,22.45Z" fill="#262625"/>
        <path d="M102.726,560.935c.516-.045,1.033-.075,1.548-.137,7.04-.849,13.992-3.293,20.404-7.507,10.105-6.642,17.602-17.145,20.599-28.86,5.452-21.312-4.971-44.443-24.094-55.082-5.813-3.234-12.122-5.081-18.519-5.669-2.672-.246-5.358-.274-8.031-.087-13.361.932-26.364,7.154-35.303,17.587-.94,1.097-1.832,2.237-2.67,3.414-3.732,5.241-6.63,11.058-11.549,15.363-7.23,6.41-30.865,12.203-30.956,12.26,2.801.781,14.788,4.439,18.687,5.776,6.27,2.04,11.729,5.825,16.149,10.645,4.45,4.71,6.99,10.85,11.43,15.56,9.28,9.844,21.6,15.775,34.296,16.778,2.662.21,5.339.195,8.009-.039ZM94.235,556.673c-11.498-.95-22.686-6.2-30.345-14.917-4.46-4.95-7.26-11.14-11.79-16.03-5.7-6.65-13.76-10.78-22.06-13.21,12.24-2.61,22.23-11.72,28.17-22.45,7.355-12.831,21.376-21.153,35.955-22.32,2.676-.214,5.369-.19,8.044.095,2.606.278,5.195.793,7.731,1.575,15.04,4.16,27.55,16.82,30.85,32.15,5.82,20.36-5.85,43.79-25.44,51.65-4.176,1.869-8.615,2.986-13.12,3.414-2.656.252-5.333.263-7.995.043Z" fill="#262625"/>
        <path d="M456.589,102.673c.05,1.284.133,2.567.287,3.848.849,7.04,3.293,13.992,7.507,20.404,6.641,10.105,17.145,17.602,28.86,20.599,21.312,5.452,44.442-4.971,55.082-24.094,3.715-6.677,5.595-14.008,5.842-21.374.091-2.708-.039-5.42-.383-8.107-1.578-12.314-7.622-24.088-17.29-32.371-1.097-.94-2.237-1.832-3.414-2.67-5.24-3.732-11.058-6.63-15.363-11.549-6.41-7.23-12.203-30.865-12.26-30.956-.781,2.801-4.439,14.788-5.775,18.686-2.04,6.27-5.825,11.729-10.645,16.149-4.71,4.45-10.85,6.99-15.56,11.43-9.187,8.661-14.973,19.968-16.521,31.758-.359,2.732-.475,5.49-.368,8.247ZM475.917,66.137c4.95-4.46,11.14-7.26,16.03-11.79,6.65-5.7,10.78-13.76,13.21-22.06,2.61,12.24,11.72,22.23,22.45,28.17,11.965,6.859,20.014,19.514,21.993,33.012.393,2.683.542,5.399.438,8.111-.137,3.575-.712,7.141-1.782,10.607-4.16,15.04-16.82,27.55-32.15,30.85-20.36,5.82-43.79-5.85-51.65-25.44-2.192-4.898-3.356-10.157-3.578-15.462-.115-2.737.026-5.486.402-8.204,1.466-10.587,6.565-20.703,14.636-27.794Z" fill="#262625"/>
      </g>
    </g>
  </g>
</svg>